<svg width="352" height="235" viewBox="0 0 352 235" fill="none" xmlns="http://www.w3.org/2000/svg"><mask id="a" style="mask-type:alpha" maskUnits="userSpaceOnUse" x="0" y="0" width="352" height="235"><rect width="352" height="235" rx="30" fill="#233709"/></mask><g mask="url(#a)"><rect width="352.18" height="235" rx="30" fill="#233709"/><path d="M175.348 86.302c-.061.183-.64.396-1.31.518-.67.091-1.37.335-1.584.518-1.005.884-1.309 1.097-1.614 1.097-.152 0-.305.214-.305.457a.468.468 0 01-.456.458c-.244 0-.457.152-.457.304 0 .305-.214.64-1.097 1.616-.183.213-.457.7-.548 1.066-.122.366-.366.67-.518.67-.152 0-.274.184-.274.428 0 .243-.335.518-.762.61-.426.121-.761.334-.761.487 0 .183-.366.304-.792.304-.426 0-.975.183-1.188.366-1.005.915-1.371 1.158-1.675 1.158-.152 0-.305.214-.305.458a.468.468 0 01-.457.457c-.274 0-.456.274-.456.762 0 .426-.122.762-.275.762-.152 0-.365.335-.456.761-.122.427-.336.762-.488.762-.183 0-.304.549-.304 1.189 0 .671-.122 1.28-.275 1.372-.121.091-.335 1.158-.426 2.346-.091 1.219-.305 2.286-.457 2.378-.152.091-.365.487-.487.853-.122.396-.366.701-.518.701-.152 0-.274.213-.274.457 0 .244-.122.457-.305.457-.152 0-.365.335-.487.762-.091.427-.305.762-.457.762-.152 0-.274.335-.274.762 0 .488-.183.762-.457.762-.335 0-.457.335-.457 1.219 0 .671-.122 1.219-.304 1.219-.183 0-.305 1.006-.305 2.438 0 1.433.122 2.439.305 2.439.182 0 .304.944.304 2.194.031 1.463.183 2.438.457 2.804.64.853.64 6.065 0 6.705-.579.579-.579 1.097 0 1.097.244 0 .457.122.457.274 0 .153.7.336 1.584.397.883.091 1.645.335 1.705.518.061.183.579.335 1.158.335h1.036v-6.675c0-5.089-.092-6.705-.366-6.796-.274-.092-.426-1.036-.487-2.895-.092-2.195-.031-2.835.365-3.231.274-.244.488-.61.488-.792 0-.183.121-.336.274-.336.152 0 .365-.335.457-.762.121-.426.335-.762.487-.762.183 0 .304-.213.304-.457 0-.244.214-.457.457-.457.275 0 .457-.274.457-.762 0-.427.122-.762.274-.762.153 0 .335-.548.457-1.219.092-.67.335-1.219.488-1.219.182 0 .304-1.036.304-2.438 0-1.402.122-2.438.305-2.438.152 0 .365-.336.487-.762.092-.427.305-.762.457-.762.152 0 .274-.214.274-.457a.47.47 0 01.457-.458c.244 0 .457-.121.457-.274 0-.152.426-.366.914-.487.518-.122.913-.336.913-.488 0-.153.214-.274.457-.274.579 0 3.046-2.439 3.32-3.292.122-.366.366-.67.518-.67.152 0 .274-.153.274-.336 0-.183.396-.731.884-1.219.792-.792 1.096-.884 2.741-.884 1.036 0 1.858.122 1.858.275 0 .152.548.335 1.218.457.67.091 1.219.335 1.219.487 0 .183 1.157.305 2.771.305 2.133 0 2.864-.122 3.26-.487.365-.366.852-.458 1.979-.336.823.061 1.584.275 1.706.427.091.183.487.396.853.518.67.213 1.127.975.822 1.432-.091.153-1.736.275-3.655.275-2.101 0-3.472.122-3.472.305 0 .152-.518.304-1.158.304-.639 0-1.309.153-1.462.305-.243.244-.578.244-1.157 0-1.432-.548-3.746-.396-4.447.305-.335.335-.609.731-.609.914 0 .153-.213.305-.457.305-.274 0-.457.274-.457.762 0 .427-.152.762-.335.762-.426 0-1.188.762-1.188 1.189 0 .182-.335.335-.761.335-.488 0-.762.183-.762.457a.468.468 0 01-.457.457c-.243 0-.457.122-.457.305 0 .152-.335.305-.761.305-.487 0-.762.183-.762.457 0 .244-.274.457-.609.457-.365 0-.944.335-1.34.762-.396.427-.853.762-1.066.762-.183 0-.335.518-.335 1.219 0 .67-.122 1.219-.305 1.219-.182 0-.304 1.128-.304 2.743 0 2.164-.092 2.804-.457 2.926-.244.122-.457.518-.457.914s-.152.732-.335.732c-.457 0-1.066.67-1.31 1.463-.122.365-.365.67-.518.67-.152 0-.274.762-.274 1.676 0 1.28.092 1.677.457 1.677.366 0 .457.426.457 1.981 0 1.127.122 1.981.305 1.981.182 0 .304 1.005.304 2.438 0 1.341-.122 2.438-.274 2.438-.152 0-.335 1.189-.396 2.652-.061 1.737-.213 2.682-.487 2.773-.244.061-.366.762-.366 2.072 0 1.098-.122 1.951-.304 1.951-.153 0-.305.335-.305.762s-.213.853-.457.945c-.243.122-.457.518-.457.914s-.152.731-.335.731c-.182 0-.518.214-.761.458-.64.609-3.564.609-4.204 0-.243-.244-.578-.458-.761-.458-.183 0-.335-.213-.335-.457a.468.468 0 00-.457-.457c-.274 0-.457-.274-.457-.762 0-.487-.183-.762-.457-.762a.469.469 0 01-.457-.457c0-.244-.121-.457-.304-.457-.153 0-.305-.335-.305-.762 0-.488-.183-.762-.457-.762-.335 0-.457-.335-.457-1.219 0-.671-.121-1.219-.274-1.219-.152 0-.396-.762-.487-1.676-.122-.915-.335-1.677-.487-1.677-.153 0-.275-3.352-.275-7.467 0-4.785.122-7.467.305-7.467s.305-.396.305-.883c0-.488.213-1.098.457-1.372.243-.244.456-.792.456-1.219 0-.427.122-.792.275-.792.152 0 .396-.305.517-.671.092-.366.366-.853.549-1.067.913-1.036 1.096-1.31 1.096-1.767 0-.244.122-.457.305-.457.152 0 .365-.336.487-.762.091-.427.305-.762.457-.762.152 0 .274-1.798.274-3.962 0-2.439-.122-3.962-.304-3.962-.153 0-.305.213-.305.457 0 .244-.152.457-.335.457-.396 0-3.625 3.261-3.625 3.657 0 .183-.213.305-.457.305-.274 0-.457.274-.457.762s-.182.762-.456.762a.468.468 0 00-.457.457c0 .244-.122.457-.305.457-.152 0-.304.335-.304.762 0 .488-.183.762-.457.762s-.457.274-.457.762c0 .427-.122.762-.274.762-.153 0-.366.335-.457.762-.122.427-.335.762-.488.762-.182 0-.304.548-.304 1.188 0 .671-.152 1.25-.335 1.311-.153.061-.396.67-.488 1.402-.091.701-.304 1.28-.426 1.28-.152 0-.274.884-.274 1.95 0 1.341-.152 2.103-.457 2.439-.609.579-.67 7.985-.091 8.168.274.091.426 1.036.487 2.773.061 1.463.244 2.652.396 2.652.152 0 .274.335.274.762 0 .426.213 1.28.457 1.889.244.579.457 1.341.457 1.646 0 .335.122.579.274.579.152 0 .365.427.487.914.122.518.335.915.488.915.152 0 .274.335.274.762 0 .487.183.761.457.761s.457.275.457.762c0 .488.182.762.456.762.244 0 .457.153.457.336 0 .426.762 1.188 1.188 1.188.183 0 .335.153.335.335 0 .427.762 1.189 1.188 1.189.183 0 .335.213.335.457 0 .275.274.457.64.457.335 0 .822.214 1.066.458.274.243.731.457 1.066.457.305 0 .579.122.579.274 0 .122 1.005.335 2.193.427 1.218.122 2.254.335 2.315.518.152.427 5.452.396 5.604-.031.061-.183.822-.426 1.706-.518.883-.061 1.584-.244 1.584-.396 0-.152.487-.274 1.066-.274.67 0 1.157-.183 1.249-.457.121-.275.578-.458 1.187-.458.61 0 1.067-.182 1.188-.457.092-.244.518-.457.945-.457.426 0 .761-.152.761-.305 0-.183.335-.304.762-.304.487 0 .761-.183.761-.458 0-.243.274-.457.609-.457.366 0 .944-.335 1.34-.762.396-.426.975-.762 1.341-.762.335 0 .67-.213.792-.457.091-.244.456-.457.791-.457s.61-.152.61-.305c0-.183.213-.305.457-.305a.468.468 0 00.456-.457c0-.274.275-.457.731-.457.396 0 .792-.213.914-.457.092-.244.366-.457.64-.457.243 0 .457-.153.457-.305 0-.183.274-.305.609-.305.335 0 .609-.213.609-.457 0-.244.274-.457.609-.457.366 0 .944-.335 1.34-.762.396-.427.853-.762 1.066-.762.183 0 .336-.122.336-.274 0-.153.304-.396.7-.518.366-.122.975-.518 1.34-.915.366-.396.945-.731 1.31-.731.335 0 .609-.152.609-.335 0-.427.762-1.189 1.188-1.189.183 0 .335-.213.335-.457 0-.274.274-.457.762-.457.487 0 .761-.183.761-.457a.47.47 0 01.457-.458c.244 0 .457-.152.457-.304 0-.183.213-.305.457-.305.243 0 .457-.153.457-.335 0-.427.761-1.189 1.188-1.189.182 0 .335-.213.335-.457 0-.244.152-.457.335-.457.426 0 3.624-3.2 3.624-3.627 0-.183.213-.335.457-.335a.47.47 0 00.457-.458c0-.243.152-.457.305-.457.182 0 .304-.335.304-.762 0-.487.183-.762.457-.762.366 0 .457-.426.457-1.95 0-1.219-.122-2.012-.366-2.073-.182-.061-.395-.944-.487-2.011-.061-1.036-.244-1.89-.396-1.89-.152 0-.274-.548-.274-1.188 0-.671-.213-1.402-.457-1.677-.244-.243-.457-.731-.457-1.097s-.213-.853-.457-1.097c-.243-.274-.456-.792-.456-1.189 0-.396-.092-.762-.214-.822-.426-.153-1.309-1.982-1.309-2.622 0-.335-.153-.67-.335-.731-.183-.061-.396-.762-.488-1.554-.091-.793-.304-1.433-.426-1.433-.153 0-.274-.548-.274-1.188 0-.762-.153-1.25-.457-1.372-.274-.091-.457-.549-.457-1.219 0-.579-.092-1.097-.213-1.158-.396-.152-1.31-2.073-1.31-2.713 0-.304-.152-.579-.335-.579-.427 0-1.188-.762-1.188-1.188 0-.183-.213-.335-.457-.335-.244 0-.457-.153-.457-.336 0-.426-.761-1.188-1.188-1.188-.182 0-.335-.214-.335-.458 0-.274-.274-.457-.731-.457-.396 0-.792-.152-.853-.335-.061-.152-.67-.396-1.401-.488-.7-.091-1.279-.304-1.279-.426 0-.427-2.985-.336-3.107.091-.152.457-5.97.518-6.274.061-.122-.183-1.036-.396-2.011-.488-1.005-.091-1.888-.304-1.949-.487-.152-.457-2.102-.488-2.254-.061zm14.986 15.239c0 .152.396.304.883.304s1.097.214 1.371.457c.243.244.578.458.761.458.183 0 .335.122.335.304 0 .153.335.366.762.488.426.091.761.305.761.488 0 .244.244.609 1.158 1.615.182.213.365.549.365.731 0 .183.213.336.457.336.274 0 .457.274.457.731 0 .396.213.793.457.914.243.092.457.458.457.793s.152.609.304.609c.183 0 .305.397.305.915 0 .609.152.914.457.914.335 0 .457.335.457 1.189 0 .67.152 1.249.335 1.31.182.061.396.762.487 1.555.091.792.305 1.432.426 1.432.153 0 .275.762.275 1.676 0 .915-.122 1.677-.305 1.677-.152 0-.305.213-.305.457 0 .518-3.807 4.419-4.294 4.419-.153 0-.609.335-1.005.762-.396.427-.853.762-1.067.762a.338.338 0 00-.335.335c0 .457-.67 1.067-1.462 1.311-.365.121-.67.365-.67.518 0 .152-.152.274-.335.274-.213 0-.67.335-1.066.762s-.974.762-1.34.762c-.335 0-.609.213-.609.457a.468.468 0 01-.457.457c-.244 0-.457.122-.457.305 0 .152-.335.366-.761.488-.427.091-.762.304-.762.457 0 .152-.152.274-.304.274-.305 0-.671.244-1.676 1.128-.213.213-.578.396-.761.396-.183 0-.396.213-.488.457-.121.244-.456.457-.761.457s-.579.122-.579.275c0 .152-.335.365-.761.457-.427.122-.762.335-.762.487 0 .183-.274.305-.609.305-.335 0-.609.122-.609.305 0 .152-.335.366-.762.488-.426.091-.761.304-.761.426s-.335.335-.761.427c-.427.122-.762.335-.762.488 0 .182-.335.304-.731.304-.396 0-.792.214-.914.457-.091.244-.518.458-.944.458-.426 0-.761.122-.761.304 0 .153-.275.305-.64.305-.335 0-.822.213-1.066.457-.274.244-.883.457-1.371.457-.487 0-.883.122-.883.305a.305.305 0 01-.305.305c-.152 0-.304-.488-.304-1.067s.152-1.066.304-1.066c.183 0 .305-.61.305-1.341 0-.793.183-1.555.457-1.829.335-.305.457-1.097.457-2.743 0-1.28.121-2.316.274-2.316.122 0 .335-1.189.426-2.652.122-1.463.335-2.712.518-2.773.152-.061.305-.976.305-2.012 0-1.188.152-2.103.456-2.499.244-.305.457-1.097.457-1.737 0-.61.153-1.128.305-1.128.183 0 .305-.487.305-1.067 0-.67.182-1.158.456-1.249.244-.122.457-.549.457-1.036 0-.854.853-2.804 1.31-2.987.122-.061.213-.457.213-.853 0-.458.183-.732.457-.732a.468.468 0 00.457-.457c0-.244.122-.457.305-.457.152 0 .365-.335.487-.762.091-.427.305-.762.457-.762.152 0 .274-.213.274-.457 0-.244.152-.457.335-.457.426 0 1.188-.762 1.188-1.189 0-.183.213-.335.457-.335a.469.469 0 00.457-.457c0-.244.182-.458.396-.458.213 0 .639-.335.944-.762.305-.426.822-.761 1.127-.761.335 0 .579-.153.579-.305 0-.183.182-.305.426-.305s.487-.213.609-.457c.092-.244.457-.457.792-.457.366 0 .853-.214 1.097-.458.274-.243.883-.457 1.37-.457.488 0 .884-.152.884-.304 0-.183.487-.305 1.066-.305.578 0 1.066.122 1.066.305z" fill="#0D1F11"/><path d="M181.501 111.903c0 .152-.335.366-.762.487-.548.122-.761.397-.761.915 0 .396-.122.731-.305.731-.152 0-.304.336-.304.762 0 .427.152.762.304.762.183 0 .305.335.305.732 0 .518.213.792.761.914.427.122.762.335.762.488 0 .182.426.304.913.304.518 0 .914-.122.914-.304 0-.153.335-.366.762-.488.548-.122.761-.396.761-.914 0-.397.152-.732.305-.732.183 0 .304-.335.304-.762 0-.426-.121-.762-.304-.762-.153 0-.305-.335-.305-.731 0-.518-.213-.793-.761-.915-.427-.121-.762-.335-.762-.487 0-.183-.396-.305-.914-.305-.487 0-.913.122-.913.305zm9.747 3.352c0 .153-.336.305-.731.305-.518 0-.792.213-.914.762-.122.427-.335.762-.488.762-.182 0-.304.396-.304.914 0 .488.122.915.304.915.153 0 .366.335.488.762.122.548.396.762.914.762.395 0 .731.121.731.304 0 .153.335.305.761.305s.761-.152.761-.305c0-.183.336-.304.732-.304.517 0 .791-.214.913-.762.122-.427.335-.762.488-.762.182 0 .304-.427.304-.915 0-.518-.122-.914-.304-.914-.153 0-.366-.335-.488-.762-.122-.549-.396-.762-.913-.762-.396 0-.732-.152-.732-.305 0-.182-.335-.304-.761-.304s-.761.122-.761.304zm-6.397 6.401c0 .152-.335.304-.731.304-.518 0-.792.214-.914.762-.121.427-.335.762-.487.762-.183 0-.305.396-.305.915 0 .487.122.914.305.914.152 0 .366.335.487.762.122.548.396.762.914.762.396 0 .731.122.731.305 0 .152.335.304.762.304.426 0 .761-.152.761-.304 0-.183.335-.305.731-.305.518 0 .792-.214.914-.762.122-.427.335-.762.487-.762.183 0 .305-.427.305-.914 0-.519-.122-.915-.305-.915-.152 0-.365-.335-.487-.762-.122-.548-.396-.762-.914-.762-.396 0-.731-.152-.731-.304 0-.183-.335-.305-.761-.305-.427 0-.762.122-.762.305z" fill="#0D1F11"/></g></svg>