<svg xmlns="http://www.w3.org/2000/svg" xmlns:xlink="http://www.w3.org/1999/xlink"><symbol id="icon-inst" viewBox="0 0 54 54">
<rect width="54" height="54" rx="27" fill="#F3E3A9"/>
<path d="M27 15.9398C30.5783 15.9398 31.0663 15.9398 32.5301 15.9398C33.8313 15.9398 34.4819 16.2651 34.9699 16.4277C35.6205 16.753 36.1084 16.9157 36.5964 17.4036C37.0843 17.8916 37.4096 18.3795 37.5723 19.0301C37.7349 19.5181 37.8976 20.1687 38.0602 21.4699C38.0602 22.9337 38.0602 23.259 38.0602 27C38.0602 30.741 38.0602 31.0663 38.0602 32.5301C38.0602 33.8313 37.7349 34.4819 37.5723 34.9699C37.247 35.6205 37.0843 36.1084 36.5964 36.5964C36.1084 37.0843 35.6205 37.4096 34.9699 37.5723C34.4819 37.7349 33.8313 37.8976 32.5301 38.0602C31.0663 38.0602 30.741 38.0602 27 38.0602C23.259 38.0602 22.9337 38.0602 21.4699 38.0602C20.1687 38.0602 19.5181 37.7349 19.0301 37.5723C18.3795 37.247 17.8916 37.0843 17.4036 36.5964C16.9157 36.1084 16.5904 35.6205 16.4277 34.9699C16.2651 34.4819 16.1024 33.8313 15.9398 32.5301C15.9398 31.0663 15.9398 30.741 15.9398 27C15.9398 23.259 15.9398 22.9337 15.9398 21.4699C15.9398 20.1687 16.2651 19.5181 16.4277 19.0301C16.753 18.3795 16.9157 17.8916 17.4036 17.4036C17.8916 16.9157 18.3795 16.5904 19.0301 16.4277C19.5181 16.2651 20.1687 16.1024 21.4699 15.9398C22.9337 15.9398 23.4217 15.9398 27 15.9398ZM27 13.5C23.259 13.5 22.9337 13.5 21.4699 13.5C20.006 13.5 19.0301 13.8253 18.2169 14.1506C17.4036 14.4759 16.5904 14.9639 15.7771 15.7771C14.9639 16.5904 14.6386 17.241 14.1506 18.2169C13.8253 19.0301 13.6627 20.006 13.5 21.4699C13.5 22.9337 13.5 23.4217 13.5 27C13.5 30.741 13.5 31.0663 13.5 32.5301C13.5 33.994 13.8253 34.9699 14.1506 35.7831C14.4759 36.5964 14.9639 37.4096 15.7771 38.2229C16.5904 39.0361 17.241 39.3614 18.2169 39.8494C19.0301 40.1747 20.006 40.3373 21.4699 40.5C22.9337 40.5 23.4217 40.5 27 40.5C30.5783 40.5 31.0663 40.5 32.5301 40.5C33.994 40.5 34.9699 40.1747 35.7831 39.8494C36.5964 39.5241 37.4096 39.0361 38.2229 38.2229C39.0361 37.4096 39.3614 36.759 39.8494 35.7831C40.1747 34.9699 40.3373 33.994 40.5 32.5301C40.5 31.0663 40.5 30.5783 40.5 27C40.5 23.4217 40.5 22.9337 40.5 21.4699C40.5 20.006 40.1747 19.0301 39.8494 18.2169C39.5241 17.4036 39.0361 16.5904 38.2229 15.7771C37.4096 14.9639 36.759 14.6386 35.7831 14.1506C34.9699 13.8253 33.994 13.6627 32.5301 13.5C31.0663 13.5 30.741 13.5 27 13.5Z" fill="#334E0F"/>
<path d="M27 20.006C23.0964 20.006 20.006 23.0964 20.006 27C20.006 30.9036 23.0964 33.994 27 33.994C30.9036 33.994 33.994 30.9036 33.994 27C33.994 23.0964 30.9036 20.006 27 20.006ZM27 31.5542C24.5602 31.5542 22.4458 29.6024 22.4458 27C22.4458 24.5602 24.3976 22.4458 27 22.4458C29.4398 22.4458 31.5542 24.3976 31.5542 27C31.5542 29.4398 29.4398 31.5542 27 31.5542Z" fill="#334E0F"/>
<path d="M34.1566 21.4699C35.0549 21.4699 35.7831 20.7417 35.7831 19.8434C35.7831 18.9451 35.0549 18.2169 34.1566 18.2169C33.2583 18.2169 32.5301 18.9451 32.5301 19.8434C32.5301 20.7417 33.2583 21.4699 34.1566 21.4699Z" fill="#334E0F"/>
</symbol><symbol id="icon-marker" viewBox="0 0 40 59">
<path fill-rule="evenodd" clip-rule="evenodd" d="M39.8148 17.4862C39.8148 18.6839 39.6777 19.8535 39.4165 20.9835H39.4775L39.3664 21.1944C38.8796 23.1745 38.011 25.0298 36.8317 26.698L24.4912 49.4128L19.9074 58.1081L19.8402 57.9736L2.19208 25.4896H2.20286C1.41603 24.1494 0.820718 22.7085 0.448453 21.1944L0.337325 20.9835H0.398274C0.137137 19.8535 0 18.6839 0 17.4862C0 7.82887 8.91283 0 19.9074 0C30.902 0 39.8148 7.82887 39.8148 17.4862ZM19.9074 26.9023C24.6618 26.9023 28.516 23.0481 28.516 18.2937C28.516 13.5393 24.6618 9.68506 19.9074 9.68506C15.153 9.68506 11.2988 13.5393 11.2988 18.2937C11.2988 23.0481 15.153 26.9023 19.9074 26.9023Z" fill="#F3E3A9"/>
</symbol><symbol id="icon-medal" viewBox="0 0 70 70">
<path d="M30.9052 2.33526L26.7672 4.91789L17.3276 4.31527L15.1293 8.70573L12.931 13.0531L8.92241 15.0332C6.76724 16.1523 4.82759 17.2714 4.65517 17.5297C4.48276 17.788 4.43966 20.0693 4.61207 22.5658L4.87069 27.0854L2.41379 30.7441C1.07759 32.7241 0 34.6611 0 35.0055C0 35.3498 1.07759 37.2868 2.41379 39.2668L4.87069 42.9255L4.61207 47.4451C4.43966 49.9416 4.48276 52.2229 4.65517 52.4812C4.82759 52.7395 6.76724 53.8586 8.92241 54.9777L12.931 56.9578L15.1293 61.3052L17.3276 65.6956L26.7672 65.093L30.6897 67.5465C32.8448 68.9239 34.8276 70 35.0862 70C35.3879 70 37.2845 68.9239 39.3535 67.5465L43.0603 65.093L52.8017 65.3513L57.0259 57.0869L65.3017 52.8686V42.9685L67.6724 39.3098C68.9655 37.2868 70 35.3498 70 35.0055C70 34.6611 68.9655 32.7241 67.6724 30.7011L65.3017 27.0424V17.1423L57.0259 12.924L52.8017 4.65962L43.1466 4.91789L39.569 2.59352C37.5862 1.34526 35.7759 0.183077 35.5172 0.010897C35.2586 -0.11823 33.1897 0.91482 30.9052 2.33526ZM39.0517 5.77876L42.3276 7.97399L51.0776 7.37138L52.931 11.2023L54.8276 15.0332L58.5345 16.9271L62.2845 18.8641V27.9032L64.6121 31.4759L66.8966 35.0055L62.1552 42.3229L62.5862 51.1469L58.75 53.0408L54.8707 54.9347L52.9741 58.7656L51.0776 62.6395L42.3276 62.0369L35 66.9439L31.3362 64.4904L27.6293 62.0369L19.0086 62.6395L17.069 58.7225L15.0862 54.8056L11.2069 52.8686L7.37069 50.9316L7.88793 42.3229L3.06034 35.0915L5.47414 31.3467L7.88793 27.645L7.37069 19.0793L11.2069 17.1423L15.0862 15.2053L17.0259 11.2884L19.0086 7.37138L23.4052 7.67268L27.8017 7.93094L31.25 5.56354C33.1466 4.27223 34.9569 3.28222 35.2155 3.36831C35.5172 3.49744 37.2414 4.53049 39.0517 5.77876Z" fill="#FDFCDE"/>
<path d="M30.3017 13.6558C20.3017 15.9372 13.319 24.7181 13.319 35.0055C13.319 45.4652 20.3448 54.16 30.5603 56.3552C34.4397 57.173 36.3362 57.13 40.3448 56.097C51.681 53.17 58.7931 41.9786 56.4224 30.6151C55.2586 25.0194 51.0345 19.0363 46.2931 16.2815C41.5948 13.5267 35.3879 12.5367 30.3017 13.6558ZM41.8535 17.3576C50.7759 20.8011 55.7328 30.7442 53.2328 39.9986C50.5603 49.8987 40.3017 55.8817 30.4741 53.2991C26.8966 52.3952 24.7414 51.1469 21.9397 48.4782C14.1379 41.0317 14.2241 28.8072 22.1121 21.3607C26.1638 17.5298 30.3879 15.9802 35.9914 16.2385C38.1466 16.3676 40.3448 16.755 41.8535 17.3576Z" fill="#FDFCDE"/>
<path d="M37.7588 33.3268L32.2416 38.5351L29.6554 35.6942C28.233 34.1446 26.7244 32.8533 26.2933 32.8533C25.1295 32.8533 24.4399 33.9294 24.9571 34.8763C25.8192 36.4259 31.8106 41.9786 32.4571 41.8064C32.845 41.7633 35.8623 39.0946 39.2244 35.9094C43.8364 31.562 45.2588 29.9263 45.1726 29.2376C44.8709 27.1285 43.4054 27.9463 37.7588 33.3268Z" fill="#FDFCDE"/>
</symbol><symbol id="icon-stars" viewBox="0 0 71 15">
<path d="M7.91465 0.953125L9.47696 5.76254H14.5327L10.4425 8.73492L12.0048 13.5443L7.91465 10.572L3.82449 13.5443L5.3868 8.73492L1.29663 5.76254H6.35235L7.91465 0.953125Z" fill="#334E0F"/>
<path d="M21.8326 0.953125L23.3949 5.76254H28.4506L24.3605 8.73492L25.9228 13.5443L21.8326 10.572L17.7425 13.5443L19.3048 8.73492L15.2146 5.76254H20.2703L21.8326 0.953125Z" fill="#334E0F"/>
<path d="M35.7486 0.953125L37.3109 5.76254H42.3667L38.2765 8.73492L39.8388 13.5443L35.7486 10.572L31.6585 13.5443L33.2208 8.73492L29.1306 5.76254H34.1863L35.7486 0.953125Z" fill="#334E0F"/>
<path d="M49.6666 0.953125L51.2289 5.76254H56.2846L52.1945 8.73492L53.7568 13.5443L49.6666 10.572L45.5764 13.5443L47.1387 8.73492L43.0486 5.76254H48.1043L49.6666 0.953125Z" fill="#334E0F"/>
<path d="M63.5836 0.953125L65.1459 5.76254H70.2016L66.1115 8.73492L67.6738 13.5443L63.5836 10.572L59.4934 13.5443L61.0557 8.73492L56.9656 5.76254H62.0213L63.5836 0.953125Z" fill="#334E0F"/>
</symbol><symbol id="icon-tortilla" viewBox="0 0 64 64">
<path d="M31.3479 0.30185C31.287 0.484715 30.7083 0.698056 30.0382 0.819966C29.3681 0.911398 28.6676 1.15522 28.4543 1.33808C27.4492 2.22193 27.1446 2.43527 26.84 2.43527C26.6877 2.43527 26.5354 2.64861 26.5354 2.89243C26.5354 3.13625 26.3222 3.34959 26.0785 3.34959C25.8349 3.34959 25.6217 3.50198 25.6217 3.65436C25.6217 3.95914 25.4084 4.29439 24.5251 5.26966C24.3424 5.48301 24.0682 5.97064 23.9769 6.33637C23.855 6.7021 23.6114 7.00688 23.4591 7.00688C23.3068 7.00688 23.1849 7.18974 23.1849 7.43356C23.1849 7.67738 22.8499 7.95167 22.4235 8.04311C21.997 8.16502 21.662 8.37836 21.662 8.53074C21.662 8.71361 21.2965 8.83552 20.87 8.83552C20.4436 8.83552 19.8954 9.01838 19.6821 9.20125C18.677 10.1156 18.3115 10.3594 18.0069 10.3594C17.8546 10.3594 17.7023 10.5727 17.7023 10.8165C17.7023 11.0604 17.4891 11.2737 17.2454 11.2737C16.9713 11.2737 16.7885 11.548 16.7885 12.0356C16.7885 12.4623 16.6667 12.7976 16.5144 12.7976C16.3621 12.7976 16.1489 13.1328 16.0575 13.5595C15.9357 13.9862 15.7225 14.3214 15.5702 14.3214C15.3874 14.3214 15.2656 14.87 15.2656 15.5101C15.2656 16.1806 15.1438 16.7901 14.9915 16.8815C14.8696 16.973 14.6564 18.0397 14.565 19.2283C14.4737 20.4474 14.2604 21.5141 14.1082 21.6055C13.9559 21.697 13.7426 22.0932 13.6208 22.4589C13.499 22.8551 13.2553 23.1599 13.103 23.1599C12.9507 23.1599 12.8289 23.3732 12.8289 23.6171C12.8289 23.8609 12.707 24.0742 12.5243 24.0742C12.372 24.0742 12.1588 24.4095 12.0369 24.8361C11.9456 25.2628 11.7323 25.5981 11.5801 25.5981C11.4278 25.5981 11.3059 25.9333 11.3059 26.36C11.3059 26.8477 11.1232 27.122 10.849 27.122C10.514 27.122 10.3922 27.4572 10.3922 28.341C10.3922 29.0115 10.2703 29.5601 10.0876 29.5601C9.90481 29.5601 9.78297 30.5659 9.78297 31.9983C9.78297 33.4308 9.90481 34.4365 10.0876 34.4365C10.2703 34.4365 10.3922 35.3813 10.3922 36.6309C10.4226 38.0938 10.5749 39.0691 10.849 39.4348C11.4887 40.2882 11.4887 45.4998 10.849 46.1398C10.2703 46.7189 10.2703 47.237 10.849 47.237C11.0927 47.237 11.3059 47.3589 11.3059 47.5113C11.3059 47.6637 12.0065 47.8466 12.8898 47.9075C13.7731 47.999 14.5346 48.2428 14.5955 48.4256C14.6564 48.6085 15.1742 48.7609 15.7529 48.7609H16.7885V42.0863C16.7885 36.9966 16.6972 35.3813 16.423 35.2899C16.1489 35.1985 15.9966 34.2537 15.9357 32.3945C15.8443 30.2002 15.9052 29.5601 16.3012 29.1639C16.5753 28.9201 16.7885 28.5544 16.7885 28.3715C16.7885 28.1887 16.9104 28.0363 17.0627 28.0363C17.215 28.0363 17.4282 27.701 17.5196 27.2743C17.6414 26.8477 17.8546 26.5124 18.0069 26.5124C18.1897 26.5124 18.3115 26.2991 18.3115 26.0552C18.3115 25.8114 18.5247 25.5981 18.7684 25.5981C19.0425 25.5981 19.2253 25.3238 19.2253 24.8361C19.2253 24.4095 19.3471 24.0742 19.4994 24.0742C19.6517 24.0742 19.8344 23.5256 19.9563 22.8551C20.0477 22.1846 20.2913 21.636 20.4436 21.636C20.6264 21.636 20.7482 20.5998 20.7482 19.1978C20.7482 17.7959 20.87 16.7596 21.0528 16.7596C21.2051 16.7596 21.4183 16.4244 21.5401 15.9977C21.6315 15.571 21.8447 15.2358 21.997 15.2358C22.1493 15.2358 22.2712 15.0224 22.2712 14.7786C22.2712 14.5348 22.4844 14.3214 22.728 14.3214C22.9717 14.3214 23.1849 14.1995 23.1849 14.0472C23.1849 13.8948 23.6114 13.6814 24.0987 13.5595C24.6165 13.4376 25.0125 13.2243 25.0125 13.0719C25.0125 12.9195 25.2257 12.7976 25.4694 12.7976C26.0481 12.7976 28.5153 10.3594 28.7894 9.50602C28.9112 9.14029 29.1549 8.83552 29.3072 8.83552C29.4595 8.83552 29.5813 8.68313 29.5813 8.50027C29.5813 8.3174 29.9773 7.76881 30.4646 7.28117C31.2566 6.48876 31.5612 6.39733 33.2059 6.39733C34.2416 6.39733 35.0639 6.51924 35.0639 6.67162C35.0639 6.82401 35.6122 7.00688 36.2823 7.12879C36.9524 7.22022 37.5007 7.46404 37.5007 7.61642C37.5007 7.79929 38.6581 7.9212 40.2724 7.9212C42.4046 7.9212 43.1356 7.79929 43.5315 7.43356C43.8971 7.06783 44.3844 6.9764 45.5114 7.09831C46.3338 7.15926 47.0952 7.3726 47.2171 7.52499C47.3085 7.70786 47.7044 7.9212 48.0699 8.04311C48.74 8.25645 49.1969 9.01838 48.8923 9.47554C48.801 9.62793 47.1562 9.74984 45.2373 9.74984C43.1356 9.74984 41.7649 9.87175 41.7649 10.0546C41.7649 10.207 41.2471 10.3594 40.6075 10.3594C39.9678 10.3594 39.2977 10.5118 39.1455 10.6642C38.9018 10.908 38.5667 10.908 37.988 10.6642C36.5564 10.1156 34.2416 10.268 33.541 10.9689C33.2059 11.3042 32.9318 11.7004 32.9318 11.8833C32.9318 12.0356 32.7186 12.188 32.4749 12.188C32.2008 12.188 32.018 12.4623 32.018 12.95C32.018 13.3766 31.8658 13.7119 31.683 13.7119C31.2566 13.7119 30.4951 14.4738 30.4951 14.9005C30.4951 15.0834 30.16 15.2358 29.7336 15.2358C29.2463 15.2358 28.9721 15.4186 28.9721 15.6929C28.9721 15.9368 28.7589 16.1501 28.5153 16.1501C28.2716 16.1501 28.0584 16.272 28.0584 16.4549C28.0584 16.6073 27.7233 16.7596 27.2969 16.7596C26.8096 16.7596 26.5354 16.9425 26.5354 17.2168C26.5354 17.4606 26.2613 17.674 25.9262 17.674C25.5607 17.674 24.982 18.0092 24.586 18.4359C24.1901 18.8626 23.7332 19.1978 23.52 19.1978C23.3372 19.1978 23.1849 19.7159 23.1849 20.4169C23.1849 21.0874 23.0631 21.636 22.8803 21.636C22.6976 21.636 22.5758 22.7637 22.5758 24.379C22.5758 26.5429 22.4844 27.1829 22.1189 27.3048C21.8752 27.4267 21.662 27.8229 21.662 28.2191C21.662 28.6153 21.5097 28.9506 21.3269 28.9506C20.87 28.9506 20.2609 29.6211 20.0172 30.4135C19.8954 30.7792 19.6517 31.084 19.4994 31.084C19.3471 31.084 19.2253 31.8459 19.2253 32.7603C19.2253 34.0403 19.3166 34.4365 19.6821 34.4365C20.0477 34.4365 20.139 34.8632 20.139 36.4176C20.139 37.5452 20.2609 38.3986 20.4436 38.3986C20.6264 38.3986 20.7482 39.4043 20.7482 40.8368C20.7482 42.1778 20.6264 43.275 20.4741 43.275C20.3218 43.275 20.139 44.4636 20.0781 45.9265C20.0172 47.6637 19.8649 48.6085 19.5908 48.6999C19.3471 48.7609 19.2253 49.4619 19.2253 50.7724C19.2253 51.8696 19.1034 52.723 18.9207 52.723C18.7684 52.723 18.6161 53.0582 18.6161 53.4849C18.6161 53.9116 18.4029 54.3383 18.1592 54.4297C17.9155 54.5516 17.7023 54.9478 17.7023 55.344C17.7023 55.7402 17.55 56.0755 17.3673 56.0755C17.1845 56.0755 16.8495 56.2888 16.6058 56.5326C15.9662 57.1422 13.0421 57.1422 12.4024 56.5326C12.1588 56.2888 11.8237 56.0755 11.641 56.0755C11.4582 56.0755 11.3059 55.8621 11.3059 55.6183C11.3059 55.3745 11.0927 55.1611 10.849 55.1611C10.5749 55.1611 10.3922 54.8869 10.3922 54.3992C10.3922 53.9116 10.2094 53.6373 9.93527 53.6373C9.6916 53.6373 9.47838 53.4239 9.47838 53.1801C9.47838 52.9363 9.35655 52.723 9.17379 52.723C9.0215 52.723 8.8692 52.3877 8.8692 51.961C8.8692 51.4734 8.68645 51.1991 8.41232 51.1991C8.07727 51.1991 7.95543 50.8638 7.95543 49.98C7.95543 49.3095 7.8336 48.7609 7.6813 48.7609C7.52901 48.7609 7.28534 47.999 7.19396 47.0846C7.07212 46.1703 6.85891 45.4084 6.70661 45.4084C6.55432 45.4084 6.43248 42.0559 6.43248 37.9414C6.43248 33.1565 6.55432 30.4745 6.73707 30.4745C6.91983 30.4745 7.04166 30.0783 7.04166 29.5906C7.04166 29.103 7.25488 28.4934 7.49855 28.2191C7.74222 27.9753 7.95543 27.4267 7.95543 27C7.95543 26.5734 8.07727 26.2076 8.22956 26.2076C8.38186 26.2076 8.62553 25.9029 8.74737 25.5371C8.83875 25.1714 9.11288 24.6838 9.29563 24.4704C10.2094 23.4342 10.3922 23.1599 10.3922 22.7027C10.3922 22.4589 10.514 22.2456 10.6967 22.2456C10.849 22.2456 11.0623 21.9103 11.1841 21.4836C11.2755 21.057 11.4887 20.7217 11.641 20.7217C11.7933 20.7217 11.9151 18.9235 11.9151 16.7596C11.9151 14.3214 11.7933 12.7976 11.6105 12.7976C11.4582 12.7976 11.3059 13.0109 11.3059 13.2547C11.3059 13.4986 11.1536 13.7119 10.9709 13.7119C10.5749 13.7119 7.34625 16.973 7.34625 17.3692C7.34625 17.5521 7.13304 17.674 6.88937 17.674C6.61524 17.674 6.43248 17.9483 6.43248 18.4359C6.43248 18.9235 6.24973 19.1978 5.9756 19.1978C5.73193 19.1978 5.51871 19.4112 5.51871 19.655C5.51871 19.8988 5.39688 20.1122 5.21412 20.1122C5.06183 20.1122 4.90953 20.4474 4.90953 20.8741C4.90953 21.3617 4.72678 21.636 4.45265 21.636C4.17852 21.636 3.99576 21.9103 3.99576 22.398C3.99576 22.8246 3.87393 23.1599 3.72163 23.1599C3.56934 23.1599 3.35612 23.4951 3.26475 23.9218C3.14291 24.3485 2.9297 24.6838 2.7774 24.6838C2.59465 24.6838 2.47281 25.2324 2.47281 25.8724C2.47281 26.5429 2.32052 27.122 2.13776 27.1829C1.98547 27.2439 1.7418 27.8534 1.65042 28.5849C1.55904 29.2858 1.34583 29.8649 1.22399 29.8649C1.0717 29.8649 0.949864 30.7488 0.949864 31.8155C0.949864 33.1565 0.797569 33.9184 0.492979 34.2537C-0.116201 34.8327 -0.177119 42.2387 0.401602 42.4216C0.675733 42.513 0.828028 43.4578 0.888946 45.195C0.949864 46.658 1.13262 47.8466 1.28491 47.8466C1.43721 47.8466 1.55904 48.1818 1.55904 48.6085C1.55904 49.0352 1.77226 49.8886 2.01593 50.4981C2.2596 51.0772 2.47281 51.8391 2.47281 52.1439C2.47281 52.4791 2.59465 52.723 2.74694 52.723C2.89924 52.723 3.11245 53.1496 3.23429 53.6373C3.35612 54.1554 3.56934 54.5516 3.72163 54.5516C3.87393 54.5516 3.99576 54.8869 3.99576 55.3135C3.99576 55.8012 4.17852 56.0755 4.45265 56.0755C4.72678 56.0755 4.90953 56.3498 4.90953 56.8374C4.90953 57.325 5.09229 57.5993 5.36642 57.5993C5.61009 57.5993 5.8233 57.7517 5.8233 57.9346C5.8233 58.3613 6.58478 59.1232 7.0112 59.1232C7.19396 59.1232 7.34625 59.2756 7.34625 59.4585C7.34625 59.8851 8.10773 60.6471 8.53415 60.6471C8.71691 60.6471 8.8692 60.8604 8.8692 61.1042C8.8692 61.3785 9.14334 61.5614 9.50884 61.5614C9.84389 61.5614 10.3312 61.7747 10.5749 62.0186C10.849 62.2624 11.3059 62.4757 11.641 62.4757C11.9456 62.4757 12.2197 62.5976 12.2197 62.75C12.2197 62.8719 13.2248 63.0853 14.4127 63.1767C15.6311 63.2986 16.6667 63.512 16.7276 63.6948C16.8799 64.1215 22.1798 64.091 22.3321 63.6643C22.393 63.4815 23.1545 63.2377 24.0378 63.1462C24.9211 63.0853 25.6217 62.9024 25.6217 62.75C25.6217 62.5976 26.109 62.4757 26.6877 62.4757C27.3578 62.4757 27.8452 62.2929 27.9365 62.0186C28.0584 61.7443 28.5153 61.5614 29.1244 61.5614C29.7336 61.5614 30.1905 61.3785 30.3123 61.1042C30.4037 60.8604 30.8301 60.6471 31.2566 60.6471C31.683 60.6471 32.018 60.4947 32.018 60.3423C32.018 60.1594 32.3531 60.0375 32.7795 60.0375C33.2669 60.0375 33.541 59.8547 33.541 59.5804C33.541 59.3366 33.8151 59.1232 34.1502 59.1232C34.5157 59.1232 35.0944 58.788 35.4904 58.3613C35.8863 57.9346 36.4651 57.5993 36.8306 57.5993C37.1656 57.5993 37.5007 57.386 37.6225 57.1422C37.7139 56.8984 38.0794 56.685 38.4144 56.685C38.7495 56.685 39.0236 56.5326 39.0236 56.3802C39.0236 56.1974 39.2368 56.0755 39.4805 56.0755C39.7242 56.0755 39.9374 55.8621 39.9374 55.6183C39.9374 55.344 40.2115 55.1611 40.6684 55.1611C41.0644 55.1611 41.4603 54.9478 41.5822 54.704C41.6735 54.4602 41.9477 54.2468 42.2218 54.2468C42.4655 54.2468 42.6787 54.0944 42.6787 53.9421C42.6787 53.7592 42.9528 53.6373 43.2879 53.6373C43.6229 53.6373 43.8971 53.4239 43.8971 53.1801C43.8971 52.9363 44.1712 52.723 44.5062 52.723C44.8717 52.723 45.4505 52.3877 45.8464 51.961C46.2424 51.5343 46.6993 51.1991 46.9125 51.1991C47.0952 51.1991 47.2475 51.0772 47.2475 50.9248C47.2475 50.7724 47.5521 50.5286 47.9481 50.4067C48.3136 50.2848 48.9228 49.8886 49.2883 49.4924C49.6538 49.0961 50.2325 48.7609 50.598 48.7609C50.9331 48.7609 51.2072 48.6085 51.2072 48.4256C51.2072 47.999 51.9687 47.237 52.3951 47.237C52.5779 47.237 52.7302 47.0237 52.7302 46.7799C52.7302 46.5056 53.0043 46.3227 53.4916 46.3227C53.979 46.3227 54.2531 46.1398 54.2531 45.8655C54.2531 45.6217 54.4663 45.4084 54.71 45.4084C54.9537 45.4084 55.1669 45.256 55.1669 45.1036C55.1669 44.9207 55.3801 44.7988 55.6238 44.7988C55.8674 44.7988 56.0807 44.6465 56.0807 44.4636C56.0807 44.0369 56.8421 43.275 57.2686 43.275C57.4513 43.275 57.6036 43.0616 57.6036 42.8178C57.6036 42.574 57.7559 42.3606 57.9387 42.3606C58.3651 42.3606 61.5633 39.1605 61.5633 38.7338C61.5633 38.551 61.7765 38.3986 62.0202 38.3986C62.2638 38.3986 62.477 38.1852 62.477 37.9414C62.477 37.6976 62.6293 37.4843 62.7816 37.4843C62.9644 37.4843 63.0862 37.149 63.0862 36.7223C63.0862 36.2347 63.269 35.9604 63.5431 35.9604C63.9086 35.9604 64 35.5337 64 34.0098C64 32.7907 63.8782 31.9983 63.6345 31.9374C63.4517 31.8764 63.2385 30.9926 63.1471 29.9259C63.0862 28.8896 62.9035 28.0363 62.7512 28.0363C62.5989 28.0363 62.477 27.4877 62.477 26.8477C62.477 26.1772 62.2638 25.4457 62.0202 25.1714C61.7765 24.9276 61.5633 24.4399 61.5633 24.0742C61.5633 23.7085 61.3501 23.2208 61.1064 22.977C60.8627 22.7027 60.6495 22.1846 60.6495 21.7884C60.6495 21.3922 60.5581 21.0265 60.4363 20.9655C60.0099 20.8131 59.1266 18.9845 59.1266 18.3445C59.1266 18.0092 58.9743 17.674 58.7915 17.613C58.6088 17.5521 58.3955 16.8511 58.3042 16.0587C58.2128 15.2662 57.9996 14.6262 57.8777 14.6262C57.7254 14.6262 57.6036 14.0776 57.6036 13.4376C57.6036 12.6757 57.4513 12.188 57.1467 12.0661C56.8726 11.9747 56.6898 11.5175 56.6898 10.847C56.6898 10.268 56.5985 9.74984 56.4766 9.68889C56.0807 9.5365 55.1669 7.61642 55.1669 6.9764C55.1669 6.67162 55.0146 6.39733 54.8318 6.39733C54.4054 6.39733 53.6439 5.63539 53.6439 5.20871C53.6439 5.02585 53.4307 4.87346 53.187 4.87346C52.9434 4.87346 52.7302 4.72107 52.7302 4.53821C52.7302 4.11152 51.9687 3.34959 51.5423 3.34959C51.3595 3.34959 51.2072 3.13625 51.2072 2.89243C51.2072 2.61813 50.9331 2.43527 50.4762 2.43527C50.0802 2.43527 49.6843 2.28288 49.6233 2.10002C49.5624 1.94763 48.9533 1.70381 48.2222 1.61238C47.5217 1.52095 46.943 1.3076 46.943 1.18569C46.943 0.759011 43.958 0.850443 43.8361 1.27713C43.6838 1.73429 37.8662 1.79524 37.5616 1.33808C37.4397 1.15522 36.526 0.941876 35.5513 0.850443C34.5461 0.759011 33.6628 0.545669 33.6019 0.362805C33.4496 -0.0943556 31.5002 -0.124833 31.3479 0.30185ZM46.3338 15.5405C46.3338 15.6929 46.7297 15.8453 47.2171 15.8453C47.7044 15.8453 48.3136 16.0587 48.5877 16.3025C48.8314 16.5463 49.1665 16.7596 49.3492 16.7596C49.532 16.7596 49.6843 16.8815 49.6843 17.0644C49.6843 17.2168 50.0193 17.4301 50.4457 17.5521C50.8722 17.6435 51.2072 17.8568 51.2072 18.0397C51.2072 18.2835 51.4509 18.6492 52.3647 19.655C52.5474 19.8683 52.7302 20.2036 52.7302 20.3864C52.7302 20.5693 52.9434 20.7217 53.187 20.7217C53.4612 20.7217 53.6439 20.996 53.6439 21.4532C53.6439 21.8494 53.8572 22.2456 54.1008 22.3675C54.3445 22.4589 54.5577 22.8246 54.5577 23.1599C54.5577 23.4951 54.71 23.7694 54.8623 23.7694C55.0451 23.7694 55.1669 24.1656 55.1669 24.6838C55.1669 25.2933 55.3192 25.5981 55.6238 25.5981C55.9588 25.5981 56.0807 25.9333 56.0807 26.7867C56.0807 27.4572 56.2329 28.0363 56.4157 28.0972C56.5985 28.1582 56.8117 28.8592 56.903 29.6516C56.9944 30.444 57.2076 31.084 57.3295 31.084C57.4818 31.084 57.6036 31.8459 57.6036 32.7603C57.6036 33.6746 57.4818 34.4365 57.299 34.4365C57.1467 34.4365 56.9944 34.6499 56.9944 34.8937C56.9944 35.4118 53.187 39.3129 52.6997 39.3129C52.5474 39.3129 52.0905 39.6482 51.6946 40.0748C51.2986 40.5015 50.8417 40.8368 50.6285 40.8368C50.4457 40.8368 50.2934 40.9892 50.2934 41.172C50.2934 41.6292 49.6233 42.2387 48.8314 42.4826C48.4659 42.6045 48.1613 42.8483 48.1613 43.0007C48.1613 43.1531 48.009 43.275 47.8263 43.275C47.6131 43.275 47.1562 43.6102 46.7602 44.0369C46.3642 44.4636 45.7855 44.7988 45.42 44.7988C45.085 44.7988 44.8108 45.0122 44.8108 45.256C44.8108 45.4998 44.5976 45.7132 44.3539 45.7132C44.1103 45.7132 43.8971 45.8351 43.8971 46.0179C43.8971 46.1703 43.562 46.3837 43.1356 46.5056C42.7092 46.597 42.3741 46.8103 42.3741 46.9627C42.3741 47.1151 42.2218 47.237 42.0695 47.237C41.7649 47.237 41.3994 47.4808 40.3943 48.3647C40.1811 48.578 39.8156 48.7609 39.6328 48.7609C39.45 48.7609 39.2368 48.9742 39.1455 49.2181C39.0236 49.4619 38.6886 49.6752 38.384 49.6752C38.0794 49.6752 37.8053 49.7971 37.8053 49.9495C37.8053 50.1019 37.4702 50.3152 37.0438 50.4067C36.6174 50.5286 36.2823 50.7419 36.2823 50.8943C36.2823 51.0772 36.0082 51.1991 35.6731 51.1991C35.3381 51.1991 35.0639 51.321 35.0639 51.5039C35.0639 51.6562 34.7289 51.8696 34.3025 51.9915C33.876 52.0829 33.541 52.2963 33.541 52.4182C33.541 52.5401 33.2059 52.7534 32.7795 52.8449C32.3531 52.9668 32.018 53.1801 32.018 53.3325C32.018 53.5154 31.683 53.6373 31.287 53.6373C30.8911 53.6373 30.4951 53.8506 30.3733 54.0944C30.2819 54.3383 29.8555 54.5516 29.429 54.5516C29.0026 54.5516 28.6676 54.6735 28.6676 54.8564C28.6676 55.0088 28.3934 55.1611 28.0279 55.1611C27.6929 55.1611 27.2055 55.3745 26.9618 55.6183C26.6877 55.8621 26.0785 56.0755 25.5912 56.0755C25.1039 56.0755 24.7079 56.1974 24.7079 56.3802C24.7079 56.5326 24.586 56.685 24.4033 56.685C24.251 56.685 24.0987 56.1974 24.0987 55.6183C24.0987 55.0392 24.251 54.5516 24.4033 54.5516C24.586 54.5516 24.7079 53.9421 24.7079 53.2106C24.7079 52.4182 24.8906 51.6562 25.1648 51.382C25.4998 51.0772 25.6217 50.2848 25.6217 48.639C25.6217 47.3589 25.7435 46.3227 25.8958 46.3227C26.0176 46.3227 26.2308 45.1341 26.3222 43.6712C26.444 42.2083 26.6573 40.9587 26.84 40.8977C26.9923 40.8368 27.1446 39.9225 27.1446 38.8862C27.1446 37.6976 27.2969 36.7833 27.6015 36.3871C27.8452 36.0823 28.0584 35.2899 28.0584 34.6499C28.0584 34.0403 28.2107 33.5222 28.363 33.5222C28.5457 33.5222 28.6676 33.0346 28.6676 32.4555C28.6676 31.785 28.8503 31.2974 29.1244 31.2059C29.3681 31.084 29.5813 30.6573 29.5813 30.1697C29.5813 29.3163 30.4342 27.3658 30.8911 27.1829C31.0129 27.122 31.1043 26.7257 31.1043 26.3295C31.1043 25.8724 31.287 25.5981 31.5612 25.5981C31.8048 25.5981 32.018 25.3847 32.018 25.1409C32.018 24.8971 32.1399 24.6838 32.3226 24.6838C32.4749 24.6838 32.6881 24.3485 32.81 23.9218C32.9014 23.4951 33.1146 23.1599 33.2669 23.1599C33.4192 23.1599 33.541 22.9465 33.541 22.7027C33.541 22.4589 33.6933 22.2456 33.876 22.2456C34.3025 22.2456 35.0639 21.4836 35.0639 21.057C35.0639 20.8741 35.2772 20.7217 35.5208 20.7217C35.7645 20.7217 35.9777 20.5084 35.9777 20.2645C35.9777 20.0207 36.1605 19.8074 36.3737 19.8074C36.5869 19.8074 37.0133 19.4721 37.3179 19.0454C37.6225 18.6188 38.1403 18.2835 38.4449 18.2835C38.7799 18.2835 39.0236 18.1311 39.0236 17.9787C39.0236 17.7959 39.2064 17.674 39.45 17.674C39.6937 17.674 39.9374 17.4606 40.0592 17.2168C40.1506 16.973 40.5161 16.7596 40.8512 16.7596C41.2167 16.7596 41.704 16.5463 41.9477 16.3025C42.2218 16.0587 42.831 15.8453 43.3183 15.8453C43.8057 15.8453 44.2016 15.6929 44.2016 15.5405C44.2016 15.3577 44.689 15.2358 45.2677 15.2358C45.8464 15.2358 46.3338 15.3577 46.3338 15.5405Z" fill="#0D1F11"/>
<path d="M37.5007 25.9029C37.5007 26.0552 37.1656 26.2686 36.7392 26.3905C36.1909 26.5124 35.9777 26.7867 35.9777 27.3048C35.9777 27.701 35.8559 28.0363 35.6731 28.0363C35.5208 28.0363 35.3685 28.3715 35.3685 28.7982C35.3685 29.2249 35.5208 29.5601 35.6731 29.5601C35.8559 29.5601 35.9777 29.8954 35.9777 30.2916C35.9777 30.8097 36.1909 31.084 36.7392 31.2059C37.1656 31.3278 37.5007 31.5412 37.5007 31.6936C37.5007 31.8764 37.9271 31.9983 38.4144 31.9983C38.9322 31.9983 39.3282 31.8764 39.3282 31.6936C39.3282 31.5412 39.6633 31.3278 40.0897 31.2059C40.6379 31.084 40.8512 30.8097 40.8512 30.2916C40.8512 29.8954 41.0035 29.5601 41.1557 29.5601C41.3385 29.5601 41.4603 29.2249 41.4603 28.7982C41.4603 28.3715 41.3385 28.0363 41.1557 28.0363C41.0035 28.0363 40.8512 27.701 40.8512 27.3048C40.8512 26.7867 40.6379 26.5124 40.0897 26.3905C39.6633 26.2686 39.3282 26.0552 39.3282 25.9029C39.3282 25.72 38.9322 25.5981 38.4144 25.5981C37.9271 25.5981 37.5007 25.72 37.5007 25.9029Z" fill="#0D1F11"/>
<path d="M47.2475 29.2554C47.2475 29.4078 46.9125 29.5601 46.5165 29.5601C45.9987 29.5601 45.7246 29.7735 45.6028 30.3221C45.4809 30.7488 45.2677 31.084 45.1154 31.084C44.9327 31.084 44.8108 31.4802 44.8108 31.9983C44.8108 32.486 44.9327 32.9127 45.1154 32.9127C45.2677 32.9127 45.4809 33.2479 45.6028 33.6746C45.7246 34.2232 45.9987 34.4365 46.5165 34.4365C46.9125 34.4365 47.2475 34.5584 47.2475 34.7413C47.2475 34.8937 47.5826 35.0461 48.009 35.0461C48.4354 35.0461 48.7705 34.8937 48.7705 34.7413C48.7705 34.5584 49.1055 34.4365 49.5015 34.4365C50.0193 34.4365 50.2934 34.2232 50.4153 33.6746C50.5371 33.2479 50.7503 32.9127 50.9026 32.9127C51.0854 32.9127 51.2072 32.486 51.2072 31.9983C51.2072 31.4802 51.0854 31.084 50.9026 31.084C50.7503 31.084 50.5371 30.7488 50.4153 30.3221C50.2934 29.7735 50.0193 29.5601 49.5015 29.5601C49.1055 29.5601 48.7705 29.4078 48.7705 29.2554C48.7705 29.0725 48.4354 28.9506 48.009 28.9506C47.5826 28.9506 47.2475 29.0725 47.2475 29.2554Z" fill="#0D1F11"/>
<path d="M40.8512 35.6556C40.8512 35.808 40.5161 35.9604 40.1201 35.9604C39.6023 35.9604 39.3282 36.1737 39.2064 36.7223C39.0845 37.149 38.8713 37.4843 38.719 37.4843C38.5363 37.4843 38.4144 37.8805 38.4144 38.3986C38.4144 38.8862 38.5363 39.3129 38.719 39.3129C38.8713 39.3129 39.0845 39.6482 39.2064 40.0748C39.3282 40.6234 39.6023 40.8368 40.1201 40.8368C40.5161 40.8368 40.8512 40.9587 40.8512 41.1416C40.8512 41.2939 41.1862 41.4463 41.6126 41.4463C42.0391 41.4463 42.3741 41.2939 42.3741 41.1416C42.3741 40.9587 42.7092 40.8368 43.1051 40.8368C43.6229 40.8368 43.8971 40.6234 44.0189 40.0748C44.1407 39.6482 44.3539 39.3129 44.5062 39.3129C44.689 39.3129 44.8108 38.8862 44.8108 38.3986C44.8108 37.8805 44.689 37.4843 44.5062 37.4843C44.3539 37.4843 44.1407 37.149 44.0189 36.7223C43.8971 36.1737 43.6229 35.9604 43.1051 35.9604C42.7092 35.9604 42.3741 35.808 42.3741 35.6556C42.3741 35.4728 42.0391 35.3508 41.6126 35.3508C41.1862 35.3508 40.8512 35.4728 40.8512 35.6556Z" fill="#0D1F11"/>
</symbol><symbol id="icon-tray" viewBox="0 0 88 55">
<path d="M40.1701 1.4C39.2135 2.35 38.6093 3.6 38.4079 5.1L38.0555 7.35L35.236 8C24.2603 10.4 14.2915 18.45 9.3575 28.85C7.64569 32.5 6.53805 36.25 5.68215 41.6C5.38006 43.4 5.27937 43.5 3.46687 43.5C0.546723 43.5 -0.309181 44.4 0.0935975 47.05C0.597071 50.1 2.40957 52.7 5.02763 53.95C7.24292 55 7.59535 55 44.0971 55C68.868 55 81.3542 54.85 82.3108 54.45C85.5833 53.25 88 49.8 88 46.35C88 43.85 87.5972 43.5 84.526 43.5H82.6128L82.3108 40.45C81.3542 31.8 77.0746 23.55 70.1267 17.1C65.092 12.4 59.9565 9.85 50.3906 7.2C49.9878 7.1 49.736 6.2 49.736 5C49.736 3.35 49.434 2.6 48.276 1.45C47.0173 0.200001 46.4131 0 44.1978 0C42.0329 0 41.3784 0.25 40.1701 1.4ZM46.4131 3.8C46.5642 4.25 46.7152 5.15 46.7152 5.8C46.7152 6.9 46.5642 7 43.9461 7C41.4791 7 41.177 6.9 41.177 5.95C41.177 3.9 42.0833 3 44.1475 3C45.4565 3 46.2117 3.25 46.4131 3.8ZM52.8576 10.95C62.8263 13.5 71.4861 20.45 75.967 29.45C77.8298 33.2 79.441 38.8 79.441 41.6V43.5H43.8958H8.4009L8.70299 41.1C9.20646 37.25 10.9183 32 12.8818 28.35C17.3124 19.9 27.4322 12.35 36.7464 10.55C40.8749 9.75 48.8298 9.95 52.8576 10.95ZM84.9792 47.5C84.9792 48.05 84.3246 49.2 83.5191 50.1L82.059 51.75L44.4999 51.9L6.94083 52L5.22902 50.4C4.27242 49.5 3.36617 48.25 3.16478 47.6L2.8627 46.5H43.8958C84.526 46.5 84.9792 46.5 84.9792 47.5Z" fill="#FDFCDE"/>
</symbol><symbol id="icon-vase" viewBox="0 0 94 130">
<path d="M48.9898 0.558594C47.8946 1.70117 47.3596 3.27539 47.3596 5.45898C47.3596 7.21094 47.4615 7.69336 48.1238 8.98828C48.5313 9.80078 49.2955 10.8164 49.7795 11.2734C50.671 12.0352 50.7474 12.2383 52.9125 20.4395L55.1031 28.8438L60.7323 40.3457L66.3361 51.8477L65.8267 52.584C65.521 52.9648 65.1644 53.6504 65.0116 54.082C64.8842 54.5137 64.655 54.8438 64.5531 54.793C64.4258 54.7422 62.1842 52.6602 59.5352 50.1465C55.6889 46.4902 54.1861 44.8398 51.8681 41.7676C50.2889 39.6855 48.8625 37.8828 48.6842 37.8066C48.5059 37.7051 46.4681 36.918 44.1247 36.0547L39.8455 34.5059L38.4445 34.9375L37.0436 35.3945L36.6105 34.7598C36.3813 34.4297 35.6936 33.668 35.0568 33.084C34.2162 32.2715 33.9869 31.8906 34.1143 31.5098C34.369 30.6973 33.4011 28.793 32.4841 28.3359C30.7011 27.3965 28.5614 28.2344 27.8992 30.1133C27.4662 31.3574 27.6445 32.2461 28.5869 33.2871C29.402 34.2012 31.2105 34.5566 32.2039 34.0234C32.7134 33.7441 32.8917 33.8203 33.8851 34.8105C34.4964 35.4199 34.9294 35.9785 34.802 36.0801C34.7002 36.1562 33.2483 36.6895 31.5671 37.248L28.5105 38.2383L24.3077 37.248L20.1303 36.2324L15.2397 32.9824C11.0623 30.2148 10.3236 29.6055 10.1708 28.9707C9.94156 27.9551 8.38778 25.873 7.29249 25.1367C5.43305 23.8418 2.98776 23.3594 1.07737 23.8672C-0.0688596 24.1973 -0.196219 24.5527 0.21133 26.1016C1.20473 29.9102 3.90474 31.9668 7.95476 31.9922H10.0434L14.6538 35.0645L19.2388 38.1113L23.9511 39.2793L28.6633 40.4219L33.936 38.6191C36.8398 37.6289 39.387 36.8164 39.5907 36.8164C39.7945 36.8164 41.6794 37.4004 43.7426 38.1367L47.5125 39.4824L50.4163 43.291C52.8106 46.4395 54.2625 47.9883 58.6946 52.1523C61.6239 54.9199 64.0437 57.2305 64.0437 57.2559C64.0437 57.2812 63.9163 57.6621 63.7635 58.1191L63.4833 58.9062H60.0955C57.3446 58.9062 56.6059 58.9824 56.3002 59.3125C55.9436 59.6426 55.8927 60.5312 55.8927 65.127C55.8927 71.3477 55.9436 71.2207 53.5238 72.084C48.3785 73.9375 45.22 77.3398 44.0483 82.291C43.7426 83.6621 43.6662 86.6328 43.6662 100.725C43.6662 111.947 43.7681 117.99 43.9464 118.879C45.0417 124.109 49.8049 128.781 54.9757 129.721C55.8163 129.873 59.0257 130 62.1333 130C68.5267 130 70.539 129.67 73.188 128.172C76.6013 126.242 79.4286 122.23 80.0909 118.371C80.2947 117.178 80.3456 111.617 80.2947 99.7852C80.2183 84.3223 80.1673 82.7734 79.7343 81.5039C78.206 76.8574 74.8437 73.4805 70.2588 72.0078C68.1192 71.3223 68.1701 71.4492 68.0682 65.1777C67.9918 60.0234 67.9663 59.5918 67.5078 59.2617C67.2276 59.0586 66.7437 58.9062 66.4126 58.9062C65.6739 58.9062 65.6739 58.8809 66.489 56.3418C66.922 54.9961 67.6352 53.5234 68.5522 52.1523L69.9531 50.0703L71.1248 50.8066C71.7871 51.2129 72.7041 51.6699 73.2135 51.7969C74.5635 52.1777 76.7796 52.1016 78.1296 51.6445C79.4796 51.1875 81.8739 49.1816 81.8739 48.5215C81.8739 47.8867 80.3966 46.5664 79.072 45.9824C77.4164 45.2715 75.6333 45.1191 74.0541 45.5254C73.1626 45.7539 72.7805 45.7793 72.8824 45.6016C73.9267 43.8242 76.0409 41.0566 78.4352 38.3398C80.04 36.5117 81.4664 34.8359 81.5683 34.582C81.6956 34.3535 82.307 31.9414 82.8928 29.25C83.9371 24.6035 84.0645 24.2988 85.1089 22.9023C86.4843 21.0742 87.0702 19.2207 86.9174 17.1387C86.7136 14.7266 85.0324 11.9336 83.7589 11.9336C83.0711 11.9336 81.4664 13.6602 80.8296 15.1074C79.7852 17.4688 79.989 20.2617 81.3645 22.4199L82.0777 23.5625L80.9315 28.5898C80.2437 31.6621 79.6324 33.8457 79.3522 34.1504C74.5126 39.6602 73.1626 41.3867 70.6918 45.1191C69.1126 47.5312 67.7116 49.5117 67.6352 49.5117C67.5333 49.5117 66.2597 47.0488 64.8333 44.0527L62.1842 38.5938L62.9229 37.4004C63.6361 36.2324 63.738 36.1816 64.8842 36.1562C66.7437 36.1055 68.1956 34.8359 68.1956 33.2617C68.1956 30.4688 65.1135 28.9707 62.9739 30.7227C61.8786 31.6113 61.522 32.8555 62.0059 33.998C62.2606 34.6582 62.2352 34.8359 61.7003 35.5469L61.1144 36.3594L59.1021 32.2207C57.1918 28.2598 56.988 27.6758 54.8993 19.8301L52.7087 11.6035L53.3965 10.207C54.5682 7.92188 54.3644 4.74805 52.887 2.58984C52.1483 1.47266 50.4163 0 49.8813 0C49.703 0 49.2955 0.253906 48.9898 0.558594ZM51.7917 5.05273C52.2757 6.70312 51.97 9.64844 51.3078 9.64844C50.8747 9.64844 49.7795 8.04883 49.4993 7.0332C49.1936 5.86523 49.321 3.88477 49.8049 2.99609L50.1106 2.4375L50.7983 3.25C51.1804 3.70703 51.6134 4.51953 51.7917 5.05273ZM84.5739 15.6406C85.2872 17.3164 84.7268 20.7949 83.657 21.4551C83.2494 21.709 82.7145 20.8965 82.3834 19.4746C82.0268 18.0527 82.3834 16.123 83.1985 15.1074C83.7843 14.3457 84.09 14.4727 84.5739 15.6406ZM5.53494 26.457C6.63023 27.0918 7.85287 28.4629 8.13306 29.377C8.28589 29.9102 8.20948 29.9609 7.34344 29.9609C5.43305 29.9609 3.31889 28.4629 2.52926 26.5586L2.12172 25.5684L3.31889 25.7461C3.98116 25.8223 4.97456 26.1523 5.53494 26.457ZM31.5417 30.1133C31.7709 30.2148 31.9492 30.5703 31.9492 30.9512C31.9492 32.2207 30.8794 32.6777 30.0388 31.7383C29.6567 31.3066 29.6313 31.1289 29.8605 30.5957C30.1407 29.9609 30.7266 29.8086 31.5417 30.1133ZM65.5975 31.9922C66.3107 32.3984 66.2597 33.7188 65.521 33.998C64.3239 34.4805 63.1776 32.8047 64.1965 32.0684C64.7569 31.6621 64.9607 31.6621 65.5975 31.9922ZM78.2824 47.9375C78.7664 48.1914 79.1485 48.4707 79.1485 48.623C79.1485 48.75 78.639 49.1309 78.0532 49.4355C76.6013 50.1973 74.3598 50.2227 72.9079 49.4863C71.9909 49.0039 71.9145 48.9277 72.2711 48.5723C72.4748 48.3438 73.2645 47.9629 74.0286 47.709C75.5315 47.1758 76.856 47.252 78.2824 47.9375ZM62.7701 61.1152C62.7701 61.1914 61.9295 63.9844 60.8852 67.2598C59.4078 71.9316 58.287 76.4258 55.7653 87.5977C54.0078 95.4941 52.5049 102.146 52.4285 102.375C52.3012 102.781 51.9191 102.832 48.9898 102.832H45.704V93.5645C45.704 87.8262 45.8059 83.8145 45.9842 82.9766C46.8757 78.6855 50.1361 75.2832 54.7719 73.7852C56.1729 73.3281 57.2172 72.4141 57.6502 71.2715C57.8031 70.8652 57.9304 68.5801 57.9304 65.9141C57.9304 63.375 58.0069 61.1914 58.1087 61.1152C58.3125 60.8867 62.7701 60.8867 62.7701 61.1152ZM65.8267 64.9746C65.8267 67.1836 65.9031 69.5195 65.9795 70.1543C66.2088 71.8047 67.4569 73.2012 69.2144 73.7598C74.0796 75.3594 77.3654 79.0156 78.0532 83.6621C78.1805 84.627 78.3079 89.3496 78.3079 94.123V102.832H75.5315C72.9588 102.832 72.7041 102.883 72.3475 103.391C72.0673 103.771 72.0418 104.051 72.2201 104.381C72.4239 104.787 72.8569 104.863 75.3277 104.914L78.1805 104.99V111.465C78.1551 116.822 78.0786 118.168 77.722 119.336C76.3465 123.754 72.5513 127.055 68.0173 127.74C66.9475 127.918 64.0437 127.969 60.7578 127.918C56.0455 127.816 55.0521 127.715 53.8295 127.258C50.238 125.963 47.487 123.195 46.2898 119.641C45.9587 118.701 45.8568 117 45.7804 111.643L45.653 104.863H48.7351C50.4417 104.863 51.8172 104.965 51.8172 105.092C51.8172 105.193 51.0785 108.621 50.1615 112.658C49.2446 116.721 48.5568 120.225 48.6587 120.428C48.8625 120.961 49.27 121.088 49.9578 120.834C50.5436 120.631 50.3653 121.215 52.8106 110.449L54.0333 104.99L60.7323 104.914C65.1644 104.889 67.5588 104.762 67.788 104.584C68.1956 104.229 68.221 103.441 67.8135 103.162C67.6352 103.061 64.5531 102.908 60.9871 102.832L54.4917 102.705L57.854 87.8516C60.4012 76.5273 61.6239 71.6523 62.9993 67.2852C63.9927 64.1367 64.8588 61.4199 64.9352 61.2422C64.9861 61.0898 65.2154 60.9375 65.4446 60.9375C65.7757 60.9375 65.8267 61.5215 65.8267 64.9746Z" fill="#FDFCDE"/>
<path d="M41.909 15.4627C39.8713 16.1736 39.7439 16.5037 40.8647 18.4588C41.96 20.3377 43.6921 21.5564 46.1119 22.0896C48.277 22.572 52.0723 21.531 52.0723 20.4392C52.0723 19.1951 49.9836 16.7576 48.1496 15.8181C46.3921 14.9295 43.8194 14.7771 41.909 15.4627ZM46.5449 17.2908C47.7676 17.6209 49.7289 19.449 49.3213 19.8552C48.8628 20.3123 46.2138 20.2107 45.1949 19.6775C44.2779 19.2205 42.6477 17.824 42.6477 17.4939C42.6477 17.0115 45.1185 16.8845 46.5449 17.2908Z" fill="#FDFCDE"/>
<path d="M62.7706 16.9864C59.4338 18.0274 57.2433 20.7696 56.9885 24.2227C56.7848 26.711 57.447 27.0411 60.7838 26.1017C62.1084 25.7208 64.0442 24.172 64.8848 22.8263C65.7508 21.4044 66.3112 18.6368 65.9291 17.5958C65.7254 16.961 65.5471 16.8849 64.5537 16.8341C63.9169 16.8087 63.1272 16.8849 62.7706 16.9864ZM63.8914 19.8556C63.5093 21.9122 61.1404 24.3751 59.5357 24.3751C59.0263 24.3751 58.9753 24.2735 59.1027 23.5372C59.4848 21.5059 61.8536 19.0431 63.4584 19.0431C63.9678 19.0431 64.0188 19.1446 63.8914 19.8556Z" fill="#FDFCDE"/>
<path d="M88.4969 22.877C86.9686 23.5626 85.7714 24.7559 85.0327 26.2794C83.861 28.7677 84.345 29.5548 87.0959 29.5294C90.4582 29.5294 93.1073 27.4219 93.9479 24.0704C94.0752 23.5372 93.9733 23.2325 93.5912 22.8516C92.878 22.1407 90.1016 22.1407 88.4969 22.877ZM91.5535 24.629C91.5535 25.1876 90.662 26.2032 89.6686 26.7618C88.5478 27.4219 86.7139 27.8536 86.7139 27.4727C86.7139 26.9141 87.962 25.4669 88.879 24.9591C89.9233 24.3751 91.5535 24.1719 91.5535 24.629Z" fill="#FDFCDE"/>
<path d="M36.3808 23.5371C35.7186 25.0859 35.6421 27.3965 36.1516 29.0722C36.9157 31.459 39.6667 34.0234 41.4497 34.0234C42.2903 34.0234 42.545 33.6425 43.029 31.8652C43.8695 28.5644 42.4176 25.0097 39.5139 23.3593C37.6544 22.2929 36.9157 22.3437 36.3808 23.5371ZM40.3035 26.9902C40.8639 27.8027 41.0167 28.3867 41.0676 29.8847C41.1441 31.0527 41.0676 31.7383 40.9148 31.7383C40.329 31.7383 38.9789 30.291 38.4186 29.0722C37.8327 27.8535 37.6289 26.1269 37.9601 25.289C38.0874 24.9336 38.2148 24.959 38.8771 25.416C39.2846 25.7207 39.9214 26.4062 40.3035 26.9902Z" fill="#FDFCDE"/>
<path d="M49.3971 23.7911C47.1046 24.3751 46.2386 27.3966 47.9452 29.0216C49.448 30.4435 51.0528 30.4435 52.4792 29.0216C53.2179 28.2853 53.3452 28.006 53.3452 26.9396C53.3452 25.4923 52.683 24.5021 51.4094 23.9688C50.5433 23.6134 50.2631 23.588 49.3971 23.7911ZM51.2311 26.381C51.8169 27.5997 50.4669 28.6153 49.499 27.6505C48.9131 27.0665 48.8877 26.711 49.448 26.1017C50.0084 25.4669 50.8235 25.6192 51.2311 26.381Z" fill="#FDFCDE"/>
<path d="M19.5705 25.0097C18.1695 27.1679 18.5516 30.7988 20.4875 33.2109C21.7865 34.8613 24.3592 36.2324 25.1488 35.7246C26.4988 34.8359 26.7281 30.875 25.5818 28.6152C24.8177 27.0918 23.1365 25.5175 21.6082 24.8828C20.1309 24.248 20.0799 24.248 19.5705 25.0097ZM23.4167 29.0722C23.9771 29.9863 24.1809 30.6464 24.2573 31.8906C24.3082 32.7793 24.2573 33.5156 24.1554 33.5156C23.2384 33.5156 21.4045 31.4589 20.9969 29.9609C20.7167 28.9453 20.6658 27.3457 20.9205 27.0918C21.2262 26.7617 22.6526 27.9043 23.4167 29.0722Z" fill="#FDFCDE"/>
<path d="M69.8005 26.0255C68.858 26.9904 68.9599 30.3927 69.9788 32.424C70.8194 34.0236 72.5005 35.547 74.1816 36.131C76.6779 37.0197 77.3656 36.3849 77.2383 33.2618C77.1109 30.1642 75.5062 27.7013 72.8316 26.5333C70.9722 25.6954 70.259 25.5685 69.8005 26.0255ZM73.9269 29.8341C74.3345 30.3419 74.793 31.1798 74.9713 31.713C75.3024 32.8556 75.3533 34.2775 75.0477 34.2775C74.9203 34.2775 74.309 33.922 73.6467 33.4904C72.2203 32.5509 71.176 30.6466 71.176 29.0216V27.9298L72.1694 28.4376C72.7297 28.6915 73.4939 29.3517 73.9269 29.8341Z" fill="#FDFCDE"/>
<path d="M82.8161 36.3086C81.3642 36.8671 79.4284 38.3906 79.1991 39.1269C78.9699 39.8632 80.269 41.1836 81.9756 41.9453C83.7331 42.707 86.586 42.7324 88.2671 41.9707C89.7699 41.3105 91.553 39.7109 91.553 39.0507C91.553 38.2636 89.9737 36.9179 88.369 36.3339C86.6114 35.6738 84.4463 35.6738 82.8161 36.3086ZM87.9614 38.3398C89.0567 38.8476 89.0567 38.873 88.6237 39.3554C87.5284 40.5742 84.3699 40.8789 82.5869 39.9648C81.619 39.4824 81.7463 39.1015 83.1473 38.3906C84.5737 37.6796 86.4331 37.6543 87.9614 38.3398Z" fill="#FDFCDE"/>
<path d="M14.399 36.8418C10.782 37.5527 8.31128 40.3711 8.05656 44.1035C7.98014 45.3731 8.03109 46.084 8.26033 46.3379C9.02449 47.2773 12.4632 46.2871 14.2717 44.6367C15.9019 43.1387 16.717 41.2852 16.7679 39.0762C16.7934 37.5781 16.717 37.2227 16.3094 36.918C16.0292 36.7149 15.749 36.5625 15.6726 36.5879C15.5962 36.6133 15.0104 36.7149 14.399 36.8418ZM14.7302 39.6602C14.45 41.2852 13.5075 42.7578 12.2339 43.5957C10.1962 44.9922 9.5594 44.5859 10.4254 42.4785C11.0368 41.0059 11.9537 39.9649 13.1509 39.3809C14.6792 38.6445 14.9085 38.6699 14.7302 39.6602Z" fill="#FDFCDE"/>
<path d="M38.3172 38.7207C37.8332 39.3047 37.7059 41.4375 38.037 42.8086C38.6483 45.1699 40.5587 47.0996 43.055 47.7852C44.3031 48.1153 44.8889 47.5567 45.1182 45.7793C45.4238 43.0625 43.8701 40.2696 41.3229 39C39.82 38.2637 38.7757 38.1621 38.3172 38.7207ZM41.2465 41.4121C42.2908 42.3516 42.7748 43.1387 43.004 44.4844C43.2333 45.6778 42.8002 45.7539 41.6031 44.7637C40.6861 43.9766 39.871 42.377 39.8455 41.3106C39.8455 40.4219 40.1257 40.4473 41.2465 41.4121Z" fill="#FDFCDE"/>
<path d="M33.3242 39.9649C32.611 40.295 31.643 40.9044 31.1591 41.336C29.2741 42.9864 28.1789 46.6934 28.943 48.877C29.2741 49.8673 29.2996 49.8927 30.4458 49.8673C32.6364 49.7911 35.1327 47.9376 36.2534 45.5763C36.9666 44.0528 37.1959 41.8184 36.7374 40.4981C36.4317 39.5841 36.3044 39.4825 35.5147 39.4063C34.9798 39.3809 34.1138 39.5841 33.3242 39.9649ZM34.8779 42.8341C34.5723 44.8399 33.426 46.5665 31.8977 47.379C30.7515 47.963 30.5987 47.8614 30.7515 46.5919C31.0317 44.6622 32.2543 42.8087 33.8591 41.9454C34.8779 41.3868 35.0817 41.5391 34.8779 42.8341Z" fill="#FDFCDE"/>
<path d="M20.9709 41.6151C20.1813 42.4022 19.9775 42.7831 19.9775 43.5194C19.9775 47.201 24.6644 48.3436 26.1417 45.0174C26.6257 43.9256 26.6257 43.8241 26.2181 42.7577C25.6578 41.285 24.6898 40.6248 23.1615 40.6248C22.0917 40.6248 21.837 40.7518 20.9709 41.6151ZM24.0021 42.9608C24.7153 43.6717 24.1804 44.9413 23.1615 44.9413C22.4738 44.9413 22.0153 44.4842 22.0153 43.7987C22.0153 43.1131 22.4738 42.6561 23.1615 42.6561C23.4672 42.6561 23.8238 42.7831 24.0021 42.9608Z" fill="#FDFCDE"/>
</symbol><symbol id="icon-vk" viewBox="0 0 54 54">
<rect width="54" height="54" rx="27" fill="#F3E3A9"/>
<path d="M28.3268 36.4498C18.1794 36.4498 12.3916 29.3552 12.1504 17.5498H17.2333C17.4003 26.2147 21.1476 29.8849 24.1157 30.6417V17.5498H28.9019V25.0228C31.8329 24.7012 34.9124 21.2958 35.9512 17.5498H40.7373C40.3459 19.4926 39.5655 21.332 38.4452 22.9532C37.3248 24.5743 35.8884 25.9423 34.226 26.9714C36.0817 27.9118 37.7207 29.2428 39.035 30.8767C40.3492 32.5105 41.3088 34.41 41.8504 36.4498H36.5819C36.0958 34.6781 35.1077 33.0921 33.7415 31.8906C32.3753 30.6891 30.6917 29.9256 28.9019 29.6958V36.4498H28.3268Z" fill="#3C5A14"/>
</symbol></svg>