<svg width="32" height="32" viewBox="0 0 32 32" fill="none" xmlns="http://www.w3.org/2000/svg">
<g clip-path="url(#clip0_103_35)">
<path d="M31.5005 12.8743C31.5005 12.8743 30.9583 13.3341 28.0665 13.9331C25.1747 14.5321 24.7318 13.845 24.7318 13.845L25.1749 17.5219C25.1749 17.5219 25.7058 17.8883 28.4987 17.5193C31.2916 17.1504 31.9436 16.5511 31.9436 16.5511L29.9593 15.441L31.5005 12.8743Z" fill="#E30016"/>
<path d="M0.49939 12.8743C0.49939 12.8743 1.04155 13.3341 3.93335 13.9331C6.82516 14.5321 7.2681 13.845 7.2681 13.845L6.82499 17.5219C6.82499 17.5219 6.29409 17.8883 3.50117 17.5193C0.708255 17.1504 0.0562862 16.5511 0.0562862 16.5511L2.04055 15.441L0.49939 12.8743Z" fill="#E30016"/>
<ellipse cx="16" cy="16.5" rx="9" ry="9.5" fill="#EACA22"/>
<path d="M14.4467 5.87479C15.2515 4.90346 16.7485 4.90346 17.5533 5.87479V5.87479C18.092 6.52503 18.9833 6.7693 19.777 6.48128V6.48128C20.9399 6.05933 22.203 6.78397 22.4258 8.0008L22.4498 8.1322C22.6029 8.96824 23.2509 9.62607 24.0845 9.79164V9.79164C25.309 10.0348 26.042 11.2975 25.6461 12.4814L25.6068 12.5991C25.3337 13.4158 25.5713 14.3166 26.2117 14.8923V14.8923C27.1671 15.7512 27.1671 17.2488 26.2117 18.1077V18.1077C25.5713 18.6834 25.3337 19.5842 25.6068 20.4009L25.6461 20.5186C26.042 21.7025 25.309 22.9652 24.0845 23.2084V23.2084C23.2509 23.3739 22.6029 24.0318 22.4498 24.8678L22.4258 24.9992C22.203 26.216 20.9399 26.9407 19.777 26.5187V26.5187C18.9833 26.2307 18.092 26.475 17.5533 27.1252V27.1252C16.7485 28.0965 15.2515 28.0965 14.4467 27.1252V27.1252C13.908 26.475 13.0167 26.2307 12.223 26.5187V26.5187C11.0601 26.9407 9.79695 26.216 9.57422 24.9992L9.55017 24.8678C9.39713 24.0318 8.74911 23.3739 7.91547 23.2084V23.2084C6.69102 22.9652 5.95797 21.7025 6.35387 20.5186L6.39324 20.4009C6.66633 19.5842 6.42869 18.6834 5.7883 18.1077V18.1077C4.83293 17.2488 4.83293 15.7512 5.7883 14.8923V14.8923C6.42869 14.3166 6.66633 13.4158 6.39324 12.5991L6.35387 12.4814C5.95797 11.2975 6.69102 10.0348 7.91547 9.79164V9.79164C8.74911 9.62607 9.39713 8.96824 9.55017 8.1322L9.57422 8.00081C9.79695 6.78397 11.0601 6.05933 12.223 6.48128V6.48128C13.0167 6.7693 13.908 6.52503 14.4467 5.87479V5.87479Z" fill="#49A926"/>
<ellipse cx="16" cy="16.5" rx="9" ry="9.5" fill="#EACA22"/>
<ellipse cx="16" cy="16.5" rx="9" ry="9.5" fill="#F8C617"/>
<ellipse cx="16" cy="17" rx="8" ry="9" fill="#469629"/>
<ellipse cx="16" cy="17" rx="8" ry="9" fill="#0C7C4D"/>
<path d="M25 16.5C25 21.7467 20.9706 26 16 26C11.0294 26 7 21.7467 7 16.5C7 11.2533 11.0294 7 16 7C20.9706 7 25 11.2533 25 16.5Z" fill="#FFEC00"/>
<path d="M25 16.5C25 21.7467 20.9706 26 16 26C11.0294 26 7 21.7467 7 16.5C7 11.2533 11.0294 7 16 7C20.9706 7 25 11.2533 25 16.5Z" fill="url(#paint0_radial_103_35)" style="mix-blend-mode:overlay"/>
<path d="M12 10L12.2245 10.691H12.9511L12.3633 11.118L12.5878 11.809L12 11.382L11.4122 11.809L11.6367 11.118L11.0489 10.691H11.7755L12 10Z" fill="#49A926"/>
<path d="M10 13L10.2245 13.691H10.9511L10.3633 14.118L10.5878 14.809L10 14.382L9.41221 14.809L9.63673 14.118L9.04894 13.691H9.77549L10 13Z" fill="#49A926"/>
<path d="M21 21L21.2245 21.691H21.9511L21.3633 22.118L21.5878 22.809L21 22.382L20.4122 22.809L20.6367 22.118L20.0489 21.691H20.7755L21 21Z" fill="#49A926"/>
<path d="M23 13L23.2245 13.691H23.9511L23.3633 14.118L23.5878 14.809L23 14.382L22.4122 14.809L22.6367 14.118L22.0489 13.691H22.7755L23 13Z" fill="#49A926"/>
<path d="M11 21L11.2245 21.691H11.9511L11.3633 22.118L11.5878 22.809L11 22.382L10.4122 22.809L10.6367 22.118L10.0489 21.691H10.7755L11 21Z" fill="#49A926"/>
<path d="M20 10L20.2245 10.691H20.9511L20.3633 11.118L20.5878 11.809L20 11.382L19.4122 11.809L19.6367 11.118L19.0489 10.691H19.7755L20 10Z" fill="#49A926"/>
<path d="M16 23L16.2245 23.691H16.9511L16.3633 24.118L16.5878 24.809L16 24.382L15.4122 24.809L15.6367 24.118L15.0489 23.691H15.7755L16 23Z" fill="#469629"/>
<path d="M16 8L16.2245 8.69098H16.9511L16.3633 9.11803L16.5878 9.80902L16 9.38197L15.4122 9.80902L15.6367 9.11803L15.0489 8.69098H15.7755L16 8Z" fill="#469629"/>
<path d="M5.00009 15.3564C5.00009 15.3564 7.89602 15.3809 16.2335 15.3564C24.571 15.332 27.0841 15.23 27.0841 15.23L27.1041 19.3736C27.1041 19.3736 25.006 20.18 16.2335 20.2302C7.46103 20.2804 5.02002 19.5 5.02002 19.5L5.00009 15.3564Z" fill="#E30016"/>
<path d="M5.52 19.332C5.51467 19.3293 5.504 19.3253 5.488 19.32C5.472 19.3147 5.45467 19.312 5.436 19.312C5.404 19.304 5.37733 19.2867 5.356 19.26C5.33733 19.2333 5.328 19.2027 5.328 19.168C5.328 19.1493 5.32933 19.1347 5.332 19.124C5.34 19.116 5.34667 19.0947 5.352 19.06C5.36 19.028 5.364 18.9987 5.364 18.972C5.372 18.956 5.37867 18.94 5.384 18.924C5.38933 18.9053 5.396 18.88 5.404 18.848C5.42533 18.7307 5.47467 18.5333 5.552 18.256C5.62933 17.9787 5.67733 17.8307 5.696 17.812V17.768C5.696 17.76 5.69867 17.744 5.704 17.72C5.70933 17.696 5.72133 17.6707 5.74 17.644C5.75067 17.612 5.75867 17.5813 5.764 17.552C5.772 17.52 5.77733 17.496 5.78 17.48C5.79067 17.4667 5.808 17.4267 5.832 17.36C5.85867 17.2933 5.876 17.2493 5.884 17.228C5.90267 17.1773 5.92533 17.1187 5.952 17.052C5.98133 16.9827 6.00133 16.9373 6.012 16.916V16.896C6.01733 16.8907 6.03067 16.864 6.052 16.816C6.076 16.7653 6.096 16.7227 6.112 16.688C6.13067 16.6453 6.18 16.5347 6.26 16.356C6.268 16.3373 6.28 16.3147 6.296 16.288C6.31467 16.2587 6.324 16.2387 6.324 16.228C6.33467 16.2093 6.35333 16.2 6.38 16.2C6.404 16.2 6.428 16.2093 6.452 16.228C6.47867 16.244 6.49867 16.2653 6.512 16.292L6.552 16.356L6.408 16.644C6.368 16.7133 6.33333 16.78 6.304 16.844C6.27467 16.908 6.26 16.9453 6.26 16.956C6.24933 16.9827 6.228 17.0373 6.196 17.12C6.16667 17.2027 6.14267 17.2733 6.124 17.332C6.11067 17.372 6.09467 17.4147 6.076 17.46C6.05733 17.5027 6.044 17.5333 6.036 17.552C6.01467 17.6 6.004 17.6267 6.004 17.632C6.004 17.6213 6.164 17.616 6.484 17.616C6.53467 17.616 6.624 17.6147 6.752 17.612C6.88267 17.6093 6.964 17.6053 6.996 17.6L7.204 17.58L7.34 17.168C7.36667 17.0747 7.42533 16.8933 7.516 16.624C7.556 16.5093 7.588 16.436 7.612 16.404C7.636 16.3693 7.66533 16.352 7.7 16.352C7.71333 16.352 7.732 16.3587 7.756 16.372C7.78267 16.3827 7.8 16.3973 7.808 16.416C7.83733 16.4453 7.852 16.476 7.852 16.508C7.852 16.5453 7.83067 16.5973 7.788 16.664C7.756 16.72 7.71067 16.8253 7.652 16.98C7.628 17.052 7.61333 17.0933 7.608 17.104C7.608 17.16 7.59467 17.2013 7.568 17.228C7.55733 17.2387 7.53867 17.2773 7.512 17.344C7.48533 17.408 7.472 17.4453 7.472 17.456C7.472 17.4773 7.468 17.5013 7.46 17.528C7.452 17.552 7.44267 17.5693 7.432 17.58L7.404 17.676C7.31067 18.0147 7.23733 18.2493 7.184 18.38C7.184 18.3933 7.17733 18.4173 7.164 18.452C7.15067 18.4867 7.144 18.5107 7.144 18.524C7.13867 18.5427 7.12667 18.58 7.108 18.636C7.08933 18.692 7.08 18.7253 7.08 18.736C7.07467 18.7653 7.064 18.812 7.048 18.876C7.008 19.0573 6.988 19.156 6.988 19.172C6.98267 19.1773 6.97467 19.18 6.964 19.18C6.95333 19.18 6.936 19.176 6.912 19.168C6.89067 19.16 6.87467 19.1533 6.864 19.148C6.8 19.1133 6.768 19.0733 6.768 19.028C6.768 18.9987 6.78 18.96 6.804 18.912C6.812 18.8987 6.83733 18.812 6.88 18.652L6.916 18.504C6.932 18.4613 6.968 18.3347 7.024 18.124C7.06933 17.9613 7.09467 17.8773 7.1 17.872V17.832C7.092 17.8187 6.99467 17.812 6.808 17.812C6.59733 17.812 6.404 17.8227 6.228 17.844H6.04H5.936C5.92267 17.8733 5.88133 17.9973 5.812 18.216C5.74533 18.432 5.708 18.568 5.7 18.624C5.68133 18.712 5.652 18.8347 5.612 18.992C5.572 19.1467 5.54133 19.26 5.52 19.332ZM7.88991 19.132C7.86057 19.116 7.83924 19.1013 7.82591 19.088C7.81524 19.0747 7.80991 19.0573 7.80991 19.036C7.80991 19.0093 7.82057 18.972 7.84191 18.924C7.86591 18.8733 7.90591 18.7947 7.96191 18.688C7.97791 18.6533 8.00857 18.592 8.05391 18.504C8.20857 18.208 8.28591 18.0467 8.28591 18.02C8.28324 18.0147 8.28191 18.0067 8.28191 17.996C8.28191 17.9693 8.30324 17.9453 8.34591 17.924C8.40724 17.8627 8.45791 17.7973 8.49791 17.728C8.52457 17.6693 8.56057 17.6 8.60591 17.52C8.65124 17.4373 8.70724 17.34 8.77391 17.228C8.80591 17.172 8.85391 17.0907 8.91791 16.984C9.01657 16.808 9.14324 16.616 9.29791 16.408C9.35924 16.3253 9.40991 16.2853 9.44991 16.288C9.50057 16.288 9.55657 16.312 9.61791 16.36C9.68191 16.4053 9.72591 16.4573 9.74991 16.516C9.76057 16.5347 9.76591 16.5747 9.76591 16.636C9.76591 16.7187 9.75657 16.8587 9.73791 17.056C9.73257 17.0907 9.72724 17.1453 9.72191 17.22C9.71391 17.34 9.70191 17.468 9.68591 17.604C9.65657 17.9027 9.63524 18.136 9.62191 18.304C9.60857 18.472 9.60191 18.6293 9.60191 18.776C9.60191 18.8507 9.60324 18.9053 9.60591 18.94V18.968L9.60191 19.06C9.58591 19.076 9.56191 19.084 9.52991 19.084C9.49257 19.084 9.45657 19.0747 9.42191 19.056C9.38724 19.04 9.36724 19.02 9.36191 18.996C9.35924 18.9933 9.35524 18.9907 9.34991 18.988C9.34457 18.9853 9.34191 18.9733 9.34191 18.952L9.34591 18.864L9.35791 18.64L9.37791 17.992L9.32591 17.996C9.27257 17.996 9.15391 18.0067 8.96991 18.028C8.78591 18.0493 8.67124 18.0667 8.62591 18.08C8.60191 18.08 8.57257 18.096 8.53791 18.128C8.50324 18.16 8.47257 18.2013 8.44591 18.252C8.43791 18.2787 8.41924 18.3173 8.38991 18.368C8.36057 18.416 8.34591 18.444 8.34591 18.452C8.32991 18.4627 8.31524 18.4773 8.30191 18.496C8.29124 18.512 8.28457 18.5227 8.28191 18.528C8.28191 18.5573 8.25391 18.632 8.19791 18.752C8.14457 18.872 8.09124 18.972 8.03791 19.052L7.95391 19.18L7.88991 19.132ZM8.71791 17.844C8.73391 17.8413 8.76857 17.836 8.82191 17.828C8.87524 17.8173 8.92324 17.8107 8.96591 17.808C9.15791 17.7627 9.27524 17.74 9.31791 17.74C9.33657 17.74 9.35391 17.744 9.36991 17.752C9.37791 17.7627 9.38591 17.7707 9.39391 17.776C9.40457 17.7787 9.41124 17.78 9.41391 17.78C9.41924 17.764 9.43524 17.62 9.46191 17.348C9.49124 17.0733 9.50724 16.8907 9.50991 16.8L9.52191 16.6C9.50591 16.6 9.47124 16.6307 9.41791 16.692C9.36457 16.7533 9.30457 16.8333 9.23791 16.932C9.17391 17.028 9.11657 17.1267 9.06591 17.228C9.03924 17.276 9.01257 17.3213 8.98591 17.364C8.96191 17.404 8.94457 17.424 8.93391 17.424C8.91524 17.4427 8.87124 17.5147 8.80191 17.64C8.73257 17.7653 8.70457 17.8333 8.71791 17.844ZM10.9276 19.132C10.8663 19.14 10.8196 19.144 10.7876 19.144C10.7583 19.144 10.7289 19.14 10.6996 19.132C10.6729 19.1267 10.6489 19.12 10.6276 19.112C10.6063 19.1067 10.5903 19.1027 10.5796 19.1C10.5449 19.0787 10.5129 19.056 10.4836 19.032C10.4569 19.008 10.4383 18.992 10.4276 18.984C10.4276 18.9733 10.4249 18.964 10.4196 18.956C10.4143 18.948 10.4103 18.9427 10.4076 18.94C10.3969 18.94 10.3876 18.9187 10.3796 18.876C10.3743 18.8333 10.3716 18.7813 10.3716 18.72C10.3716 18.6533 10.3756 18.5907 10.3836 18.532C10.3916 18.4707 10.4009 18.4307 10.4116 18.412C10.4116 18.4013 10.4143 18.384 10.4196 18.36C10.4276 18.336 10.4316 18.32 10.4316 18.312C10.4316 18.2907 10.4329 18.2747 10.4356 18.264C10.4383 18.2507 10.4436 18.244 10.4516 18.244C10.4543 18.244 10.4583 18.2427 10.4636 18.24C10.4689 18.2373 10.4716 18.2333 10.4716 18.228C10.4716 18.2147 10.4769 18.192 10.4876 18.16C10.4983 18.128 10.5063 18.1027 10.5116 18.084C10.5223 18.0653 10.5436 18.0107 10.5756 17.92C10.5863 17.8827 10.6009 17.8413 10.6196 17.796C10.6276 17.756 10.6516 17.684 10.6916 17.58L10.7276 17.48C10.7649 17.416 10.7836 17.368 10.7836 17.336C10.8023 17.2827 10.8783 17.1253 11.0116 16.864C11.1476 16.6027 11.2356 16.4453 11.2756 16.392C11.3156 16.3413 11.3463 16.3093 11.3676 16.296C11.3889 16.28 11.4129 16.272 11.4396 16.272C11.4609 16.28 11.4889 16.3027 11.5236 16.34C11.5583 16.3747 11.5769 16.4027 11.5796 16.424C11.5796 16.4347 11.5556 16.4747 11.5076 16.544C11.4623 16.6107 11.4183 16.6667 11.3756 16.712C11.3703 16.72 11.3663 16.728 11.3636 16.736C11.3609 16.744 11.3596 16.7493 11.3596 16.752C11.3409 16.784 11.3063 16.8467 11.2556 16.94C11.2076 17.0307 11.1809 17.092 11.1756 17.124C11.1436 17.1613 11.0809 17.292 10.9876 17.516C10.9449 17.6147 10.9209 17.6667 10.9156 17.672C10.9156 17.704 10.9089 17.7293 10.8956 17.748C10.8903 17.7613 10.8756 17.8027 10.8516 17.872C10.8303 17.9413 10.8036 18.0093 10.7716 18.076C10.7529 18.1507 10.7303 18.22 10.7036 18.284C10.6796 18.3453 10.6596 18.384 10.6436 18.4C10.6356 18.4187 10.6303 18.432 10.6276 18.44C10.6276 18.448 10.6329 18.4507 10.6436 18.448C10.6516 18.44 10.6569 18.436 10.6596 18.436C10.6623 18.436 10.6636 18.4387 10.6636 18.444C10.6636 18.452 10.6569 18.4667 10.6436 18.488C10.6169 18.5573 10.6036 18.624 10.6036 18.688C10.6089 18.776 10.6209 18.8347 10.6396 18.864C10.6583 18.8933 10.6983 18.908 10.7596 18.908C10.8849 18.908 11.0369 18.8867 11.2156 18.844C11.2956 18.8173 11.3689 18.804 11.4356 18.804C11.5076 18.804 11.5569 18.8213 11.5836 18.856C11.5969 18.8773 11.6049 18.8947 11.6076 18.908C11.6129 18.9187 11.6156 18.9333 11.6156 18.952C11.5996 18.976 11.5036 19.0107 11.3276 19.056C11.1516 19.1013 11.0183 19.1267 10.9276 19.132ZM13.8277 19.316C13.8063 19.316 13.781 19.2987 13.7517 19.264C13.7197 19.232 13.7037 19.184 13.7037 19.12C13.7037 18.9973 13.701 18.9133 13.6957 18.868L13.6917 18.596C13.6917 18.524 13.6957 18.4813 13.7037 18.468C13.701 18.4547 13.6997 18.4347 13.6997 18.408C13.6997 18.384 13.701 18.356 13.7037 18.324C13.709 18.2893 13.7117 18.2627 13.7117 18.244L13.6957 18.136H13.4757C13.433 18.1413 13.3877 18.144 13.3397 18.144C13.2463 18.144 13.097 18.1373 12.8917 18.124L12.8397 18.208C12.7837 18.2933 12.741 18.372 12.7117 18.444C12.653 18.596 12.5957 18.7133 12.5397 18.796C12.465 18.94 12.4143 19.012 12.3877 19.012H12.3637C12.345 19.012 12.3277 19.0093 12.3117 19.004C12.2983 19.0013 12.281 18.992 12.2597 18.976C12.2117 18.9547 12.1877 18.9227 12.1877 18.88C12.1877 18.8267 12.2183 18.7573 12.2797 18.672L12.3317 18.588C12.3317 18.572 12.3663 18.4973 12.4357 18.364C12.505 18.2307 12.5517 18.1587 12.5757 18.148C12.5997 18.124 12.6117 18.1 12.6117 18.076C12.6117 18.0493 12.5957 18.0227 12.5637 17.996C12.5477 17.988 12.5397 17.9773 12.5397 17.964C12.5397 17.948 12.549 17.9333 12.5677 17.92C12.5863 17.9067 12.6077 17.9 12.6317 17.9C12.645 17.892 12.657 17.8853 12.6677 17.88C12.681 17.8747 12.6903 17.8707 12.6957 17.868C12.7037 17.8627 12.7077 17.856 12.7077 17.848C12.7077 17.8347 12.7397 17.7667 12.8037 17.644C12.8677 17.5187 12.917 17.4347 12.9517 17.392C12.9783 17.32 13.001 17.268 13.0197 17.236C13.041 17.204 13.0543 17.1813 13.0597 17.168C13.073 17.1547 13.0997 17.1107 13.1397 17.036C13.145 17.028 13.1623 16.9987 13.1917 16.948C13.2183 16.9213 13.245 16.8907 13.2717 16.856C13.301 16.8187 13.3197 16.7947 13.3277 16.784C13.3383 16.7653 13.3543 16.7427 13.3757 16.716C13.389 16.684 13.413 16.6453 13.4477 16.6C13.4823 16.552 13.5037 16.5227 13.5117 16.512C13.549 16.4693 13.5783 16.44 13.5997 16.424C13.6237 16.4053 13.649 16.396 13.6757 16.396C13.6997 16.396 13.7277 16.404 13.7597 16.42C13.821 16.4467 13.8663 16.4893 13.8957 16.548C13.925 16.6067 13.9437 16.692 13.9517 16.804C13.9543 16.8227 13.9597 16.864 13.9677 16.928C13.9783 16.992 13.9837 17.048 13.9837 17.096C13.9837 17.1307 13.9797 17.1587 13.9717 17.18V17.356C13.9717 17.444 13.9743 17.5093 13.9797 17.552C13.9717 17.5813 13.9677 17.6293 13.9677 17.696L13.9717 17.852C13.9717 17.892 13.9703 17.9253 13.9677 17.952L13.9637 18.1L13.9597 18.248C13.957 18.3147 13.9557 18.3987 13.9557 18.5L13.9597 18.752V18.908C13.9597 19.06 13.9503 19.164 13.9317 19.22C13.9157 19.2787 13.881 19.3107 13.8277 19.316ZM13.0157 17.916C13.0343 17.9133 13.073 17.9093 13.1317 17.904C13.193 17.8987 13.2543 17.8973 13.3157 17.9C13.3903 17.8947 13.441 17.892 13.4677 17.892C13.5023 17.892 13.5383 17.8933 13.5757 17.896C13.613 17.896 13.6343 17.8947 13.6397 17.892C13.6903 17.8947 13.7157 17.848 13.7157 17.752C13.7023 17.6133 13.6957 17.4147 13.6957 17.156C13.6957 17.0573 13.697 16.9907 13.6997 16.956C13.6997 16.9133 13.697 16.872 13.6917 16.832C13.689 16.792 13.6863 16.7667 13.6837 16.756C13.673 16.7427 13.625 16.7893 13.5397 16.896C13.4543 17 13.397 17.0773 13.3677 17.128C13.3517 17.1493 13.3303 17.1867 13.3037 17.24C13.2903 17.2613 13.2757 17.2867 13.2597 17.316C13.2463 17.3453 13.229 17.3773 13.2077 17.412C13.0663 17.6307 12.9957 17.784 12.9957 17.872C12.9957 17.896 13.0023 17.9107 13.0157 17.916ZM15.0613 19.124C14.904 19.1 14.7973 19.0107 14.7413 18.856C14.736 18.84 14.7267 18.8173 14.7133 18.788C14.7027 18.756 14.6973 18.7253 14.6973 18.696C14.6973 18.6613 14.708 18.608 14.7293 18.536C14.748 18.3387 14.7893 18.1493 14.8533 17.968C14.856 17.9547 14.8627 17.9293 14.8733 17.892C14.8867 17.8547 14.9027 17.812 14.9213 17.764C14.964 17.6333 15.0307 17.476 15.1213 17.292C15.212 17.1053 15.3067 16.936 15.4053 16.784C15.504 16.632 15.5827 16.5333 15.6413 16.488C15.684 16.4507 15.728 16.432 15.7733 16.432C15.808 16.432 15.8253 16.4453 15.8253 16.472C15.82 16.4853 15.8173 16.4947 15.8173 16.5C15.8173 16.5027 15.8227 16.5053 15.8333 16.508C15.8493 16.508 15.8573 16.5173 15.8573 16.536C15.8573 16.568 15.84 16.6093 15.8053 16.66C15.7707 16.708 15.7333 16.744 15.6933 16.768C15.6933 16.7733 15.6893 16.784 15.6813 16.8C15.6733 16.816 15.6573 16.8333 15.6333 16.852C15.6253 16.8787 15.616 16.9027 15.6053 16.924C15.5947 16.9453 15.588 16.9587 15.5853 16.964C15.5827 16.9693 15.5747 16.9813 15.5613 17C15.5507 17.0187 15.5387 17.0427 15.5253 17.072C15.472 17.1387 15.4453 17.1827 15.4453 17.204C15.4373 17.2227 15.42 17.2573 15.3933 17.308C15.3693 17.356 15.3573 17.384 15.3573 17.392L15.3293 17.412C15.3293 17.4307 15.32 17.464 15.3013 17.512C15.2853 17.5573 15.264 17.5987 15.2373 17.636C15.2187 17.6787 15.1893 17.7573 15.1493 17.872C15.1333 17.9333 15.1187 17.9747 15.1053 17.996C15.1 18.0067 15.096 18.0213 15.0933 18.04C15.0827 18.0507 15.0707 18.0787 15.0573 18.124C15.044 18.1693 15.0347 18.224 15.0293 18.288L14.9573 18.492C14.9387 18.4893 14.9293 18.524 14.9293 18.596C14.9293 18.668 14.9347 18.7413 14.9453 18.816C14.9613 18.8373 14.9787 18.8533 14.9973 18.864C15.0187 18.872 15.0493 18.876 15.0893 18.876L15.2213 18.868C15.2293 18.8707 15.2427 18.872 15.2613 18.872C15.2853 18.872 15.3173 18.8707 15.3573 18.868C15.3973 18.8627 15.428 18.8613 15.4493 18.864C15.5267 18.864 15.6133 18.856 15.7093 18.84C15.752 18.8347 15.7947 18.832 15.8373 18.832C15.8587 18.832 15.8733 18.8347 15.8813 18.84C15.8893 18.8427 15.9 18.8507 15.9133 18.864C15.9373 18.896 15.9493 18.92 15.9493 18.936C15.9493 18.9653 15.916 18.988 15.8493 19.004C15.6947 19.044 15.5413 19.0747 15.3893 19.096C15.24 19.12 15.1307 19.1293 15.0613 19.124ZM18.1252 19.076C18.1252 19.084 18.1159 19.088 18.0972 19.088C18.0812 19.088 18.0626 19.084 18.0412 19.076C18.0226 19.068 18.0066 19.056 17.9932 19.04C17.9746 19.024 17.9599 19.0107 17.9492 19C17.9412 18.9893 17.9372 18.976 17.9372 18.96C17.9372 18.9387 17.9452 18.904 17.9612 18.856C17.9826 18.76 18.0212 18.6227 18.0772 18.444C18.1359 18.2653 18.1879 18.1307 18.2332 18.04C18.2519 18.008 18.2666 17.9747 18.2772 17.94C18.2879 17.9053 18.2946 17.8827 18.2972 17.872C18.3106 17.824 18.3186 17.796 18.3212 17.788L18.3172 17.748C18.3172 17.7373 18.3199 17.7267 18.3252 17.716C18.3306 17.7053 18.3399 17.6933 18.3532 17.68C18.3906 17.648 18.4306 17.5853 18.4732 17.492L18.6252 17.056L18.6732 16.92C18.6759 16.9093 18.6812 16.8907 18.6892 16.864C18.6972 16.8373 18.7012 16.8187 18.7012 16.808C18.7012 16.7973 18.6986 16.792 18.6932 16.792C18.6719 16.7973 18.6292 16.8013 18.5652 16.804C18.5332 16.8093 18.5092 16.8133 18.4932 16.816C18.4772 16.816 18.4652 16.8173 18.4572 16.82H18.4292C18.3786 16.82 18.3532 16.8013 18.3532 16.764C18.3586 16.7213 18.3732 16.6867 18.3972 16.66C18.4239 16.6307 18.4572 16.6147 18.4972 16.612L18.6532 16.576C18.6772 16.5707 18.7092 16.564 18.7492 16.556C18.7919 16.5453 18.8212 16.5427 18.8372 16.548C18.8719 16.524 18.8892 16.5053 18.8892 16.492C18.8892 16.4787 18.8959 16.468 18.9092 16.46C18.9226 16.452 18.9386 16.448 18.9572 16.448C18.9946 16.448 19.0212 16.46 19.0372 16.484C19.0479 16.5 19.0706 16.508 19.1052 16.508C19.1586 16.508 19.2519 16.4933 19.3852 16.464C19.4066 16.4613 19.4426 16.4587 19.4932 16.456C19.5466 16.4507 19.5906 16.448 19.6252 16.448C19.6732 16.448 19.7119 16.452 19.7412 16.46C19.7652 16.4547 19.7866 16.452 19.8052 16.452C19.8239 16.452 19.8399 16.4507 19.8532 16.448C19.8986 16.448 19.9266 16.444 19.9372 16.436C19.9612 16.4413 19.9879 16.4467 20.0172 16.452C20.0492 16.4547 20.0719 16.4587 20.0852 16.464C20.0986 16.4693 20.1106 16.476 20.1212 16.484C20.1292 16.4947 20.1332 16.504 20.1332 16.512C20.1332 16.52 20.1319 16.5253 20.1292 16.528L20.1212 16.524C20.1239 16.524 20.1279 16.5267 20.1332 16.532C20.1412 16.5347 20.1492 16.54 20.1572 16.548C20.1972 16.5693 20.2106 16.6 20.1972 16.64C20.1946 16.656 20.1879 16.668 20.1772 16.676C20.1692 16.6813 20.1479 16.6853 20.1132 16.688C20.0786 16.688 20.0332 16.6867 19.9772 16.684C19.8759 16.6707 19.7879 16.664 19.7132 16.664C19.6012 16.664 19.4479 16.6773 19.2532 16.704C19.2052 16.7067 19.1599 16.7133 19.1172 16.724C19.0772 16.7347 19.0519 16.7413 19.0412 16.744C19.0279 16.744 19.0079 16.764 18.9812 16.804C18.9546 16.844 18.9306 16.8947 18.9092 16.956C18.8932 16.98 18.8652 17.044 18.8252 17.148C18.7852 17.2493 18.7586 17.316 18.7452 17.348C18.6866 17.5027 18.6532 17.5867 18.6452 17.6C18.6772 17.6107 18.7412 17.616 18.8372 17.616C18.9759 17.616 19.1599 17.6053 19.3892 17.584C19.5119 17.56 19.5826 17.552 19.6012 17.56C19.6172 17.5707 19.6306 17.5907 19.6412 17.62C19.6546 17.6493 19.6612 17.676 19.6612 17.7C19.6612 17.7133 19.6586 17.7253 19.6532 17.736C19.6452 17.7547 19.6159 17.7693 19.5652 17.78C19.5172 17.7907 19.4306 17.8027 19.3052 17.816C19.1879 17.8267 19.0172 17.832 18.7932 17.832C18.6759 17.832 18.6066 17.8293 18.5852 17.824C18.5799 17.8267 18.5719 17.8347 18.5612 17.848C18.5532 17.8613 18.5492 17.8773 18.5492 17.896C18.5012 17.9813 18.4306 18.1467 18.3372 18.392C18.2439 18.6373 18.1972 18.784 18.1972 18.832C18.1786 18.88 18.1639 18.9347 18.1532 18.996C18.1506 19.0067 18.1466 19.0213 18.1412 19.04C18.1359 19.0587 18.1306 19.0707 18.1252 19.076ZM20.6416 19.056C20.5696 19.0453 20.4936 19.0133 20.4136 18.96C20.3363 18.9067 20.2856 18.8533 20.2616 18.8C20.203 18.6987 20.1736 18.596 20.1736 18.492C20.1736 18.412 20.1923 18.3373 20.2296 18.268C20.243 18.2067 20.2496 18.1453 20.2496 18.084L20.2776 18.048C20.2856 18.048 20.291 18.0427 20.2936 18.032C20.299 18.0213 20.303 18.012 20.3056 18.004C20.3136 17.988 20.3203 17.976 20.3256 17.968C20.3336 17.96 20.339 17.9547 20.3416 17.952C20.3576 17.952 20.367 17.9467 20.3696 17.936C20.3723 17.9253 20.3723 17.896 20.3696 17.848L20.3656 17.832C20.3656 17.8267 20.367 17.8213 20.3696 17.816C20.3723 17.808 20.3736 17.8013 20.3736 17.796C20.3763 17.7933 20.3843 17.7853 20.3976 17.772C20.411 17.7587 20.4176 17.7467 20.4176 17.736C20.4283 17.728 20.4376 17.7227 20.4456 17.72C20.4536 17.7147 20.459 17.7107 20.4616 17.708C20.467 17.7107 20.4736 17.712 20.4816 17.712C20.4843 17.712 20.487 17.7107 20.4896 17.708C20.495 17.7027 20.5003 17.6973 20.5056 17.692C20.5056 17.6733 20.5336 17.5973 20.5896 17.464C20.6003 17.44 20.6163 17.4 20.6376 17.344C20.915 16.8347 21.171 16.5293 21.4056 16.428C21.4243 16.4227 21.4723 16.4173 21.5496 16.412C21.6003 16.4147 21.6616 16.4267 21.7336 16.448C21.8056 16.4693 21.8443 16.4853 21.8496 16.496C21.8496 16.5067 21.8523 16.5133 21.8576 16.516C21.8656 16.5187 21.871 16.52 21.8736 16.52C21.895 16.5173 21.927 16.5493 21.9696 16.616C22.0123 16.68 22.0496 16.7507 22.0816 16.828C22.1163 16.8787 22.1336 16.9707 22.1336 17.104C22.1336 17.1387 22.131 17.1907 22.1256 17.26C22.115 17.3427 22.095 17.44 22.0656 17.552C22.039 17.664 22.0163 17.7413 21.9976 17.784L21.9296 17.976C21.8736 18.1333 21.7936 18.296 21.6896 18.464C21.5856 18.632 21.503 18.7173 21.4416 18.72C21.439 18.72 21.4363 18.7227 21.4336 18.728C21.431 18.7307 21.4296 18.736 21.4296 18.744C21.4296 18.752 21.391 18.788 21.3136 18.852C21.239 18.916 21.175 18.968 21.1216 19.008C20.999 19.0507 20.883 19.072 20.7736 19.072C20.7176 19.072 20.6736 19.0667 20.6416 19.056ZM20.6616 18.84C20.7976 18.84 20.919 18.8147 21.0256 18.764C21.135 18.7133 21.243 18.6267 21.3496 18.504C21.363 18.4747 21.3763 18.4493 21.3896 18.428C21.403 18.4067 21.4123 18.3933 21.4176 18.388C21.4283 18.388 21.435 18.3867 21.4376 18.384C21.4403 18.3813 21.4416 18.3747 21.4416 18.364C21.4416 18.3587 21.4443 18.348 21.4496 18.332C21.455 18.3133 21.463 18.2987 21.4736 18.288L21.5736 18.212C21.5736 18.1987 21.5843 18.1627 21.6056 18.104C21.627 18.0427 21.643 18.008 21.6536 18C21.6643 17.992 21.687 17.9307 21.7216 17.816C21.759 17.6987 21.779 17.6093 21.7816 17.548C21.795 17.5347 21.8056 17.5227 21.8136 17.512C21.8216 17.4987 21.827 17.4893 21.8296 17.484C21.8376 17.4787 21.8416 17.4733 21.8416 17.468C21.8443 17.46 21.8443 17.4507 21.8416 17.44C21.8416 17.4293 21.8416 17.4187 21.8416 17.408C21.8416 17.3787 21.843 17.3547 21.8456 17.336C21.851 17.3173 21.855 17.3067 21.8576 17.304C21.8683 17.2933 21.875 17.2853 21.8776 17.28C21.8803 17.2747 21.879 17.2707 21.8736 17.268C21.839 17.2467 21.839 17.232 21.8736 17.224C21.8763 17.2187 21.8776 17.2027 21.8776 17.176C21.8776 17.12 21.8696 17.0453 21.8536 16.952C21.8403 16.856 21.827 16.7907 21.8136 16.756C21.7816 16.7107 21.739 16.688 21.6856 16.688C21.651 16.688 21.6136 16.6947 21.5736 16.708C21.499 16.7267 21.439 16.7533 21.3936 16.788C21.351 16.82 21.2843 16.8827 21.1936 16.976C21.183 17.0133 21.1683 17.0467 21.1496 17.076C21.131 17.1027 21.1176 17.116 21.1096 17.116C21.099 17.116 21.0883 17.124 21.0776 17.14C21.067 17.156 21.0603 17.176 21.0576 17.2C20.983 17.2427 20.9363 17.2827 20.9176 17.32C20.8456 17.432 20.7523 17.632 20.6376 17.92C20.523 18.208 20.4603 18.4027 20.4496 18.504C20.4336 18.5467 20.4256 18.5907 20.4256 18.636C20.4256 18.7053 20.4403 18.744 20.4696 18.752C20.4883 18.7733 20.5176 18.7933 20.5576 18.812C20.5976 18.828 20.6323 18.8373 20.6616 18.84ZM22.83 19.08C22.7367 19.008 22.6753 18.952 22.646 18.912C22.6167 18.8693 22.5993 18.8173 22.594 18.756C22.5913 18.7427 22.59 18.7187 22.59 18.684C22.59 18.6093 22.5967 18.516 22.61 18.404C22.6233 18.292 22.6367 18.2027 22.65 18.136C22.6607 18.1253 22.666 18.1093 22.666 18.088C22.6687 18.0667 22.6687 18.0533 22.666 18.048C22.666 18.04 22.6727 18.0133 22.686 17.968C22.718 17.8693 22.7407 17.7867 22.754 17.72C22.826 17.5013 22.8967 17.3267 22.966 17.196C23.0353 17.0653 23.1127 16.9427 23.198 16.828C23.3127 16.7107 23.402 16.6253 23.466 16.572C23.5327 16.516 23.606 16.4693 23.686 16.432C23.79 16.3707 23.8647 16.34 23.91 16.34C23.918 16.34 23.93 16.3427 23.946 16.348C24.0953 16.38 24.2073 16.4413 24.282 16.532C24.3567 16.62 24.4113 16.7573 24.446 16.944C24.47 17.1067 24.482 17.2293 24.482 17.312C24.482 17.4453 24.458 17.58 24.41 17.716C24.362 17.852 24.2753 18.0227 24.15 18.228C24.006 18.5107 23.8353 18.7373 23.638 18.908C23.4433 19.0787 23.2593 19.164 23.086 19.164C22.9927 19.164 22.9073 19.136 22.83 19.08ZM23.086 18.964C23.1767 18.9533 23.262 18.9187 23.342 18.86C23.4247 18.7987 23.526 18.6987 23.646 18.56C23.75 18.44 23.8233 18.3493 23.866 18.288C23.9113 18.2267 23.9513 18.1533 23.986 18.068C24.0207 17.9827 24.0633 17.852 24.114 17.676C24.1433 17.564 24.162 17.4773 24.17 17.416C24.1807 17.352 24.186 17.276 24.186 17.188L24.182 16.928C24.1793 16.8827 24.17 16.836 24.154 16.788C24.138 16.7373 24.1193 16.7 24.098 16.676C24.058 16.6307 24.006 16.608 23.942 16.608C23.902 16.608 23.8633 16.6173 23.826 16.636C23.7753 16.6573 23.7007 16.72 23.602 16.824C23.5033 16.9253 23.414 17.0307 23.334 17.14C23.2567 17.2467 23.218 17.316 23.218 17.348C23.218 17.3507 23.2167 17.3587 23.214 17.372C23.2113 17.3853 23.206 17.3973 23.198 17.408C23.1527 17.456 23.102 17.5533 23.046 17.7C22.99 17.8467 22.9407 18.0053 22.898 18.176C22.8553 18.3467 22.8313 18.4893 22.826 18.604L22.818 18.74C22.818 18.764 22.8193 18.7827 22.822 18.796C22.8273 18.8093 22.8367 18.8253 22.85 18.844C22.8633 18.86 22.8753 18.8773 22.886 18.896C22.8993 18.9173 22.9207 18.9347 22.95 18.948C22.9793 18.9613 23.01 18.968 23.042 18.968C23.0607 18.968 23.0753 18.9667 23.086 18.964ZM25.4064 19.144C25.289 19.144 25.1917 19.124 25.1144 19.084C25.037 19.044 24.989 18.972 24.9704 18.868C24.973 18.8093 24.9757 18.772 24.9784 18.756C24.9837 18.74 24.9944 18.732 25.0104 18.732C25.0344 18.732 25.0464 18.7187 25.0464 18.692C25.049 18.6333 25.061 18.5573 25.0824 18.464C25.1064 18.3707 25.129 18.3067 25.1504 18.272C25.177 18.1733 25.2264 18.016 25.2984 17.8C25.3704 17.5813 25.4197 17.44 25.4464 17.376L25.4824 17.28C25.5117 17.2133 25.5357 17.1493 25.5544 17.088L25.5904 16.996C25.5957 16.98 25.6077 16.9493 25.6264 16.904C25.645 16.856 25.661 16.8213 25.6744 16.8L25.7264 16.684L25.6344 16.604C25.597 16.5667 25.5784 16.5307 25.5784 16.496C25.5784 16.4613 25.6024 16.4293 25.6504 16.4C25.701 16.3707 25.7584 16.3507 25.8224 16.34C25.857 16.3347 25.917 16.332 26.0024 16.332C26.1517 16.332 26.2824 16.3413 26.3944 16.36C26.437 16.368 26.493 16.3893 26.5624 16.424C26.6317 16.456 26.6784 16.4853 26.7024 16.512C26.705 16.5147 26.7104 16.52 26.7184 16.528C26.729 16.536 26.7384 16.54 26.7464 16.54C26.7757 16.556 26.8237 16.6133 26.8904 16.712C26.957 16.8107 26.997 16.892 27.0104 16.956C27.0264 17.036 27.0344 17.116 27.0344 17.196C27.029 17.324 27.0184 17.4387 27.0024 17.54C26.9917 17.6093 26.969 17.6907 26.9344 17.784C26.9024 17.8747 26.869 17.956 26.8344 18.028C26.7997 18.1 26.7797 18.136 26.7744 18.136C26.761 18.136 26.7517 18.14 26.7464 18.148C26.7437 18.1533 26.7424 18.1627 26.7424 18.176C26.737 18.208 26.7117 18.264 26.6664 18.344C26.6237 18.424 26.573 18.5027 26.5144 18.58C26.4557 18.6573 26.4024 18.712 26.3544 18.744C26.2397 18.8693 26.093 18.9667 25.9144 19.036C25.7357 19.108 25.5664 19.144 25.4064 19.144ZM25.4024 18.904C25.5357 18.904 25.6304 18.892 25.6864 18.868C25.761 18.8493 25.845 18.812 25.9384 18.756C26.0317 18.6973 26.1157 18.6307 26.1904 18.556C26.2864 18.4573 26.3664 18.36 26.4304 18.264C26.497 18.1653 26.5624 18.0387 26.6264 17.884C26.669 17.7773 26.7024 17.6667 26.7264 17.552C26.7504 17.4347 26.7624 17.3293 26.7624 17.236C26.7624 17.0787 26.7317 16.948 26.6704 16.844C26.6117 16.74 26.5317 16.6693 26.4304 16.632C26.361 16.6027 26.281 16.588 26.1904 16.588C26.161 16.588 26.1317 16.5893 26.1024 16.592C26.073 16.5947 26.0544 16.5987 26.0464 16.604C26.0144 16.604 25.9797 16.648 25.9424 16.736C25.905 16.8213 25.8704 16.9213 25.8384 17.036C25.8144 17.1293 25.7824 17.224 25.7424 17.32C25.705 17.416 25.673 17.5053 25.6464 17.588C25.5984 17.684 25.5584 17.7813 25.5264 17.88C25.4944 17.9787 25.4757 18.0373 25.4704 18.056C25.465 18.0773 25.4597 18.0947 25.4544 18.108C25.4517 18.1187 25.449 18.128 25.4464 18.136C25.4144 18.2 25.3797 18.3173 25.3424 18.488C25.3077 18.6587 25.2904 18.7787 25.2904 18.848C25.2904 18.8853 25.3277 18.904 25.4024 18.904Z" fill="#F8C617"/>
<path d="M12.303 12.518C12.303 12.566 12.308 12.603 12.318 12.629C12.328 12.655 12.34 12.685 12.354 12.719C12.39 12.695 12.43 12.681 12.474 12.677C12.518 12.677 12.557 12.684 12.591 12.698C12.625 12.71 12.659 12.736 12.693 12.776C12.729 12.814 12.766 12.869 12.804 12.941C12.842 13.011 12.886 13.104 12.936 13.22C12.838 13.398 12.756 13.537 12.69 13.637C12.624 13.735 12.567 13.808 12.519 13.856C12.471 13.904 12.429 13.933 12.393 13.943C12.359 13.953 12.323 13.958 12.285 13.958C12.233 13.958 12.188 13.95 12.15 13.934C12.114 13.916 12.082 13.896 12.054 13.874V14.03C12.052 14.032 12.051 14.036 12.051 14.042C12.051 14.138 12.071 14.211 12.111 14.261C12.153 14.313 12.225 14.339 12.327 14.339C12.391 14.339 12.448 14.321 12.498 14.285C12.548 14.249 12.593 14.202 12.633 14.144C12.675 14.086 12.712 14.021 12.744 13.949C12.778 13.877 12.81 13.805 12.84 13.733C12.872 13.659 12.903 13.589 12.933 13.523C12.963 13.457 12.995 13.402 13.029 13.358C13.101 13.494 13.156 13.603 13.194 13.685C13.234 13.765 13.265 13.826 13.287 13.868C13.309 13.91 13.326 13.938 13.338 13.952C13.35 13.964 13.364 13.97 13.38 13.97C13.424 13.97 13.463 13.962 13.497 13.946C13.531 13.93 13.562 13.911 13.59 13.889L13.683 13.571C13.679 13.575 13.675 13.578 13.671 13.58C13.645 13.598 13.61 13.618 13.566 13.64C13.522 13.66 13.468 13.67 13.404 13.67C13.382 13.67 13.362 13.664 13.344 13.652C13.328 13.638 13.309 13.616 13.287 13.586C13.267 13.554 13.244 13.512 13.218 13.46C13.192 13.408 13.16 13.344 13.122 13.268L13.101 13.226L13.557 12.446L13.263 12.584L13.026 13.064C12.962 12.904 12.916 12.773 12.888 12.671C12.862 12.569 12.838 12.489 12.816 12.431C12.796 12.373 12.77 12.333 12.738 12.311C12.708 12.289 12.656 12.278 12.582 12.278L12.303 12.518ZM14.3981 13.442C14.2901 13.466 14.1991 13.53 14.1251 13.634C14.0751 13.702 14.0501 13.775 14.0501 13.853C14.0501 13.909 14.0611 13.949 14.0831 13.973C14.1051 13.995 14.1381 14.006 14.1821 14.006C14.2441 14.006 14.2941 13.99 14.3321 13.958C14.3581 13.938 14.3831 13.918 14.4071 13.898C14.4311 13.876 14.4541 13.852 14.4761 13.826C14.4841 13.874 14.4951 13.912 14.5091 13.94C14.5251 13.966 14.5431 13.986 14.5631 14C14.5851 14.012 14.6091 14.019 14.6351 14.021C14.6611 14.023 14.6891 14.024 14.7191 14.024H14.7311C14.8431 14.024 14.9371 14.001 15.0131 13.955C15.0891 13.907 15.1321 13.825 15.1421 13.709C15.0721 13.751 15.0041 13.782 14.9381 13.802C14.8741 13.82 14.8151 13.829 14.7611 13.829C14.7351 13.829 14.7141 13.821 14.6981 13.805C14.6581 13.765 14.6381 13.716 14.6381 13.658V13.454L14.5061 13.547C14.5061 13.477 14.4701 13.442 14.3981 13.442ZM14.2541 13.832C14.2421 13.836 14.2311 13.838 14.2211 13.838C14.2051 13.838 14.1951 13.83 14.1911 13.814C14.1911 13.792 14.1981 13.769 14.2121 13.745C14.2261 13.719 14.2421 13.695 14.2601 13.673C14.2801 13.651 14.3011 13.632 14.3231 13.616C14.3471 13.6 14.3681 13.59 14.3861 13.586C14.4101 13.576 14.4291 13.571 14.4431 13.571C14.4651 13.571 14.4761 13.582 14.4761 13.604C14.4761 13.624 14.4671 13.647 14.4491 13.673C14.3791 13.757 14.3141 13.81 14.2541 13.832ZM16.0821 12.68C16.0501 12.69 16.0191 12.72 15.9891 12.77C15.9611 12.82 15.9431 12.876 15.9351 12.938C15.9311 13.076 15.9261 13.189 15.9201 13.277C15.9161 13.363 15.9111 13.434 15.9051 13.49C15.8991 13.546 15.8911 13.592 15.8811 13.628C15.8731 13.662 15.8631 13.696 15.8511 13.73C15.8351 13.768 15.8111 13.799 15.7791 13.823C15.7471 13.847 15.7141 13.859 15.6801 13.859C15.6101 13.859 15.5601 13.81 15.5301 13.712C15.5021 13.772 15.4881 13.827 15.4881 13.877C15.4881 13.905 15.4921 13.93 15.5001 13.952C15.5241 13.976 15.5531 13.994 15.5871 14.006C15.6211 14.018 15.6551 14.024 15.6891 14.024C15.7611 14.02 15.8121 13.998 15.8421 13.958C15.8721 13.918 15.9011 13.862 15.9291 13.79L15.9351 13.811C15.9431 13.833 15.9531 13.856 15.9651 13.88C15.9771 13.904 15.9921 13.927 16.0101 13.949C16.0281 13.969 16.0491 13.986 16.0731 14C16.0971 14.012 16.1261 14.018 16.1601 14.018C16.2901 14.018 16.3991 13.994 16.4871 13.946C16.5451 13.9 16.5741 13.837 16.5741 13.757C16.5261 13.793 16.4661 13.816 16.3941 13.826C16.3241 13.836 16.2591 13.841 16.1991 13.841C16.1791 13.841 16.1641 13.84 16.1541 13.838C16.1461 13.836 16.1331 13.832 16.1151 13.826C16.0931 13.814 16.0821 13.778 16.0821 13.718V12.68ZM16.2711 13.433C16.2711 13.455 16.2841 13.473 16.3101 13.487C16.3361 13.501 16.3691 13.508 16.4091 13.508C16.4491 13.508 16.4821 13.501 16.5081 13.487C16.5341 13.473 16.5471 13.455 16.5471 13.433C16.5471 13.413 16.5341 13.396 16.5081 13.382C16.4821 13.366 16.4491 13.358 16.4091 13.358C16.3691 13.358 16.3361 13.366 16.3101 13.382C16.2841 13.396 16.2711 13.413 16.2711 13.433ZM17.1793 13.418C17.1793 13.49 17.2003 13.553 17.2423 13.607C17.2843 13.661 17.3533 13.688 17.4493 13.688C17.4193 13.778 17.3383 13.823 17.2063 13.823C17.1083 13.823 17.0083 13.802 16.9063 13.76C16.9163 13.8 16.9283 13.833 16.9423 13.859C16.9563 13.885 16.9743 13.906 16.9963 13.922C17.0203 13.938 17.0483 13.951 17.0803 13.961C17.1143 13.971 17.1553 13.981 17.2033 13.991C17.2533 13.991 17.2973 13.983 17.3353 13.967C17.3733 13.951 17.4053 13.932 17.4313 13.91C17.4593 13.886 17.4823 13.862 17.5003 13.838C17.5183 13.812 17.5323 13.79 17.5423 13.772L17.5483 13.76C17.5503 13.756 17.5513 13.753 17.5513 13.751C17.5533 13.749 17.5543 13.748 17.5543 13.748C17.5703 13.8 17.5873 13.841 17.6053 13.871C17.6233 13.901 17.6463 13.928 17.6743 13.952C17.7183 13.974 17.7633 13.99 17.8093 14C17.8553 14.008 17.9023 14.012 17.9503 14.012C18.0023 14.012 18.0483 13.992 18.0883 13.952C18.1303 13.912 18.1513 13.86 18.1513 13.796C18.1353 13.806 18.1103 13.815 18.0763 13.823C18.0443 13.831 18.0053 13.835 17.9593 13.835C17.8573 13.835 17.7773 13.815 17.7193 13.775C17.6613 13.735 17.6323 13.684 17.6323 13.622V13.613L17.7553 13.193L17.7133 13.046L17.5573 13.451C17.5293 13.401 17.4893 13.356 17.4373 13.316C17.3873 13.278 17.3383 13.259 17.2903 13.259C17.2483 13.259 17.2173 13.274 17.1973 13.304L17.1793 13.418ZM17.8423 13.514C17.8423 13.542 17.8533 13.565 17.8753 13.583C17.8973 13.601 17.9243 13.61 17.9563 13.61C17.9883 13.61 18.0153 13.601 18.0373 13.583C18.0593 13.565 18.0703 13.542 18.0703 13.514C18.0703 13.486 18.0593 13.463 18.0373 13.445C18.0153 13.425 17.9883 13.415 17.9563 13.415C17.9243 13.415 17.8973 13.425 17.8753 13.445C17.8533 13.463 17.8423 13.486 17.8423 13.514ZM17.4403 13.562C17.4343 13.58 17.4203 13.589 17.3983 13.589C17.3623 13.589 17.3353 13.572 17.3173 13.538C17.2993 13.504 17.2903 13.472 17.2903 13.442V13.436C17.3023 13.422 17.3153 13.415 17.3293 13.415C17.3413 13.415 17.3533 13.421 17.3653 13.433C17.3793 13.445 17.3913 13.459 17.4013 13.475C17.4133 13.491 17.4223 13.508 17.4283 13.526C17.4363 13.542 17.4403 13.554 17.4403 13.562ZM19.1065 12.68C19.0745 12.69 19.0435 12.72 19.0135 12.77C18.9855 12.82 18.9675 12.876 18.9595 12.938C18.9555 13.076 18.9505 13.189 18.9445 13.277C18.9405 13.363 18.9355 13.434 18.9295 13.49C18.9235 13.546 18.9155 13.592 18.9055 13.628C18.8975 13.662 18.8875 13.696 18.8755 13.73C18.8595 13.768 18.8355 13.799 18.8035 13.823C18.7715 13.847 18.7385 13.859 18.7045 13.859C18.6345 13.859 18.5845 13.81 18.5545 13.712C18.5265 13.772 18.5125 13.827 18.5125 13.877C18.5125 13.905 18.5165 13.93 18.5245 13.952C18.5485 13.976 18.5775 13.994 18.6115 14.006C18.6455 14.018 18.6795 14.024 18.7135 14.024C18.7855 14.02 18.8365 13.998 18.8665 13.958C18.8965 13.918 18.9255 13.862 18.9535 13.79L18.9595 13.811C18.9675 13.833 18.9775 13.856 18.9895 13.88C19.0015 13.904 19.0165 13.927 19.0345 13.949C19.0525 13.969 19.0735 13.986 19.0975 14C19.1215 14.012 19.1505 14.018 19.1845 14.018C19.3145 14.018 19.4235 13.994 19.5115 13.946C19.5695 13.9 19.5985 13.837 19.5985 13.757C19.5505 13.793 19.4905 13.816 19.4185 13.826C19.3485 13.836 19.2835 13.841 19.2235 13.841C19.2035 13.841 19.1885 13.84 19.1785 13.838C19.1705 13.836 19.1575 13.832 19.1395 13.826C19.1175 13.814 19.1065 13.778 19.1065 13.718V12.68ZM19.2955 13.433C19.2955 13.455 19.3085 13.473 19.3345 13.487C19.3605 13.501 19.3935 13.508 19.4335 13.508C19.4735 13.508 19.5065 13.501 19.5325 13.487C19.5585 13.473 19.5715 13.455 19.5715 13.433C19.5715 13.413 19.5585 13.396 19.5325 13.382C19.5065 13.366 19.4735 13.358 19.4335 13.358C19.3935 13.358 19.3605 13.366 19.3345 13.382C19.3085 13.396 19.2955 13.413 19.2955 13.433ZM20.4917 13.349L20.4827 13.37C20.4687 13.402 20.4557 13.422 20.4437 13.43C20.4337 13.438 20.4217 13.442 20.4077 13.442C20.4037 13.44 20.3957 13.435 20.3837 13.427C20.3737 13.419 20.3607 13.411 20.3447 13.403C20.3307 13.393 20.3157 13.385 20.2997 13.379C20.2857 13.371 20.2727 13.367 20.2607 13.367H20.2487C20.2267 13.367 20.2087 13.378 20.1947 13.4C20.1827 13.422 20.1767 13.444 20.1767 13.466C20.1767 13.502 20.1897 13.531 20.2157 13.553C20.2417 13.573 20.2727 13.584 20.3087 13.586C20.3047 13.626 20.2887 13.668 20.2607 13.712C20.2307 13.754 20.2027 13.775 20.1767 13.775C20.1307 13.775 20.1037 13.721 20.0957 13.613V13.574C20.0957 13.556 20.0967 13.544 20.0987 13.538L20.2157 12.602L19.9817 12.833V13.058C19.9817 13.13 19.9837 13.2 19.9877 13.268C19.9917 13.336 19.9957 13.405 19.9997 13.475V13.529C20.0117 13.687 20.0237 13.79 20.0357 13.838C20.0597 13.938 20.1077 13.988 20.1797 13.988C20.2257 13.988 20.2637 13.971 20.2937 13.937C20.3257 13.903 20.3507 13.863 20.3687 13.817C20.3867 13.769 20.3997 13.722 20.4077 13.676C20.4157 13.628 20.4197 13.592 20.4197 13.568C20.4197 13.558 20.4237 13.552 20.4317 13.55C20.4397 13.546 20.4487 13.541 20.4587 13.535C20.4687 13.527 20.4777 13.515 20.4857 13.499C20.4937 13.483 20.4977 13.456 20.4977 13.418C20.4977 13.412 20.4967 13.403 20.4947 13.391C20.4947 13.379 20.4937 13.365 20.4917 13.349Z" fill="#49A926"/>
</g>
<defs>
<radialGradient id="paint0_radial_103_35" cx="0" cy="0" r="1" gradientUnits="userSpaceOnUse" gradientTransform="translate(11.5208 5.89919) rotate(67.7174) scale(9.50529 9.87533)">
<stop stop-color="white"/>
<stop offset="1" stop-color="white" stop-opacity="0"/>
</radialGradient>
<clipPath id="clip0_103_35">
<rect width="32" height="32" fill="white"/>
</clipPath>
</defs>
</svg>
