<svg width="647" height="153" viewBox="0 0 647 153" fill="none" xmlns="http://www.w3.org/2000/svg"><path d="M25.837 16.737c1.889.672 3.33 1.679 4.322 3.021.992 1.311 1.489 2.926 1.489 4.844 0 3.006-1.2 5.387-3.602 7.146-2.37 1.726-5.731 2.59-10.085 2.59H0V.767h17.048c4.163 0 7.38.767 9.653 2.301 2.305 1.535 3.458 3.693 3.458 6.475 0 1.598-.384 3.005-1.153 4.22-.736 1.215-1.793 2.206-3.17 2.973zm-14.695-3.07h4.802c1.857 0 2.785-.814 2.785-2.445 0-1.694-.928-2.542-2.785-2.542H11.14v4.988zm6.29 12.757c1.858 0 2.786-.895 2.786-2.685 0-1.727-.928-2.59-2.785-2.59h-6.291v5.275h6.29z" fill="url(#paint0_linear_330_22874)"/><path d="M59.173 17.073l9.941 17.264H56.34l-6.435-12.133h-3.17v12.133H35.401V.767h11.334v12.517h3.458L57.348.767h11.814l-9.989 16.306z" fill="url(#paint1_linear_330_22874)"/><path d="M106.027.767L92.533 26.041c-1.601 3.005-3.57 5.291-5.907 6.858-2.305 1.566-4.85 2.35-7.636 2.35-2.145 0-4.322-.448-6.531-1.343l2.641-8.153c1.409.384 2.561.576 3.458.576.832 0 1.537-.144 2.113-.432.608-.288 1.184-.767 1.729-1.439L69.53.768h11.957l6.676 14.147L95.078.767h10.949z" fill="url(#paint2_linear_330_22874)"/><path d="M124.77 35.105c-3.554 0-6.755-.736-9.605-2.206-2.849-1.503-5.09-3.581-6.723-6.235-1.601-2.685-2.401-5.723-2.401-9.112 0-3.389.8-6.41 2.401-9.064 1.633-2.685 3.874-4.763 6.723-6.234C118.015.751 121.216 0 124.77 0c3.266 0 6.179.575 8.741 1.726 2.561 1.151 4.674 2.814 6.339 4.988l-7.156 6.378c-2.081-2.621-4.53-3.932-7.348-3.932-2.369 0-4.274.767-5.714 2.302-1.441 1.502-2.161 3.533-2.161 6.09 0 2.558.72 4.604 2.161 6.139 1.44 1.503 3.345 2.254 5.714 2.254 2.818 0 5.267-1.31 7.348-3.933l7.156 6.379c-1.665 2.174-3.778 3.836-6.339 4.987-2.562 1.151-5.475 1.727-8.741 1.727z" fill="url(#paint3_linear_330_22874)"/><path d="M176.41.767v33.57h-11.333V21.965h-10.469v12.373h-11.334V.767h11.334v11.894h10.469V.767h11.333z" fill="url(#paint4_linear_330_22874)"/><path d="M206.111 28.487h-12.774l-2.258 5.85h-11.525L194.249.767h11.141l14.696 33.57h-11.718l-2.257-5.85zm-3.122-8.153l-3.265-8.44-3.266 8.44h6.531z" fill="url(#paint5_linear_330_22874)"/><path d="M250.752.767v33.57h-11.141v-7.96h-3.026l-5.138 7.96h-11.862l6.627-9.591c-2.177-1.023-3.858-2.462-5.042-4.316-1.153-1.886-1.729-4.108-1.729-6.666 0-2.654.624-4.956 1.873-6.906 1.28-1.95 3.089-3.453 5.426-4.508 2.338-1.055 5.091-1.583 8.26-1.583h15.752zm-15.559 8.729c-2.882 0-4.323 1.358-4.323 4.076 0 2.845 1.441 4.268 4.323 4.268h4.418V9.496h-4.418z" fill="url(#paint6_linear_330_22874)"/><path d="M294.602 17.073l9.941 17.264h-12.774l-6.436-12.133h-3.169v12.133H270.83V.767h11.334v12.517h3.458L292.777.767h11.814l-9.989 16.306z" fill="url(#paint7_linear_330_22874)"/><path d="M341.456.767l-13.494 25.274c-1.601 3.005-3.57 5.291-5.907 6.858-2.305 1.566-4.851 2.35-7.636 2.35-2.145 0-4.322-.448-6.531-1.343l2.641-8.153c1.409.384 2.561.576 3.458.576.832 0 1.537-.144 2.113-.432.608-.288 1.184-.767 1.729-1.439L304.958.768h11.958l6.676 14.147L330.507.767h10.949z" fill="url(#paint8_linear_330_22874)"/><path d="M353.914.72l4.898 7.912L363.711.72h13.11L365.92 16.737l11.909 17.6h-13.35l-5.667-8.68-5.571 8.68h-13.014l11.814-17.072L340.947.719h12.967z" fill="url(#paint9_linear_330_22874)"/><path d="M413.152.767v33.57h-11.333V21.965H391.35v12.373h-11.334V.767h11.334v11.894h10.469V.767h11.333z" fill="url(#paint10_linear_330_22874)"/><path d="M448.616.767v33.57h-11.142v-7.96h-3.025l-5.139 7.96h-11.862l6.628-9.591c-2.177-1.023-3.858-2.462-5.043-4.316-1.152-1.886-1.729-4.108-1.729-6.666 0-2.654.625-4.956 1.873-6.906 1.281-1.95 3.09-3.453 5.427-4.508 2.337-1.055 5.09-1.583 8.26-1.583h15.752zm-15.56 8.729c-2.881 0-4.322 1.358-4.322 4.076 0 2.845 1.441 4.268 4.322 4.268h4.418V9.496h-4.418z" fill="url(#paint11_linear_330_22874)"/><path d="M0 59.715h11.142V77.17l11.573-17.456h10.662v33.57H22.235V75.877L10.709 93.285H0v-33.57z" fill="url(#paint12_linear_330_22874)"/><path d="M87.362 59.715L73.867 84.988c-1.6 3.006-3.57 5.292-5.907 6.858-2.305 1.567-4.85 2.35-7.635 2.35-2.146 0-4.323-.447-6.532-1.343l2.642-8.152c1.408.383 2.56.575 3.457.575.833 0 1.537-.144 2.113-.431.609-.288 1.185-.768 1.73-1.44l-12.871-23.69h11.958l6.675 14.147 6.916-14.147h10.949z" fill="url(#paint13_linear_330_22874)"/><path d="M121.46 58.948c3.522 0 6.691.75 9.509 2.254 2.817 1.502 5.026 3.596 6.627 6.282 1.601 2.654 2.401 5.659 2.401 9.016s-.8 6.378-2.401 9.064c-1.601 2.654-3.81 4.732-6.627 6.234-2.818 1.503-5.987 2.254-9.509 2.254-3.01 0-5.763-.543-8.26-1.63-2.497-1.12-4.594-2.67-6.291-4.652-1.697-1.982-2.866-4.268-3.506-6.858h-2.545v12.373H89.716v-33.57h11.142v11.893h2.641c.704-2.525 1.905-4.731 3.602-6.618 1.697-1.918 3.778-3.405 6.243-4.46 2.465-1.055 5.17-1.582 8.116-1.582zm0 25.944a6.728 6.728 0 003.602-1.007c1.088-.703 1.937-1.678 2.545-2.925.64-1.279.96-2.765.96-4.46 0-1.695-.32-3.165-.96-4.412-.608-1.279-1.457-2.254-2.545-2.925a6.502 6.502 0 00-3.602-1.055c-1.345 0-2.561.351-3.65 1.054-1.088.672-1.953 1.647-2.593 2.926-.608 1.247-.913 2.718-.913 4.412 0 1.695.305 3.181.913 4.46.64 1.247 1.505 2.222 2.593 2.925 1.089.672 2.305 1.007 3.65 1.007z" fill="url(#paint14_linear_330_22874)"/><path d="M172.271 68.491h-9.845v24.794h-11.141V68.491h-9.845v-8.776h30.831v8.776z" fill="url(#paint15_linear_330_22874)"/><path d="M209.145 59.715v33.57h-11.333V80.912h-10.469v12.373h-11.334v-33.57h11.334v11.893h10.469V59.715h11.333z" fill="url(#paint16_linear_330_22874)"/><path d="M238.846 87.434h-12.775l-2.257 5.851h-11.525l14.695-33.57h11.141l14.696 33.57h-11.718l-2.257-5.85zm-3.122-8.153l-3.265-8.44-3.266 8.44h6.531z" fill="url(#paint17_linear_330_22874)"/><path d="M283.487 59.715v33.57h-11.141v-7.96h-3.026l-5.138 7.96H252.32l6.627-9.591c-2.177-1.023-3.858-2.462-5.042-4.317-1.153-1.886-1.729-4.108-1.729-6.666 0-2.653.624-4.955 1.873-6.906 1.28-1.95 3.089-3.452 5.426-4.508 2.337-1.055 5.091-1.582 8.26-1.582h15.752zm-15.56 8.728c-2.881 0-4.322 1.359-4.322 4.076 0 2.846 1.441 4.269 4.322 4.269h4.419v-8.345h-4.419z" fill="url(#paint18_linear_330_22874)"/><path d="M327.577 87.434h-12.774l-2.257 5.851H301.02l14.695-33.57h11.142l14.695 33.57h-11.718l-2.257-5.85zm-3.121-8.153l-3.266-8.44-3.266 8.44h6.532z" fill="url(#paint19_linear_330_22874)"/><path d="M371.589 68.491h-9.845v24.794h-11.142V68.491h-9.845v-8.776h30.832v8.776z" fill="url(#paint20_linear_330_22874)"/><path d="M405.341 93.285l-.096-15.298-7.3 12.277h-4.994l-7.3-11.75v14.771h-10.325v-33.57h9.317l10.949 17.888 10.662-17.888h9.316l.096 33.57h-10.325z" fill="url(#paint21_linear_330_22874)"/><path d="M438.664 94.052c-3.617 0-6.867-.75-9.749-2.254-2.881-1.502-5.138-3.58-6.771-6.234-1.633-2.686-2.449-5.707-2.449-9.064s.816-6.362 2.449-9.016c1.633-2.686 3.89-4.78 6.771-6.282 2.882-1.503 6.132-2.254 9.749-2.254 3.618 0 6.868.75 9.749 2.254 2.882 1.502 5.139 3.596 6.771 6.282 1.633 2.654 2.45 5.659 2.45 9.016s-.817 6.378-2.45 9.064c-1.632 2.654-3.889 4.732-6.771 6.234-2.881 1.503-6.131 2.254-9.749 2.254zm0-9.16c1.409 0 2.674-.335 3.794-1.007 1.153-.703 2.065-1.678 2.738-2.925.672-1.279 1.008-2.765 1.008-4.46 0-1.695-.336-3.165-1.008-4.412-.673-1.279-1.585-2.254-2.738-2.925-1.12-.704-2.385-1.055-3.794-1.055-1.408 0-2.689.351-3.842 1.054-1.12.672-2.017 1.647-2.689 2.926-.672 1.247-1.008 2.718-1.008 4.412 0 1.695.336 3.181 1.008 4.46.672 1.247 1.569 2.222 2.689 2.925 1.153.672 2.434 1.007 3.842 1.007z" fill="url(#paint22_linear_330_22874)"/><path d="M478.617 94.052c-3.554 0-6.755-.735-9.605-2.206-2.849-1.502-5.09-3.58-6.723-6.234-1.601-2.686-2.401-5.723-2.401-9.112 0-3.389.8-6.41 2.401-9.064 1.633-2.686 3.874-4.764 6.723-6.234 2.85-1.503 6.051-2.254 9.605-2.254 3.266 0 6.179.575 8.74 1.726 2.562 1.151 4.675 2.814 6.34 4.988l-7.156 6.378c-2.081-2.622-4.53-3.933-7.348-3.933-2.369 0-4.274.768-5.714 2.302-1.441 1.503-2.162 3.533-2.162 6.091 0 2.558.721 4.604 2.162 6.138 1.44 1.503 3.345 2.254 5.714 2.254 2.818 0 5.267-1.31 7.348-3.932l7.156 6.378c-1.665 2.174-3.778 3.837-6.34 4.988-2.561 1.15-5.474 1.726-8.74 1.726z" fill="url(#paint23_linear_330_22874)"/><path d="M539.447 76.356c0 4.412-1.473 7.913-4.418 10.503-2.946 2.558-7.236 4.028-12.871 4.412v3.74h-10.373v-3.788c-5.667-.48-9.973-1.982-12.918-4.508-2.914-2.526-4.371-5.979-4.371-10.359s1.457-7.817 4.371-10.31c2.945-2.527 7.251-4.03 12.918-4.509v-3.5h10.373v3.5c5.667.416 9.957 1.903 12.871 4.46 2.945 2.526 4.418 5.979 4.418 10.36zm-17.289 6.09c2.241-.319 3.858-.958 4.851-1.918.992-.99 1.488-2.397 1.488-4.22 0-1.79-.512-3.165-1.536-4.124-.993-.96-2.594-1.599-4.803-1.918v12.18zm-16.712-6.09c0 1.759.512 3.117 1.537 4.077 1.056.959 2.657 1.614 4.802 1.966V70.314c-2.273.32-3.906.959-4.898 1.918-.961.927-1.441 2.302-1.441 4.124z" fill="url(#paint24_linear_330_22874)"/><path d="M571.453 84.749v8.536h-27.95v-33.57h27.326v8.536h-16.184v3.933h14.215v8.153h-14.215v4.412h16.808z" fill="url(#paint25_linear_330_22874)"/><path d="M592.234 59.715c3.106 0 5.811.511 8.117 1.535 2.305 1.023 4.082 2.493 5.33 4.412 1.249 1.918 1.873 4.156 1.873 6.714 0 2.557-.624 4.795-1.873 6.714-1.248 1.918-3.025 3.389-5.33 4.412-2.306 1.023-5.011 1.534-8.117 1.534h-4.85v8.25h-11.333V59.714h16.183zm-.72 16.593c1.537 0 2.689-.336 3.458-1.007.768-.703 1.152-1.678 1.152-2.925 0-1.247-.384-2.206-1.152-2.878-.769-.703-1.921-1.055-3.458-1.055h-4.13v7.865h4.13z" fill="url(#paint26_linear_330_22874)"/><path d="M633.025 87.434h-12.774l-2.257 5.851h-11.526l14.695-33.57h11.142L647 93.285h-11.718l-2.257-5.85zm-3.121-8.153l-3.266-8.44-3.266 8.44h6.532z" fill="url(#paint27_linear_330_22874)"/><path d="M25.837 134.632c1.889.672 3.33 1.679 4.322 3.022.992 1.31 1.489 2.925 1.489 4.843 0 3.006-1.2 5.388-3.602 7.146-2.37 1.726-5.731 2.59-10.085 2.59H0v-33.57h17.048c4.163 0 7.38.767 9.653 2.301 2.305 1.535 3.458 3.693 3.458 6.475 0 1.598-.384 3.005-1.153 4.22-.736 1.215-1.793 2.206-3.17 2.973zm-14.695-3.069h4.802c1.857 0 2.785-.815 2.785-2.446 0-1.694-.928-2.542-2.785-2.542H11.14v4.988zm6.29 12.757c1.858 0 2.786-.896 2.786-2.686 0-1.726-.928-2.59-2.785-2.59h-6.291v5.276h6.29z" fill="url(#paint28_linear_330_22874)"/><path d="M52.786 153c-3.618 0-6.867-.751-9.749-2.254-2.881-1.503-5.138-3.581-6.771-6.234-1.633-2.686-2.45-5.707-2.45-9.064s.817-6.363 2.45-9.016c1.633-2.686 3.89-4.78 6.771-6.283 2.882-1.502 6.131-2.254 9.749-2.254 3.618 0 6.867.752 9.749 2.254 2.881 1.503 5.138 3.597 6.771 6.283 1.633 2.653 2.45 5.659 2.45 9.016s-.817 6.378-2.45 9.064c-1.633 2.653-3.89 4.731-6.771 6.234-2.882 1.503-6.131 2.254-9.749 2.254zm0-9.16c1.409 0 2.673-.336 3.794-1.007 1.152-.703 2.065-1.678 2.737-2.925.672-1.279 1.009-2.766 1.009-4.46 0-1.695-.337-3.166-1.009-4.412-.672-1.279-1.585-2.254-2.737-2.926-1.12-.703-2.385-1.055-3.794-1.055-1.409 0-2.69.352-3.842 1.055-1.12.672-2.017 1.647-2.69 2.926-.672 1.246-1.008 2.717-1.008 4.412 0 1.694.336 3.181 1.009 4.46.672 1.247 1.569 2.222 2.69 2.925 1.152.671 2.432 1.007 3.841 1.007z" fill="url(#paint29_linear_330_22874)"/><path d="M92.739 153c-3.554 0-6.756-.735-9.605-2.206-2.85-1.503-5.09-3.581-6.723-6.235-1.601-2.685-2.401-5.722-2.401-9.111 0-3.389.8-6.411 2.4-9.064 1.633-2.686 3.875-4.764 6.724-6.235 2.85-1.502 6.051-2.254 9.605-2.254 3.265 0 6.179.576 8.74 1.727 2.561 1.151 4.674 2.813 6.339 4.987l-7.155 6.379c-2.081-2.622-4.53-3.933-7.348-3.933-2.37 0-4.274.767-5.715 2.302-1.44 1.503-2.16 3.533-2.16 6.091 0 2.557.72 4.603 2.16 6.138 1.44 1.503 3.346 2.254 5.715 2.254 2.817 0 5.267-1.311 7.348-3.932l7.155 6.378c-1.665 2.174-3.778 3.837-6.339 4.988-2.561 1.15-5.475 1.726-8.74 1.726z" fill="url(#paint30_linear_330_22874)"/><path d="M139.63 127.439h-9.845v24.794h-11.141v-24.794h-9.845v-8.776h30.831v8.776z" fill="url(#paint31_linear_330_22874)"/><path d="M159.995 153c-3.618 0-6.867-.751-9.749-2.254-2.881-1.503-5.138-3.581-6.771-6.234-1.633-2.686-2.449-5.707-2.449-9.064s.816-6.363 2.449-9.016c1.633-2.686 3.89-4.78 6.771-6.283 2.882-1.502 6.131-2.254 9.749-2.254 3.618 0 6.868.752 9.749 2.254 2.882 1.503 5.139 3.597 6.771 6.283 1.633 2.653 2.45 5.659 2.45 9.016s-.817 6.378-2.45 9.064c-1.632 2.653-3.889 4.731-6.771 6.234-2.881 1.503-6.131 2.254-9.749 2.254zm0-9.16c1.409 0 2.674-.336 3.794-1.007 1.153-.703 2.065-1.678 2.737-2.925.673-1.279 1.009-2.766 1.009-4.46 0-1.695-.336-3.166-1.009-4.412-.672-1.279-1.584-2.254-2.737-2.926-1.12-.703-2.385-1.055-3.794-1.055-1.408 0-2.689.352-3.842 1.055-1.12.672-2.017 1.647-2.689 2.926-.672 1.246-1.008 2.717-1.008 4.412 0 1.694.336 3.181 1.008 4.46.672 1.247 1.569 2.222 2.689 2.925 1.153.671 2.434 1.007 3.842 1.007z" fill="url(#paint32_linear_330_22874)"/><path d="M206.527 134.968l9.941 17.265h-12.774l-6.435-12.134h-3.17v12.134h-11.333v-33.57h11.333v12.516h3.458l7.155-12.516h11.814l-9.989 16.305z" fill="url(#paint33_linear_330_22874)"/><path d="M241.566 146.382h-12.774l-2.258 5.851h-11.525l14.695-33.57h11.142l14.695 33.57h-11.718l-2.257-5.851zm-3.122-8.153l-3.265-8.44-3.266 8.44h6.531z" fill="url(#paint34_linear_330_22874)"/><defs><linearGradient id="paint0_linear_330_22874" x1="0" y1="76.932" x2="647.32" y2="76.932" gradientUnits="userSpaceOnUse"><stop stop-color="#E5B50A"/><stop offset="1" stop-color="#5B9D09"/></linearGradient><linearGradient id="paint1_linear_330_22874" x1="0" y1="76.932" x2="647.32" y2="76.932" gradientUnits="userSpaceOnUse"><stop stop-color="#E5B50A"/><stop offset="1" stop-color="#5B9D09"/></linearGradient><linearGradient id="paint2_linear_330_22874" x1="0" y1="76.932" x2="647.32" y2="76.932" gradientUnits="userSpaceOnUse"><stop stop-color="#E5B50A"/><stop offset="1" stop-color="#5B9D09"/></linearGradient><linearGradient id="paint3_linear_330_22874" x1="0" y1="76.932" x2="647.32" y2="76.932" gradientUnits="userSpaceOnUse"><stop stop-color="#E5B50A"/><stop offset="1" stop-color="#5B9D09"/></linearGradient><linearGradient id="paint4_linear_330_22874" x1="0" y1="76.932" x2="647.32" y2="76.932" gradientUnits="userSpaceOnUse"><stop stop-color="#E5B50A"/><stop offset="1" stop-color="#5B9D09"/></linearGradient><linearGradient id="paint5_linear_330_22874" x1="0" y1="76.932" x2="647.32" y2="76.932" gradientUnits="userSpaceOnUse"><stop stop-color="#E5B50A"/><stop offset="1" stop-color="#5B9D09"/></linearGradient><linearGradient id="paint6_linear_330_22874" x1="0" y1="76.932" x2="647.32" y2="76.932" gradientUnits="userSpaceOnUse"><stop stop-color="#E5B50A"/><stop offset="1" stop-color="#5B9D09"/></linearGradient><linearGradient id="paint7_linear_330_22874" x1="0" y1="76.932" x2="647.32" y2="76.932" gradientUnits="userSpaceOnUse"><stop stop-color="#E5B50A"/><stop offset="1" stop-color="#5B9D09"/></linearGradient><linearGradient id="paint8_linear_330_22874" x1="0" y1="76.932" x2="647.32" y2="76.932" gradientUnits="userSpaceOnUse"><stop stop-color="#E5B50A"/><stop offset="1" stop-color="#5B9D09"/></linearGradient><linearGradient id="paint9_linear_330_22874" x1="0" y1="76.932" x2="647.32" y2="76.932" gradientUnits="userSpaceOnUse"><stop stop-color="#E5B50A"/><stop offset="1" stop-color="#5B9D09"/></linearGradient><linearGradient id="paint10_linear_330_22874" x1="0" y1="76.932" x2="647.32" y2="76.932" gradientUnits="userSpaceOnUse"><stop stop-color="#E5B50A"/><stop offset="1" stop-color="#5B9D09"/></linearGradient><linearGradient id="paint11_linear_330_22874" x1="0" y1="76.932" x2="647.32" y2="76.932" gradientUnits="userSpaceOnUse"><stop stop-color="#E5B50A"/><stop offset="1" stop-color="#5B9D09"/></linearGradient><linearGradient id="paint12_linear_330_22874" x1="0" y1="76.932" x2="647.32" y2="76.932" gradientUnits="userSpaceOnUse"><stop stop-color="#E5B50A"/><stop offset="1" stop-color="#5B9D09"/></linearGradient><linearGradient id="paint13_linear_330_22874" x1="0" y1="76.932" x2="647.32" y2="76.932" gradientUnits="userSpaceOnUse"><stop stop-color="#E5B50A"/><stop offset="1" stop-color="#5B9D09"/></linearGradient><linearGradient id="paint14_linear_330_22874" x1="0" y1="76.932" x2="647.32" y2="76.932" gradientUnits="userSpaceOnUse"><stop stop-color="#E5B50A"/><stop offset="1" stop-color="#5B9D09"/></linearGradient><linearGradient id="paint15_linear_330_22874" x1="0" y1="76.932" x2="647.32" y2="76.932" gradientUnits="userSpaceOnUse"><stop stop-color="#E5B50A"/><stop offset="1" stop-color="#5B9D09"/></linearGradient><linearGradient id="paint16_linear_330_22874" x1="0" y1="76.932" x2="647.32" y2="76.932" gradientUnits="userSpaceOnUse"><stop stop-color="#E5B50A"/><stop offset="1" stop-color="#5B9D09"/></linearGradient><linearGradient id="paint17_linear_330_22874" x1="0" y1="76.932" x2="647.32" y2="76.932" gradientUnits="userSpaceOnUse"><stop stop-color="#E5B50A"/><stop offset="1" stop-color="#5B9D09"/></linearGradient><linearGradient id="paint18_linear_330_22874" x1="0" y1="76.932" x2="647.32" y2="76.932" gradientUnits="userSpaceOnUse"><stop stop-color="#E5B50A"/><stop offset="1" stop-color="#5B9D09"/></linearGradient><linearGradient id="paint19_linear_330_22874" x1="0" y1="76.932" x2="647.32" y2="76.932" gradientUnits="userSpaceOnUse"><stop stop-color="#E5B50A"/><stop offset="1" stop-color="#5B9D09"/></linearGradient><linearGradient id="paint20_linear_330_22874" x1="0" y1="76.932" x2="647.32" y2="76.932" gradientUnits="userSpaceOnUse"><stop stop-color="#E5B50A"/><stop offset="1" stop-color="#5B9D09"/></linearGradient><linearGradient id="paint21_linear_330_22874" x1="0" y1="76.932" x2="647.32" y2="76.932" gradientUnits="userSpaceOnUse"><stop stop-color="#E5B50A"/><stop offset="1" stop-color="#5B9D09"/></linearGradient><linearGradient id="paint22_linear_330_22874" x1="0" y1="76.932" x2="647.32" y2="76.932" gradientUnits="userSpaceOnUse"><stop stop-color="#E5B50A"/><stop offset="1" stop-color="#5B9D09"/></linearGradient><linearGradient id="paint23_linear_330_22874" x1="0" y1="76.932" x2="647.32" y2="76.932" gradientUnits="userSpaceOnUse"><stop stop-color="#E5B50A"/><stop offset="1" stop-color="#5B9D09"/></linearGradient><linearGradient id="paint24_linear_330_22874" x1="0" y1="76.932" x2="647.32" y2="76.932" gradientUnits="userSpaceOnUse"><stop stop-color="#E5B50A"/><stop offset="1" stop-color="#5B9D09"/></linearGradient><linearGradient id="paint25_linear_330_22874" x1="0" y1="76.932" x2="647.32" y2="76.932" gradientUnits="userSpaceOnUse"><stop stop-color="#E5B50A"/><stop offset="1" stop-color="#5B9D09"/></linearGradient><linearGradient id="paint26_linear_330_22874" x1="0" y1="76.932" x2="647.32" y2="76.932" gradientUnits="userSpaceOnUse"><stop stop-color="#E5B50A"/><stop offset="1" stop-color="#5B9D09"/></linearGradient><linearGradient id="paint27_linear_330_22874" x1="0" y1="76.932" x2="647.32" y2="76.932" gradientUnits="userSpaceOnUse"><stop stop-color="#E5B50A"/><stop offset="1" stop-color="#5B9D09"/></linearGradient><linearGradient id="paint28_linear_330_22874" x1="0" y1="76.932" x2="647.32" y2="76.932" gradientUnits="userSpaceOnUse"><stop stop-color="#E5B50A"/><stop offset="1" stop-color="#5B9D09"/></linearGradient><linearGradient id="paint29_linear_330_22874" x1="0" y1="76.932" x2="647.32" y2="76.932" gradientUnits="userSpaceOnUse"><stop stop-color="#E5B50A"/><stop offset="1" stop-color="#5B9D09"/></linearGradient><linearGradient id="paint30_linear_330_22874" x1="0" y1="76.932" x2="647.32" y2="76.932" gradientUnits="userSpaceOnUse"><stop stop-color="#E5B50A"/><stop offset="1" stop-color="#5B9D09"/></linearGradient><linearGradient id="paint31_linear_330_22874" x1="0" y1="76.932" x2="647.32" y2="76.932" gradientUnits="userSpaceOnUse"><stop stop-color="#E5B50A"/><stop offset="1" stop-color="#5B9D09"/></linearGradient><linearGradient id="paint32_linear_330_22874" x1="0" y1="76.932" x2="647.32" y2="76.932" gradientUnits="userSpaceOnUse"><stop stop-color="#E5B50A"/><stop offset="1" stop-color="#5B9D09"/></linearGradient><linearGradient id="paint33_linear_330_22874" x1="0" y1="76.932" x2="647.32" y2="76.932" gradientUnits="userSpaceOnUse"><stop stop-color="#E5B50A"/><stop offset="1" stop-color="#5B9D09"/></linearGradient><linearGradient id="paint34_linear_330_22874" x1="0" y1="76.932" x2="647.32" y2="76.932" gradientUnits="userSpaceOnUse"><stop stop-color="#E5B50A"/><stop offset="1" stop-color="#5B9D09"/></linearGradient></defs></svg>