<svg width="54" height="54" viewBox="0 0 54 54" fill="none" xmlns="http://www.w3.org/2000/svg">
<rect width="54" height="54" rx="27" fill="#F3E3A9"/>
<path d="M27 15.9398C30.5783 15.9398 31.0663 15.9398 32.5301 15.9398C33.8313 15.9398 34.4819 16.2651 34.9699 16.4277C35.6205 16.753 36.1084 16.9157 36.5964 17.4036C37.0843 17.8916 37.4096 18.3795 37.5723 19.0301C37.7349 19.5181 37.8976 20.1687 38.0602 21.4699C38.0602 22.9337 38.0602 23.259 38.0602 27C38.0602 30.741 38.0602 31.0663 38.0602 32.5301C38.0602 33.8313 37.7349 34.4819 37.5723 34.9699C37.247 35.6205 37.0843 36.1084 36.5964 36.5964C36.1084 37.0843 35.6205 37.4096 34.9699 37.5723C34.4819 37.7349 33.8313 37.8976 32.5301 38.0602C31.0663 38.0602 30.741 38.0602 27 38.0602C23.259 38.0602 22.9337 38.0602 21.4699 38.0602C20.1687 38.0602 19.5181 37.7349 19.0301 37.5723C18.3795 37.247 17.8916 37.0843 17.4036 36.5964C16.9157 36.1084 16.5904 35.6205 16.4277 34.9699C16.2651 34.4819 16.1024 33.8313 15.9398 32.5301C15.9398 31.0663 15.9398 30.741 15.9398 27C15.9398 23.259 15.9398 22.9337 15.9398 21.4699C15.9398 20.1687 16.2651 19.5181 16.4277 19.0301C16.753 18.3795 16.9157 17.8916 17.4036 17.4036C17.8916 16.9157 18.3795 16.5904 19.0301 16.4277C19.5181 16.2651 20.1687 16.1024 21.4699 15.9398C22.9337 15.9398 23.4217 15.9398 27 15.9398ZM27 13.5C23.259 13.5 22.9337 13.5 21.4699 13.5C20.006 13.5 19.0301 13.8253 18.2169 14.1506C17.4036 14.4759 16.5904 14.9639 15.7771 15.7771C14.9639 16.5904 14.6386 17.241 14.1506 18.2169C13.8253 19.0301 13.6627 20.006 13.5 21.4699C13.5 22.9337 13.5 23.4217 13.5 27C13.5 30.741 13.5 31.0663 13.5 32.5301C13.5 33.994 13.8253 34.9699 14.1506 35.7831C14.4759 36.5964 14.9639 37.4096 15.7771 38.2229C16.5904 39.0361 17.241 39.3614 18.2169 39.8494C19.0301 40.1747 20.006 40.3373 21.4699 40.5C22.9337 40.5 23.4217 40.5 27 40.5C30.5783 40.5 31.0663 40.5 32.5301 40.5C33.994 40.5 34.9699 40.1747 35.7831 39.8494C36.5964 39.5241 37.4096 39.0361 38.2229 38.2229C39.0361 37.4096 39.3614 36.759 39.8494 35.7831C40.1747 34.9699 40.3373 33.994 40.5 32.5301C40.5 31.0663 40.5 30.5783 40.5 27C40.5 23.4217 40.5 22.9337 40.5 21.4699C40.5 20.006 40.1747 19.0301 39.8494 18.2169C39.5241 17.4036 39.0361 16.5904 38.2229 15.7771C37.4096 14.9639 36.759 14.6386 35.7831 14.1506C34.9699 13.8253 33.994 13.6627 32.5301 13.5C31.0663 13.5 30.741 13.5 27 13.5Z" fill="#334E0F"/>
<path d="M27 20.006C23.0964 20.006 20.006 23.0964 20.006 27C20.006 30.9036 23.0964 33.994 27 33.994C30.9036 33.994 33.994 30.9036 33.994 27C33.994 23.0964 30.9036 20.006 27 20.006ZM27 31.5542C24.5602 31.5542 22.4458 29.6024 22.4458 27C22.4458 24.5602 24.3976 22.4458 27 22.4458C29.4398 22.4458 31.5542 24.3976 31.5542 27C31.5542 29.4398 29.4398 31.5542 27 31.5542Z" fill="#334E0F"/>
<path d="M34.1566 21.4699C35.0549 21.4699 35.7831 20.7417 35.7831 19.8434C35.7831 18.9451 35.0549 18.2169 34.1566 18.2169C33.2583 18.2169 32.5301 18.9451 32.5301 19.8434C32.5301 20.7417 33.2583 21.4699 34.1566 21.4699Z" fill="#334E0F"/>
</svg>
