<svg width="40" height="59" viewBox="0 0 40 59" fill="none" xmlns="http://www.w3.org/2000/svg">
<path fill-rule="evenodd" clip-rule="evenodd" d="M39.8148 17.4862C39.8148 18.6839 39.6777 19.8535 39.4165 20.9835H39.4775L39.3664 21.1944C38.8796 23.1745 38.011 25.0298 36.8317 26.698L24.4912 49.4128L19.9074 58.1081L19.8402 57.9736L2.19208 25.4896H2.20286C1.41603 24.1494 0.820718 22.7085 0.448453 21.1944L0.337325 20.9835H0.398274C0.137137 19.8535 0 18.6839 0 17.4862C0 7.82887 8.91283 0 19.9074 0C30.902 0 39.8148 7.82887 39.8148 17.4862ZM19.9074 26.9023C24.6618 26.9023 28.516 23.0481 28.516 18.2937C28.516 13.5393 24.6618 9.68506 19.9074 9.68506C15.153 9.68506 11.2988 13.5393 11.2988 18.2937C11.2988 23.0481 15.153 26.9023 19.9074 26.9023Z" fill="#F3E3A9"/>
</svg>
