<svg width="88" height="55" viewBox="0 0 88 55" fill="none" xmlns="http://www.w3.org/2000/svg">
<path d="M40.1701 1.4C39.2135 2.35 38.6093 3.6 38.4079 5.1L38.0555 7.35L35.236 8C24.2603 10.4 14.2915 18.45 9.3575 28.85C7.64569 32.5 6.53805 36.25 5.68215 41.6C5.38006 43.4 5.27937 43.5 3.46687 43.5C0.546723 43.5 -0.309181 44.4 0.0935975 47.05C0.597071 50.1 2.40957 52.7 5.02763 53.95C7.24292 55 7.59535 55 44.0971 55C68.868 55 81.3542 54.85 82.3108 54.45C85.5833 53.25 88 49.8 88 46.35C88 43.85 87.5972 43.5 84.526 43.5H82.6128L82.3108 40.45C81.3542 31.8 77.0746 23.55 70.1267 17.1C65.092 12.4 59.9565 9.85 50.3906 7.2C49.9878 7.1 49.736 6.2 49.736 5C49.736 3.35 49.434 2.6 48.276 1.45C47.0173 0.200001 46.4131 0 44.1978 0C42.0329 0 41.3784 0.25 40.1701 1.4ZM46.4131 3.8C46.5642 4.25 46.7152 5.15 46.7152 5.8C46.7152 6.9 46.5642 7 43.9461 7C41.4791 7 41.177 6.9 41.177 5.95C41.177 3.9 42.0833 3 44.1475 3C45.4565 3 46.2117 3.25 46.4131 3.8ZM52.8576 10.95C62.8263 13.5 71.4861 20.45 75.967 29.45C77.8298 33.2 79.441 38.8 79.441 41.6V43.5H43.8958H8.4009L8.70299 41.1C9.20646 37.25 10.9183 32 12.8818 28.35C17.3124 19.9 27.4322 12.35 36.7464 10.55C40.8749 9.75 48.8298 9.95 52.8576 10.95ZM84.9792 47.5C84.9792 48.05 84.3246 49.2 83.5191 50.1L82.059 51.75L44.4999 51.9L6.94083 52L5.22902 50.4C4.27242 49.5 3.36617 48.25 3.16478 47.6L2.8627 46.5H43.8958C84.526 46.5 84.9792 46.5 84.9792 47.5Z" fill="#FDFCDE"/>
</svg>
