<svg width="64" height="64" viewBox="0 0 64 64" fill="none" xmlns="http://www.w3.org/2000/svg">
<path d="M31.3479 0.30185C31.287 0.484715 30.7083 0.698056 30.0382 0.819966C29.3681 0.911398 28.6676 1.15522 28.4543 1.33808C27.4492 2.22193 27.1446 2.43527 26.84 2.43527C26.6877 2.43527 26.5354 2.64861 26.5354 2.89243C26.5354 3.13625 26.3222 3.34959 26.0785 3.34959C25.8349 3.34959 25.6217 3.50198 25.6217 3.65436C25.6217 3.95914 25.4084 4.29439 24.5251 5.26966C24.3424 5.48301 24.0682 5.97064 23.9769 6.33637C23.855 6.7021 23.6114 7.00688 23.4591 7.00688C23.3068 7.00688 23.1849 7.18974 23.1849 7.43356C23.1849 7.67738 22.8499 7.95167 22.4235 8.04311C21.997 8.16502 21.662 8.37836 21.662 8.53074C21.662 8.71361 21.2965 8.83552 20.87 8.83552C20.4436 8.83552 19.8954 9.01838 19.6821 9.20125C18.677 10.1156 18.3115 10.3594 18.0069 10.3594C17.8546 10.3594 17.7023 10.5727 17.7023 10.8165C17.7023 11.0604 17.4891 11.2737 17.2454 11.2737C16.9713 11.2737 16.7885 11.548 16.7885 12.0356C16.7885 12.4623 16.6667 12.7976 16.5144 12.7976C16.3621 12.7976 16.1489 13.1328 16.0575 13.5595C15.9357 13.9862 15.7225 14.3214 15.5702 14.3214C15.3874 14.3214 15.2656 14.87 15.2656 15.5101C15.2656 16.1806 15.1438 16.7901 14.9915 16.8815C14.8696 16.973 14.6564 18.0397 14.565 19.2283C14.4737 20.4474 14.2604 21.5141 14.1082 21.6055C13.9559 21.697 13.7426 22.0932 13.6208 22.4589C13.499 22.8551 13.2553 23.1599 13.103 23.1599C12.9507 23.1599 12.8289 23.3732 12.8289 23.6171C12.8289 23.8609 12.707 24.0742 12.5243 24.0742C12.372 24.0742 12.1588 24.4095 12.0369 24.8361C11.9456 25.2628 11.7323 25.5981 11.5801 25.5981C11.4278 25.5981 11.3059 25.9333 11.3059 26.36C11.3059 26.8477 11.1232 27.122 10.849 27.122C10.514 27.122 10.3922 27.4572 10.3922 28.341C10.3922 29.0115 10.2703 29.5601 10.0876 29.5601C9.90481 29.5601 9.78297 30.5659 9.78297 31.9983C9.78297 33.4308 9.90481 34.4365 10.0876 34.4365C10.2703 34.4365 10.3922 35.3813 10.3922 36.6309C10.4226 38.0938 10.5749 39.0691 10.849 39.4348C11.4887 40.2882 11.4887 45.4998 10.849 46.1398C10.2703 46.7189 10.2703 47.237 10.849 47.237C11.0927 47.237 11.3059 47.3589 11.3059 47.5113C11.3059 47.6637 12.0065 47.8466 12.8898 47.9075C13.7731 47.999 14.5346 48.2428 14.5955 48.4256C14.6564 48.6085 15.1742 48.7609 15.7529 48.7609H16.7885V42.0863C16.7885 36.9966 16.6972 35.3813 16.423 35.2899C16.1489 35.1985 15.9966 34.2537 15.9357 32.3945C15.8443 30.2002 15.9052 29.5601 16.3012 29.1639C16.5753 28.9201 16.7885 28.5544 16.7885 28.3715C16.7885 28.1887 16.9104 28.0363 17.0627 28.0363C17.215 28.0363 17.4282 27.701 17.5196 27.2743C17.6414 26.8477 17.8546 26.5124 18.0069 26.5124C18.1897 26.5124 18.3115 26.2991 18.3115 26.0552C18.3115 25.8114 18.5247 25.5981 18.7684 25.5981C19.0425 25.5981 19.2253 25.3238 19.2253 24.8361C19.2253 24.4095 19.3471 24.0742 19.4994 24.0742C19.6517 24.0742 19.8344 23.5256 19.9563 22.8551C20.0477 22.1846 20.2913 21.636 20.4436 21.636C20.6264 21.636 20.7482 20.5998 20.7482 19.1978C20.7482 17.7959 20.87 16.7596 21.0528 16.7596C21.2051 16.7596 21.4183 16.4244 21.5401 15.9977C21.6315 15.571 21.8447 15.2358 21.997 15.2358C22.1493 15.2358 22.2712 15.0224 22.2712 14.7786C22.2712 14.5348 22.4844 14.3214 22.728 14.3214C22.9717 14.3214 23.1849 14.1995 23.1849 14.0472C23.1849 13.8948 23.6114 13.6814 24.0987 13.5595C24.6165 13.4376 25.0125 13.2243 25.0125 13.0719C25.0125 12.9195 25.2257 12.7976 25.4694 12.7976C26.0481 12.7976 28.5153 10.3594 28.7894 9.50602C28.9112 9.14029 29.1549 8.83552 29.3072 8.83552C29.4595 8.83552 29.5813 8.68313 29.5813 8.50027C29.5813 8.3174 29.9773 7.76881 30.4646 7.28117C31.2566 6.48876 31.5612 6.39733 33.2059 6.39733C34.2416 6.39733 35.0639 6.51924 35.0639 6.67162C35.0639 6.82401 35.6122 7.00688 36.2823 7.12879C36.9524 7.22022 37.5007 7.46404 37.5007 7.61642C37.5007 7.79929 38.6581 7.9212 40.2724 7.9212C42.4046 7.9212 43.1356 7.79929 43.5315 7.43356C43.8971 7.06783 44.3844 6.9764 45.5114 7.09831C46.3338 7.15926 47.0952 7.3726 47.2171 7.52499C47.3085 7.70786 47.7044 7.9212 48.0699 8.04311C48.74 8.25645 49.1969 9.01838 48.8923 9.47554C48.801 9.62793 47.1562 9.74984 45.2373 9.74984C43.1356 9.74984 41.7649 9.87175 41.7649 10.0546C41.7649 10.207 41.2471 10.3594 40.6075 10.3594C39.9678 10.3594 39.2977 10.5118 39.1455 10.6642C38.9018 10.908 38.5667 10.908 37.988 10.6642C36.5564 10.1156 34.2416 10.268 33.541 10.9689C33.2059 11.3042 32.9318 11.7004 32.9318 11.8833C32.9318 12.0356 32.7186 12.188 32.4749 12.188C32.2008 12.188 32.018 12.4623 32.018 12.95C32.018 13.3766 31.8658 13.7119 31.683 13.7119C31.2566 13.7119 30.4951 14.4738 30.4951 14.9005C30.4951 15.0834 30.16 15.2358 29.7336 15.2358C29.2463 15.2358 28.9721 15.4186 28.9721 15.6929C28.9721 15.9368 28.7589 16.1501 28.5153 16.1501C28.2716 16.1501 28.0584 16.272 28.0584 16.4549C28.0584 16.6073 27.7233 16.7596 27.2969 16.7596C26.8096 16.7596 26.5354 16.9425 26.5354 17.2168C26.5354 17.4606 26.2613 17.674 25.9262 17.674C25.5607 17.674 24.982 18.0092 24.586 18.4359C24.1901 18.8626 23.7332 19.1978 23.52 19.1978C23.3372 19.1978 23.1849 19.7159 23.1849 20.4169C23.1849 21.0874 23.0631 21.636 22.8803 21.636C22.6976 21.636 22.5758 22.7637 22.5758 24.379C22.5758 26.5429 22.4844 27.1829 22.1189 27.3048C21.8752 27.4267 21.662 27.8229 21.662 28.2191C21.662 28.6153 21.5097 28.9506 21.3269 28.9506C20.87 28.9506 20.2609 29.6211 20.0172 30.4135C19.8954 30.7792 19.6517 31.084 19.4994 31.084C19.3471 31.084 19.2253 31.8459 19.2253 32.7603C19.2253 34.0403 19.3166 34.4365 19.6821 34.4365C20.0477 34.4365 20.139 34.8632 20.139 36.4176C20.139 37.5452 20.2609 38.3986 20.4436 38.3986C20.6264 38.3986 20.7482 39.4043 20.7482 40.8368C20.7482 42.1778 20.6264 43.275 20.4741 43.275C20.3218 43.275 20.139 44.4636 20.0781 45.9265C20.0172 47.6637 19.8649 48.6085 19.5908 48.6999C19.3471 48.7609 19.2253 49.4619 19.2253 50.7724C19.2253 51.8696 19.1034 52.723 18.9207 52.723C18.7684 52.723 18.6161 53.0582 18.6161 53.4849C18.6161 53.9116 18.4029 54.3383 18.1592 54.4297C17.9155 54.5516 17.7023 54.9478 17.7023 55.344C17.7023 55.7402 17.55 56.0755 17.3673 56.0755C17.1845 56.0755 16.8495 56.2888 16.6058 56.5326C15.9662 57.1422 13.0421 57.1422 12.4024 56.5326C12.1588 56.2888 11.8237 56.0755 11.641 56.0755C11.4582 56.0755 11.3059 55.8621 11.3059 55.6183C11.3059 55.3745 11.0927 55.1611 10.849 55.1611C10.5749 55.1611 10.3922 54.8869 10.3922 54.3992C10.3922 53.9116 10.2094 53.6373 9.93527 53.6373C9.6916 53.6373 9.47838 53.4239 9.47838 53.1801C9.47838 52.9363 9.35655 52.723 9.17379 52.723C9.0215 52.723 8.8692 52.3877 8.8692 51.961C8.8692 51.4734 8.68645 51.1991 8.41232 51.1991C8.07727 51.1991 7.95543 50.8638 7.95543 49.98C7.95543 49.3095 7.8336 48.7609 7.6813 48.7609C7.52901 48.7609 7.28534 47.999 7.19396 47.0846C7.07212 46.1703 6.85891 45.4084 6.70661 45.4084C6.55432 45.4084 6.43248 42.0559 6.43248 37.9414C6.43248 33.1565 6.55432 30.4745 6.73707 30.4745C6.91983 30.4745 7.04166 30.0783 7.04166 29.5906C7.04166 29.103 7.25488 28.4934 7.49855 28.2191C7.74222 27.9753 7.95543 27.4267 7.95543 27C7.95543 26.5734 8.07727 26.2076 8.22956 26.2076C8.38186 26.2076 8.62553 25.9029 8.74737 25.5371C8.83875 25.1714 9.11288 24.6838 9.29563 24.4704C10.2094 23.4342 10.3922 23.1599 10.3922 22.7027C10.3922 22.4589 10.514 22.2456 10.6967 22.2456C10.849 22.2456 11.0623 21.9103 11.1841 21.4836C11.2755 21.057 11.4887 20.7217 11.641 20.7217C11.7933 20.7217 11.9151 18.9235 11.9151 16.7596C11.9151 14.3214 11.7933 12.7976 11.6105 12.7976C11.4582 12.7976 11.3059 13.0109 11.3059 13.2547C11.3059 13.4986 11.1536 13.7119 10.9709 13.7119C10.5749 13.7119 7.34625 16.973 7.34625 17.3692C7.34625 17.5521 7.13304 17.674 6.88937 17.674C6.61524 17.674 6.43248 17.9483 6.43248 18.4359C6.43248 18.9235 6.24973 19.1978 5.9756 19.1978C5.73193 19.1978 5.51871 19.4112 5.51871 19.655C5.51871 19.8988 5.39688 20.1122 5.21412 20.1122C5.06183 20.1122 4.90953 20.4474 4.90953 20.8741C4.90953 21.3617 4.72678 21.636 4.45265 21.636C4.17852 21.636 3.99576 21.9103 3.99576 22.398C3.99576 22.8246 3.87393 23.1599 3.72163 23.1599C3.56934 23.1599 3.35612 23.4951 3.26475 23.9218C3.14291 24.3485 2.9297 24.6838 2.7774 24.6838C2.59465 24.6838 2.47281 25.2324 2.47281 25.8724C2.47281 26.5429 2.32052 27.122 2.13776 27.1829C1.98547 27.2439 1.7418 27.8534 1.65042 28.5849C1.55904 29.2858 1.34583 29.8649 1.22399 29.8649C1.0717 29.8649 0.949864 30.7488 0.949864 31.8155C0.949864 33.1565 0.797569 33.9184 0.492979 34.2537C-0.116201 34.8327 -0.177119 42.2387 0.401602 42.4216C0.675733 42.513 0.828028 43.4578 0.888946 45.195C0.949864 46.658 1.13262 47.8466 1.28491 47.8466C1.43721 47.8466 1.55904 48.1818 1.55904 48.6085C1.55904 49.0352 1.77226 49.8886 2.01593 50.4981C2.2596 51.0772 2.47281 51.8391 2.47281 52.1439C2.47281 52.4791 2.59465 52.723 2.74694 52.723C2.89924 52.723 3.11245 53.1496 3.23429 53.6373C3.35612 54.1554 3.56934 54.5516 3.72163 54.5516C3.87393 54.5516 3.99576 54.8869 3.99576 55.3135C3.99576 55.8012 4.17852 56.0755 4.45265 56.0755C4.72678 56.0755 4.90953 56.3498 4.90953 56.8374C4.90953 57.325 5.09229 57.5993 5.36642 57.5993C5.61009 57.5993 5.8233 57.7517 5.8233 57.9346C5.8233 58.3613 6.58478 59.1232 7.0112 59.1232C7.19396 59.1232 7.34625 59.2756 7.34625 59.4585C7.34625 59.8851 8.10773 60.6471 8.53415 60.6471C8.71691 60.6471 8.8692 60.8604 8.8692 61.1042C8.8692 61.3785 9.14334 61.5614 9.50884 61.5614C9.84389 61.5614 10.3312 61.7747 10.5749 62.0186C10.849 62.2624 11.3059 62.4757 11.641 62.4757C11.9456 62.4757 12.2197 62.5976 12.2197 62.75C12.2197 62.8719 13.2248 63.0853 14.4127 63.1767C15.6311 63.2986 16.6667 63.512 16.7276 63.6948C16.8799 64.1215 22.1798 64.091 22.3321 63.6643C22.393 63.4815 23.1545 63.2377 24.0378 63.1462C24.9211 63.0853 25.6217 62.9024 25.6217 62.75C25.6217 62.5976 26.109 62.4757 26.6877 62.4757C27.3578 62.4757 27.8452 62.2929 27.9365 62.0186C28.0584 61.7443 28.5153 61.5614 29.1244 61.5614C29.7336 61.5614 30.1905 61.3785 30.3123 61.1042C30.4037 60.8604 30.8301 60.6471 31.2566 60.6471C31.683 60.6471 32.018 60.4947 32.018 60.3423C32.018 60.1594 32.3531 60.0375 32.7795 60.0375C33.2669 60.0375 33.541 59.8547 33.541 59.5804C33.541 59.3366 33.8151 59.1232 34.1502 59.1232C34.5157 59.1232 35.0944 58.788 35.4904 58.3613C35.8863 57.9346 36.4651 57.5993 36.8306 57.5993C37.1656 57.5993 37.5007 57.386 37.6225 57.1422C37.7139 56.8984 38.0794 56.685 38.4144 56.685C38.7495 56.685 39.0236 56.5326 39.0236 56.3802C39.0236 56.1974 39.2368 56.0755 39.4805 56.0755C39.7242 56.0755 39.9374 55.8621 39.9374 55.6183C39.9374 55.344 40.2115 55.1611 40.6684 55.1611C41.0644 55.1611 41.4603 54.9478 41.5822 54.704C41.6735 54.4602 41.9477 54.2468 42.2218 54.2468C42.4655 54.2468 42.6787 54.0944 42.6787 53.9421C42.6787 53.7592 42.9528 53.6373 43.2879 53.6373C43.6229 53.6373 43.8971 53.4239 43.8971 53.1801C43.8971 52.9363 44.1712 52.723 44.5062 52.723C44.8717 52.723 45.4505 52.3877 45.8464 51.961C46.2424 51.5343 46.6993 51.1991 46.9125 51.1991C47.0952 51.1991 47.2475 51.0772 47.2475 50.9248C47.2475 50.7724 47.5521 50.5286 47.9481 50.4067C48.3136 50.2848 48.9228 49.8886 49.2883 49.4924C49.6538 49.0961 50.2325 48.7609 50.598 48.7609C50.9331 48.7609 51.2072 48.6085 51.2072 48.4256C51.2072 47.999 51.9687 47.237 52.3951 47.237C52.5779 47.237 52.7302 47.0237 52.7302 46.7799C52.7302 46.5056 53.0043 46.3227 53.4916 46.3227C53.979 46.3227 54.2531 46.1398 54.2531 45.8655C54.2531 45.6217 54.4663 45.4084 54.71 45.4084C54.9537 45.4084 55.1669 45.256 55.1669 45.1036C55.1669 44.9207 55.3801 44.7988 55.6238 44.7988C55.8674 44.7988 56.0807 44.6465 56.0807 44.4636C56.0807 44.0369 56.8421 43.275 57.2686 43.275C57.4513 43.275 57.6036 43.0616 57.6036 42.8178C57.6036 42.574 57.7559 42.3606 57.9387 42.3606C58.3651 42.3606 61.5633 39.1605 61.5633 38.7338C61.5633 38.551 61.7765 38.3986 62.0202 38.3986C62.2638 38.3986 62.477 38.1852 62.477 37.9414C62.477 37.6976 62.6293 37.4843 62.7816 37.4843C62.9644 37.4843 63.0862 37.149 63.0862 36.7223C63.0862 36.2347 63.269 35.9604 63.5431 35.9604C63.9086 35.9604 64 35.5337 64 34.0098C64 32.7907 63.8782 31.9983 63.6345 31.9374C63.4517 31.8764 63.2385 30.9926 63.1471 29.9259C63.0862 28.8896 62.9035 28.0363 62.7512 28.0363C62.5989 28.0363 62.477 27.4877 62.477 26.8477C62.477 26.1772 62.2638 25.4457 62.0202 25.1714C61.7765 24.9276 61.5633 24.4399 61.5633 24.0742C61.5633 23.7085 61.3501 23.2208 61.1064 22.977C60.8627 22.7027 60.6495 22.1846 60.6495 21.7884C60.6495 21.3922 60.5581 21.0265 60.4363 20.9655C60.0099 20.8131 59.1266 18.9845 59.1266 18.3445C59.1266 18.0092 58.9743 17.674 58.7915 17.613C58.6088 17.5521 58.3955 16.8511 58.3042 16.0587C58.2128 15.2662 57.9996 14.6262 57.8777 14.6262C57.7254 14.6262 57.6036 14.0776 57.6036 13.4376C57.6036 12.6757 57.4513 12.188 57.1467 12.0661C56.8726 11.9747 56.6898 11.5175 56.6898 10.847C56.6898 10.268 56.5985 9.74984 56.4766 9.68889C56.0807 9.5365 55.1669 7.61642 55.1669 6.9764C55.1669 6.67162 55.0146 6.39733 54.8318 6.39733C54.4054 6.39733 53.6439 5.63539 53.6439 5.20871C53.6439 5.02585 53.4307 4.87346 53.187 4.87346C52.9434 4.87346 52.7302 4.72107 52.7302 4.53821C52.7302 4.11152 51.9687 3.34959 51.5423 3.34959C51.3595 3.34959 51.2072 3.13625 51.2072 2.89243C51.2072 2.61813 50.9331 2.43527 50.4762 2.43527C50.0802 2.43527 49.6843 2.28288 49.6233 2.10002C49.5624 1.94763 48.9533 1.70381 48.2222 1.61238C47.5217 1.52095 46.943 1.3076 46.943 1.18569C46.943 0.759011 43.958 0.850443 43.8361 1.27713C43.6838 1.73429 37.8662 1.79524 37.5616 1.33808C37.4397 1.15522 36.526 0.941876 35.5513 0.850443C34.5461 0.759011 33.6628 0.545669 33.6019 0.362805C33.4496 -0.0943556 31.5002 -0.124833 31.3479 0.30185ZM46.3338 15.5405C46.3338 15.6929 46.7297 15.8453 47.2171 15.8453C47.7044 15.8453 48.3136 16.0587 48.5877 16.3025C48.8314 16.5463 49.1665 16.7596 49.3492 16.7596C49.532 16.7596 49.6843 16.8815 49.6843 17.0644C49.6843 17.2168 50.0193 17.4301 50.4457 17.5521C50.8722 17.6435 51.2072 17.8568 51.2072 18.0397C51.2072 18.2835 51.4509 18.6492 52.3647 19.655C52.5474 19.8683 52.7302 20.2036 52.7302 20.3864C52.7302 20.5693 52.9434 20.7217 53.187 20.7217C53.4612 20.7217 53.6439 20.996 53.6439 21.4532C53.6439 21.8494 53.8572 22.2456 54.1008 22.3675C54.3445 22.4589 54.5577 22.8246 54.5577 23.1599C54.5577 23.4951 54.71 23.7694 54.8623 23.7694C55.0451 23.7694 55.1669 24.1656 55.1669 24.6838C55.1669 25.2933 55.3192 25.5981 55.6238 25.5981C55.9588 25.5981 56.0807 25.9333 56.0807 26.7867C56.0807 27.4572 56.2329 28.0363 56.4157 28.0972C56.5985 28.1582 56.8117 28.8592 56.903 29.6516C56.9944 30.444 57.2076 31.084 57.3295 31.084C57.4818 31.084 57.6036 31.8459 57.6036 32.7603C57.6036 33.6746 57.4818 34.4365 57.299 34.4365C57.1467 34.4365 56.9944 34.6499 56.9944 34.8937C56.9944 35.4118 53.187 39.3129 52.6997 39.3129C52.5474 39.3129 52.0905 39.6482 51.6946 40.0748C51.2986 40.5015 50.8417 40.8368 50.6285 40.8368C50.4457 40.8368 50.2934 40.9892 50.2934 41.172C50.2934 41.6292 49.6233 42.2387 48.8314 42.4826C48.4659 42.6045 48.1613 42.8483 48.1613 43.0007C48.1613 43.1531 48.009 43.275 47.8263 43.275C47.6131 43.275 47.1562 43.6102 46.7602 44.0369C46.3642 44.4636 45.7855 44.7988 45.42 44.7988C45.085 44.7988 44.8108 45.0122 44.8108 45.256C44.8108 45.4998 44.5976 45.7132 44.3539 45.7132C44.1103 45.7132 43.8971 45.8351 43.8971 46.0179C43.8971 46.1703 43.562 46.3837 43.1356 46.5056C42.7092 46.597 42.3741 46.8103 42.3741 46.9627C42.3741 47.1151 42.2218 47.237 42.0695 47.237C41.7649 47.237 41.3994 47.4808 40.3943 48.3647C40.1811 48.578 39.8156 48.7609 39.6328 48.7609C39.45 48.7609 39.2368 48.9742 39.1455 49.2181C39.0236 49.4619 38.6886 49.6752 38.384 49.6752C38.0794 49.6752 37.8053 49.7971 37.8053 49.9495C37.8053 50.1019 37.4702 50.3152 37.0438 50.4067C36.6174 50.5286 36.2823 50.7419 36.2823 50.8943C36.2823 51.0772 36.0082 51.1991 35.6731 51.1991C35.3381 51.1991 35.0639 51.321 35.0639 51.5039C35.0639 51.6562 34.7289 51.8696 34.3025 51.9915C33.876 52.0829 33.541 52.2963 33.541 52.4182C33.541 52.5401 33.2059 52.7534 32.7795 52.8449C32.3531 52.9668 32.018 53.1801 32.018 53.3325C32.018 53.5154 31.683 53.6373 31.287 53.6373C30.8911 53.6373 30.4951 53.8506 30.3733 54.0944C30.2819 54.3383 29.8555 54.5516 29.429 54.5516C29.0026 54.5516 28.6676 54.6735 28.6676 54.8564C28.6676 55.0088 28.3934 55.1611 28.0279 55.1611C27.6929 55.1611 27.2055 55.3745 26.9618 55.6183C26.6877 55.8621 26.0785 56.0755 25.5912 56.0755C25.1039 56.0755 24.7079 56.1974 24.7079 56.3802C24.7079 56.5326 24.586 56.685 24.4033 56.685C24.251 56.685 24.0987 56.1974 24.0987 55.6183C24.0987 55.0392 24.251 54.5516 24.4033 54.5516C24.586 54.5516 24.7079 53.9421 24.7079 53.2106C24.7079 52.4182 24.8906 51.6562 25.1648 51.382C25.4998 51.0772 25.6217 50.2848 25.6217 48.639C25.6217 47.3589 25.7435 46.3227 25.8958 46.3227C26.0176 46.3227 26.2308 45.1341 26.3222 43.6712C26.444 42.2083 26.6573 40.9587 26.84 40.8977C26.9923 40.8368 27.1446 39.9225 27.1446 38.8862C27.1446 37.6976 27.2969 36.7833 27.6015 36.3871C27.8452 36.0823 28.0584 35.2899 28.0584 34.6499C28.0584 34.0403 28.2107 33.5222 28.363 33.5222C28.5457 33.5222 28.6676 33.0346 28.6676 32.4555C28.6676 31.785 28.8503 31.2974 29.1244 31.2059C29.3681 31.084 29.5813 30.6573 29.5813 30.1697C29.5813 29.3163 30.4342 27.3658 30.8911 27.1829C31.0129 27.122 31.1043 26.7257 31.1043 26.3295C31.1043 25.8724 31.287 25.5981 31.5612 25.5981C31.8048 25.5981 32.018 25.3847 32.018 25.1409C32.018 24.8971 32.1399 24.6838 32.3226 24.6838C32.4749 24.6838 32.6881 24.3485 32.81 23.9218C32.9014 23.4951 33.1146 23.1599 33.2669 23.1599C33.4192 23.1599 33.541 22.9465 33.541 22.7027C33.541 22.4589 33.6933 22.2456 33.876 22.2456C34.3025 22.2456 35.0639 21.4836 35.0639 21.057C35.0639 20.8741 35.2772 20.7217 35.5208 20.7217C35.7645 20.7217 35.9777 20.5084 35.9777 20.2645C35.9777 20.0207 36.1605 19.8074 36.3737 19.8074C36.5869 19.8074 37.0133 19.4721 37.3179 19.0454C37.6225 18.6188 38.1403 18.2835 38.4449 18.2835C38.7799 18.2835 39.0236 18.1311 39.0236 17.9787C39.0236 17.7959 39.2064 17.674 39.45 17.674C39.6937 17.674 39.9374 17.4606 40.0592 17.2168C40.1506 16.973 40.5161 16.7596 40.8512 16.7596C41.2167 16.7596 41.704 16.5463 41.9477 16.3025C42.2218 16.0587 42.831 15.8453 43.3183 15.8453C43.8057 15.8453 44.2016 15.6929 44.2016 15.5405C44.2016 15.3577 44.689 15.2358 45.2677 15.2358C45.8464 15.2358 46.3338 15.3577 46.3338 15.5405Z" fill="#0D1F11"/>
<path d="M37.5007 25.9029C37.5007 26.0552 37.1656 26.2686 36.7392 26.3905C36.1909 26.5124 35.9777 26.7867 35.9777 27.3048C35.9777 27.701 35.8559 28.0363 35.6731 28.0363C35.5208 28.0363 35.3685 28.3715 35.3685 28.7982C35.3685 29.2249 35.5208 29.5601 35.6731 29.5601C35.8559 29.5601 35.9777 29.8954 35.9777 30.2916C35.9777 30.8097 36.1909 31.084 36.7392 31.2059C37.1656 31.3278 37.5007 31.5412 37.5007 31.6936C37.5007 31.8764 37.9271 31.9983 38.4144 31.9983C38.9322 31.9983 39.3282 31.8764 39.3282 31.6936C39.3282 31.5412 39.6633 31.3278 40.0897 31.2059C40.6379 31.084 40.8512 30.8097 40.8512 30.2916C40.8512 29.8954 41.0035 29.5601 41.1557 29.5601C41.3385 29.5601 41.4603 29.2249 41.4603 28.7982C41.4603 28.3715 41.3385 28.0363 41.1557 28.0363C41.0035 28.0363 40.8512 27.701 40.8512 27.3048C40.8512 26.7867 40.6379 26.5124 40.0897 26.3905C39.6633 26.2686 39.3282 26.0552 39.3282 25.9029C39.3282 25.72 38.9322 25.5981 38.4144 25.5981C37.9271 25.5981 37.5007 25.72 37.5007 25.9029Z" fill="#0D1F11"/>
<path d="M47.2475 29.2554C47.2475 29.4078 46.9125 29.5601 46.5165 29.5601C45.9987 29.5601 45.7246 29.7735 45.6028 30.3221C45.4809 30.7488 45.2677 31.084 45.1154 31.084C44.9327 31.084 44.8108 31.4802 44.8108 31.9983C44.8108 32.486 44.9327 32.9127 45.1154 32.9127C45.2677 32.9127 45.4809 33.2479 45.6028 33.6746C45.7246 34.2232 45.9987 34.4365 46.5165 34.4365C46.9125 34.4365 47.2475 34.5584 47.2475 34.7413C47.2475 34.8937 47.5826 35.0461 48.009 35.0461C48.4354 35.0461 48.7705 34.8937 48.7705 34.7413C48.7705 34.5584 49.1055 34.4365 49.5015 34.4365C50.0193 34.4365 50.2934 34.2232 50.4153 33.6746C50.5371 33.2479 50.7503 32.9127 50.9026 32.9127C51.0854 32.9127 51.2072 32.486 51.2072 31.9983C51.2072 31.4802 51.0854 31.084 50.9026 31.084C50.7503 31.084 50.5371 30.7488 50.4153 30.3221C50.2934 29.7735 50.0193 29.5601 49.5015 29.5601C49.1055 29.5601 48.7705 29.4078 48.7705 29.2554C48.7705 29.0725 48.4354 28.9506 48.009 28.9506C47.5826 28.9506 47.2475 29.0725 47.2475 29.2554Z" fill="#0D1F11"/>
<path d="M40.8512 35.6556C40.8512 35.808 40.5161 35.9604 40.1201 35.9604C39.6023 35.9604 39.3282 36.1737 39.2064 36.7223C39.0845 37.149 38.8713 37.4843 38.719 37.4843C38.5363 37.4843 38.4144 37.8805 38.4144 38.3986C38.4144 38.8862 38.5363 39.3129 38.719 39.3129C38.8713 39.3129 39.0845 39.6482 39.2064 40.0748C39.3282 40.6234 39.6023 40.8368 40.1201 40.8368C40.5161 40.8368 40.8512 40.9587 40.8512 41.1416C40.8512 41.2939 41.1862 41.4463 41.6126 41.4463C42.0391 41.4463 42.3741 41.2939 42.3741 41.1416C42.3741 40.9587 42.7092 40.8368 43.1051 40.8368C43.6229 40.8368 43.8971 40.6234 44.0189 40.0748C44.1407 39.6482 44.3539 39.3129 44.5062 39.3129C44.689 39.3129 44.8108 38.8862 44.8108 38.3986C44.8108 37.8805 44.689 37.4843 44.5062 37.4843C44.3539 37.4843 44.1407 37.149 44.0189 36.7223C43.8971 36.1737 43.6229 35.9604 43.1051 35.9604C42.7092 35.9604 42.3741 35.808 42.3741 35.6556C42.3741 35.4728 42.0391 35.3508 41.6126 35.3508C41.1862 35.3508 40.8512 35.4728 40.8512 35.6556Z" fill="#0D1F11"/>
</svg>
