<svg width="71" height="15" viewBox="0 0 71 15" fill="none" xmlns="http://www.w3.org/2000/svg">
<path d="M7.91465 0.953125L9.47696 5.76254H14.5327L10.4425 8.73492L12.0048 13.5443L7.91465 10.572L3.82449 13.5443L5.3868 8.73492L1.29663 5.76254H6.35235L7.91465 0.953125Z" fill="#334E0F"/>
<path d="M21.8326 0.953125L23.3949 5.76254H28.4506L24.3605 8.73492L25.9228 13.5443L21.8326 10.572L17.7425 13.5443L19.3048 8.73492L15.2146 5.76254H20.2703L21.8326 0.953125Z" fill="#334E0F"/>
<path d="M35.7486 0.953125L37.3109 5.76254H42.3667L38.2765 8.73492L39.8388 13.5443L35.7486 10.572L31.6585 13.5443L33.2208 8.73492L29.1306 5.76254H34.1863L35.7486 0.953125Z" fill="#334E0F"/>
<path d="M49.6666 0.953125L51.2289 5.76254H56.2846L52.1945 8.73492L53.7568 13.5443L49.6666 10.572L45.5764 13.5443L47.1387 8.73492L43.0486 5.76254H48.1043L49.6666 0.953125Z" fill="#334E0F"/>
<path d="M63.5836 0.953125L65.1459 5.76254H70.2016L66.1115 8.73492L67.6738 13.5443L63.5836 10.572L59.4934 13.5443L61.0557 8.73492L56.9656 5.76254H62.0213L63.5836 0.953125Z" fill="#334E0F"/>
</svg>
