<svg width="54" height="54" viewBox="0 0 54 54" fill="none" xmlns="http://www.w3.org/2000/svg">
<rect width="54" height="54" rx="27" fill="#F3E3A9"/>
<path d="M28.3268 36.4498C18.1794 36.4498 12.3916 29.3552 12.1504 17.5498H17.2333C17.4003 26.2147 21.1476 29.8849 24.1157 30.6417V17.5498H28.9019V25.0228C31.8329 24.7012 34.9124 21.2958 35.9512 17.5498H40.7373C40.3459 19.4926 39.5655 21.332 38.4452 22.9532C37.3248 24.5743 35.8884 25.9423 34.226 26.9714C36.0817 27.9118 37.7207 29.2428 39.035 30.8767C40.3492 32.5105 41.3088 34.41 41.8504 36.4498H36.5819C36.0958 34.6781 35.1077 33.0921 33.7415 31.8906C32.3753 30.6891 30.6917 29.9256 28.9019 29.6958V36.4498H28.3268Z" fill="#3C5A14"/>
</svg>
