<svg width="70" height="70" viewBox="0 0 70 70" fill="none" xmlns="http://www.w3.org/2000/svg">
<path d="M30.9052 2.33526L26.7672 4.91789L17.3276 4.31527L15.1293 8.70573L12.931 13.0531L8.92241 15.0332C6.76724 16.1523 4.82759 17.2714 4.65517 17.5297C4.48276 17.788 4.43966 20.0693 4.61207 22.5658L4.87069 27.0854L2.41379 30.7441C1.07759 32.7241 0 34.6611 0 35.0055C0 35.3498 1.07759 37.2868 2.41379 39.2668L4.87069 42.9255L4.61207 47.4451C4.43966 49.9416 4.48276 52.2229 4.65517 52.4812C4.82759 52.7395 6.76724 53.8586 8.92241 54.9777L12.931 56.9578L15.1293 61.3052L17.3276 65.6956L26.7672 65.093L30.6897 67.5465C32.8448 68.9239 34.8276 70 35.0862 70C35.3879 70 37.2845 68.9239 39.3535 67.5465L43.0603 65.093L52.8017 65.3513L57.0259 57.0869L65.3017 52.8686V42.9685L67.6724 39.3098C68.9655 37.2868 70 35.3498 70 35.0055C70 34.6611 68.9655 32.7241 67.6724 30.7011L65.3017 27.0424V17.1423L57.0259 12.924L52.8017 4.65962L43.1466 4.91789L39.569 2.59352C37.5862 1.34526 35.7759 0.183077 35.5172 0.010897C35.2586 -0.11823 33.1897 0.91482 30.9052 2.33526ZM39.0517 5.77876L42.3276 7.97399L51.0776 7.37138L52.931 11.2023L54.8276 15.0332L58.5345 16.9271L62.2845 18.8641V27.9032L64.6121 31.4759L66.8966 35.0055L62.1552 42.3229L62.5862 51.1469L58.75 53.0408L54.8707 54.9347L52.9741 58.7656L51.0776 62.6395L42.3276 62.0369L35 66.9439L31.3362 64.4904L27.6293 62.0369L19.0086 62.6395L17.069 58.7225L15.0862 54.8056L11.2069 52.8686L7.37069 50.9316L7.88793 42.3229L3.06034 35.0915L5.47414 31.3467L7.88793 27.645L7.37069 19.0793L11.2069 17.1423L15.0862 15.2053L17.0259 11.2884L19.0086 7.37138L23.4052 7.67268L27.8017 7.93094L31.25 5.56354C33.1466 4.27223 34.9569 3.28222 35.2155 3.36831C35.5172 3.49744 37.2414 4.53049 39.0517 5.77876Z" fill="#FDFCDE"/>
<path d="M30.3017 13.6558C20.3017 15.9372 13.319 24.7181 13.319 35.0055C13.319 45.4652 20.3448 54.16 30.5603 56.3552C34.4397 57.173 36.3362 57.13 40.3448 56.097C51.681 53.17 58.7931 41.9786 56.4224 30.6151C55.2586 25.0194 51.0345 19.0363 46.2931 16.2815C41.5948 13.5267 35.3879 12.5367 30.3017 13.6558ZM41.8535 17.3576C50.7759 20.8011 55.7328 30.7442 53.2328 39.9986C50.5603 49.8987 40.3017 55.8817 30.4741 53.2991C26.8966 52.3952 24.7414 51.1469 21.9397 48.4782C14.1379 41.0317 14.2241 28.8072 22.1121 21.3607C26.1638 17.5298 30.3879 15.9802 35.9914 16.2385C38.1466 16.3676 40.3448 16.755 41.8535 17.3576Z" fill="#FDFCDE"/>
<path d="M37.7588 33.3268L32.2416 38.5351L29.6554 35.6942C28.233 34.1446 26.7244 32.8533 26.2933 32.8533C25.1295 32.8533 24.4399 33.9294 24.9571 34.8763C25.8192 36.4259 31.8106 41.9786 32.4571 41.8064C32.845 41.7633 35.8623 39.0946 39.2244 35.9094C43.8364 31.562 45.2588 29.9263 45.1726 29.2376C44.8709 27.1285 43.4054 27.9463 37.7588 33.3268Z" fill="#FDFCDE"/>
</svg>
