<svg width="94" height="130" viewBox="0 0 94 130" fill="none" xmlns="http://www.w3.org/2000/svg">
<path d="M48.9898 0.558594C47.8946 1.70117 47.3596 3.27539 47.3596 5.45898C47.3596 7.21094 47.4615 7.69336 48.1238 8.98828C48.5313 9.80078 49.2955 10.8164 49.7795 11.2734C50.671 12.0352 50.7474 12.2383 52.9125 20.4395L55.1031 28.8438L60.7323 40.3457L66.3361 51.8477L65.8267 52.584C65.521 52.9648 65.1644 53.6504 65.0116 54.082C64.8842 54.5137 64.655 54.8438 64.5531 54.793C64.4258 54.7422 62.1842 52.6602 59.5352 50.1465C55.6889 46.4902 54.1861 44.8398 51.8681 41.7676C50.2889 39.6855 48.8625 37.8828 48.6842 37.8066C48.5059 37.7051 46.4681 36.918 44.1247 36.0547L39.8455 34.5059L38.4445 34.9375L37.0436 35.3945L36.6105 34.7598C36.3813 34.4297 35.6936 33.668 35.0568 33.084C34.2162 32.2715 33.9869 31.8906 34.1143 31.5098C34.369 30.6973 33.4011 28.793 32.4841 28.3359C30.7011 27.3965 28.5614 28.2344 27.8992 30.1133C27.4662 31.3574 27.6445 32.2461 28.5869 33.2871C29.402 34.2012 31.2105 34.5566 32.2039 34.0234C32.7134 33.7441 32.8917 33.8203 33.8851 34.8105C34.4964 35.4199 34.9294 35.9785 34.802 36.0801C34.7002 36.1562 33.2483 36.6895 31.5671 37.248L28.5105 38.2383L24.3077 37.248L20.1303 36.2324L15.2397 32.9824C11.0623 30.2148 10.3236 29.6055 10.1708 28.9707C9.94156 27.9551 8.38778 25.873 7.29249 25.1367C5.43305 23.8418 2.98776 23.3594 1.07737 23.8672C-0.0688596 24.1973 -0.196219 24.5527 0.21133 26.1016C1.20473 29.9102 3.90474 31.9668 7.95476 31.9922H10.0434L14.6538 35.0645L19.2388 38.1113L23.9511 39.2793L28.6633 40.4219L33.936 38.6191C36.8398 37.6289 39.387 36.8164 39.5907 36.8164C39.7945 36.8164 41.6794 37.4004 43.7426 38.1367L47.5125 39.4824L50.4163 43.291C52.8106 46.4395 54.2625 47.9883 58.6946 52.1523C61.6239 54.9199 64.0437 57.2305 64.0437 57.2559C64.0437 57.2812 63.9163 57.6621 63.7635 58.1191L63.4833 58.9062H60.0955C57.3446 58.9062 56.6059 58.9824 56.3002 59.3125C55.9436 59.6426 55.8927 60.5312 55.8927 65.127C55.8927 71.3477 55.9436 71.2207 53.5238 72.084C48.3785 73.9375 45.22 77.3398 44.0483 82.291C43.7426 83.6621 43.6662 86.6328 43.6662 100.725C43.6662 111.947 43.7681 117.99 43.9464 118.879C45.0417 124.109 49.8049 128.781 54.9757 129.721C55.8163 129.873 59.0257 130 62.1333 130C68.5267 130 70.539 129.67 73.188 128.172C76.6013 126.242 79.4286 122.23 80.0909 118.371C80.2947 117.178 80.3456 111.617 80.2947 99.7852C80.2183 84.3223 80.1673 82.7734 79.7343 81.5039C78.206 76.8574 74.8437 73.4805 70.2588 72.0078C68.1192 71.3223 68.1701 71.4492 68.0682 65.1777C67.9918 60.0234 67.9663 59.5918 67.5078 59.2617C67.2276 59.0586 66.7437 58.9062 66.4126 58.9062C65.6739 58.9062 65.6739 58.8809 66.489 56.3418C66.922 54.9961 67.6352 53.5234 68.5522 52.1523L69.9531 50.0703L71.1248 50.8066C71.7871 51.2129 72.7041 51.6699 73.2135 51.7969C74.5635 52.1777 76.7796 52.1016 78.1296 51.6445C79.4796 51.1875 81.8739 49.1816 81.8739 48.5215C81.8739 47.8867 80.3966 46.5664 79.072 45.9824C77.4164 45.2715 75.6333 45.1191 74.0541 45.5254C73.1626 45.7539 72.7805 45.7793 72.8824 45.6016C73.9267 43.8242 76.0409 41.0566 78.4352 38.3398C80.04 36.5117 81.4664 34.8359 81.5683 34.582C81.6956 34.3535 82.307 31.9414 82.8928 29.25C83.9371 24.6035 84.0645 24.2988 85.1089 22.9023C86.4843 21.0742 87.0702 19.2207 86.9174 17.1387C86.7136 14.7266 85.0324 11.9336 83.7589 11.9336C83.0711 11.9336 81.4664 13.6602 80.8296 15.1074C79.7852 17.4688 79.989 20.2617 81.3645 22.4199L82.0777 23.5625L80.9315 28.5898C80.2437 31.6621 79.6324 33.8457 79.3522 34.1504C74.5126 39.6602 73.1626 41.3867 70.6918 45.1191C69.1126 47.5312 67.7116 49.5117 67.6352 49.5117C67.5333 49.5117 66.2597 47.0488 64.8333 44.0527L62.1842 38.5938L62.9229 37.4004C63.6361 36.2324 63.738 36.1816 64.8842 36.1562C66.7437 36.1055 68.1956 34.8359 68.1956 33.2617C68.1956 30.4688 65.1135 28.9707 62.9739 30.7227C61.8786 31.6113 61.522 32.8555 62.0059 33.998C62.2606 34.6582 62.2352 34.8359 61.7003 35.5469L61.1144 36.3594L59.1021 32.2207C57.1918 28.2598 56.988 27.6758 54.8993 19.8301L52.7087 11.6035L53.3965 10.207C54.5682 7.92188 54.3644 4.74805 52.887 2.58984C52.1483 1.47266 50.4163 0 49.8813 0C49.703 0 49.2955 0.253906 48.9898 0.558594ZM51.7917 5.05273C52.2757 6.70312 51.97 9.64844 51.3078 9.64844C50.8747 9.64844 49.7795 8.04883 49.4993 7.0332C49.1936 5.86523 49.321 3.88477 49.8049 2.99609L50.1106 2.4375L50.7983 3.25C51.1804 3.70703 51.6134 4.51953 51.7917 5.05273ZM84.5739 15.6406C85.2872 17.3164 84.7268 20.7949 83.657 21.4551C83.2494 21.709 82.7145 20.8965 82.3834 19.4746C82.0268 18.0527 82.3834 16.123 83.1985 15.1074C83.7843 14.3457 84.09 14.4727 84.5739 15.6406ZM5.53494 26.457C6.63023 27.0918 7.85287 28.4629 8.13306 29.377C8.28589 29.9102 8.20948 29.9609 7.34344 29.9609C5.43305 29.9609 3.31889 28.4629 2.52926 26.5586L2.12172 25.5684L3.31889 25.7461C3.98116 25.8223 4.97456 26.1523 5.53494 26.457ZM31.5417 30.1133C31.7709 30.2148 31.9492 30.5703 31.9492 30.9512C31.9492 32.2207 30.8794 32.6777 30.0388 31.7383C29.6567 31.3066 29.6313 31.1289 29.8605 30.5957C30.1407 29.9609 30.7266 29.8086 31.5417 30.1133ZM65.5975 31.9922C66.3107 32.3984 66.2597 33.7188 65.521 33.998C64.3239 34.4805 63.1776 32.8047 64.1965 32.0684C64.7569 31.6621 64.9607 31.6621 65.5975 31.9922ZM78.2824 47.9375C78.7664 48.1914 79.1485 48.4707 79.1485 48.623C79.1485 48.75 78.639 49.1309 78.0532 49.4355C76.6013 50.1973 74.3598 50.2227 72.9079 49.4863C71.9909 49.0039 71.9145 48.9277 72.2711 48.5723C72.4748 48.3438 73.2645 47.9629 74.0286 47.709C75.5315 47.1758 76.856 47.252 78.2824 47.9375ZM62.7701 61.1152C62.7701 61.1914 61.9295 63.9844 60.8852 67.2598C59.4078 71.9316 58.287 76.4258 55.7653 87.5977C54.0078 95.4941 52.5049 102.146 52.4285 102.375C52.3012 102.781 51.9191 102.832 48.9898 102.832H45.704V93.5645C45.704 87.8262 45.8059 83.8145 45.9842 82.9766C46.8757 78.6855 50.1361 75.2832 54.7719 73.7852C56.1729 73.3281 57.2172 72.4141 57.6502 71.2715C57.8031 70.8652 57.9304 68.5801 57.9304 65.9141C57.9304 63.375 58.0069 61.1914 58.1087 61.1152C58.3125 60.8867 62.7701 60.8867 62.7701 61.1152ZM65.8267 64.9746C65.8267 67.1836 65.9031 69.5195 65.9795 70.1543C66.2088 71.8047 67.4569 73.2012 69.2144 73.7598C74.0796 75.3594 77.3654 79.0156 78.0532 83.6621C78.1805 84.627 78.3079 89.3496 78.3079 94.123V102.832H75.5315C72.9588 102.832 72.7041 102.883 72.3475 103.391C72.0673 103.771 72.0418 104.051 72.2201 104.381C72.4239 104.787 72.8569 104.863 75.3277 104.914L78.1805 104.99V111.465C78.1551 116.822 78.0786 118.168 77.722 119.336C76.3465 123.754 72.5513 127.055 68.0173 127.74C66.9475 127.918 64.0437 127.969 60.7578 127.918C56.0455 127.816 55.0521 127.715 53.8295 127.258C50.238 125.963 47.487 123.195 46.2898 119.641C45.9587 118.701 45.8568 117 45.7804 111.643L45.653 104.863H48.7351C50.4417 104.863 51.8172 104.965 51.8172 105.092C51.8172 105.193 51.0785 108.621 50.1615 112.658C49.2446 116.721 48.5568 120.225 48.6587 120.428C48.8625 120.961 49.27 121.088 49.9578 120.834C50.5436 120.631 50.3653 121.215 52.8106 110.449L54.0333 104.99L60.7323 104.914C65.1644 104.889 67.5588 104.762 67.788 104.584C68.1956 104.229 68.221 103.441 67.8135 103.162C67.6352 103.061 64.5531 102.908 60.9871 102.832L54.4917 102.705L57.854 87.8516C60.4012 76.5273 61.6239 71.6523 62.9993 67.2852C63.9927 64.1367 64.8588 61.4199 64.9352 61.2422C64.9861 61.0898 65.2154 60.9375 65.4446 60.9375C65.7757 60.9375 65.8267 61.5215 65.8267 64.9746Z" fill="#FDFCDE"/>
<path d="M41.909 15.4627C39.8713 16.1736 39.7439 16.5037 40.8647 18.4588C41.96 20.3377 43.6921 21.5564 46.1119 22.0896C48.277 22.572 52.0723 21.531 52.0723 20.4392C52.0723 19.1951 49.9836 16.7576 48.1496 15.8181C46.3921 14.9295 43.8194 14.7771 41.909 15.4627ZM46.5449 17.2908C47.7676 17.6209 49.7289 19.449 49.3213 19.8552C48.8628 20.3123 46.2138 20.2107 45.1949 19.6775C44.2779 19.2205 42.6477 17.824 42.6477 17.4939C42.6477 17.0115 45.1185 16.8845 46.5449 17.2908Z" fill="#FDFCDE"/>
<path d="M62.7706 16.9864C59.4338 18.0274 57.2433 20.7696 56.9885 24.2227C56.7848 26.711 57.447 27.0411 60.7838 26.1017C62.1084 25.7208 64.0442 24.172 64.8848 22.8263C65.7508 21.4044 66.3112 18.6368 65.9291 17.5958C65.7254 16.961 65.5471 16.8849 64.5537 16.8341C63.9169 16.8087 63.1272 16.8849 62.7706 16.9864ZM63.8914 19.8556C63.5093 21.9122 61.1404 24.3751 59.5357 24.3751C59.0263 24.3751 58.9753 24.2735 59.1027 23.5372C59.4848 21.5059 61.8536 19.0431 63.4584 19.0431C63.9678 19.0431 64.0188 19.1446 63.8914 19.8556Z" fill="#FDFCDE"/>
<path d="M88.4969 22.877C86.9686 23.5626 85.7714 24.7559 85.0327 26.2794C83.861 28.7677 84.345 29.5548 87.0959 29.5294C90.4582 29.5294 93.1073 27.4219 93.9479 24.0704C94.0752 23.5372 93.9733 23.2325 93.5912 22.8516C92.878 22.1407 90.1016 22.1407 88.4969 22.877ZM91.5535 24.629C91.5535 25.1876 90.662 26.2032 89.6686 26.7618C88.5478 27.4219 86.7139 27.8536 86.7139 27.4727C86.7139 26.9141 87.962 25.4669 88.879 24.9591C89.9233 24.3751 91.5535 24.1719 91.5535 24.629Z" fill="#FDFCDE"/>
<path d="M36.3808 23.5371C35.7186 25.0859 35.6421 27.3965 36.1516 29.0722C36.9157 31.459 39.6667 34.0234 41.4497 34.0234C42.2903 34.0234 42.545 33.6425 43.029 31.8652C43.8695 28.5644 42.4176 25.0097 39.5139 23.3593C37.6544 22.2929 36.9157 22.3437 36.3808 23.5371ZM40.3035 26.9902C40.8639 27.8027 41.0167 28.3867 41.0676 29.8847C41.1441 31.0527 41.0676 31.7383 40.9148 31.7383C40.329 31.7383 38.9789 30.291 38.4186 29.0722C37.8327 27.8535 37.6289 26.1269 37.9601 25.289C38.0874 24.9336 38.2148 24.959 38.8771 25.416C39.2846 25.7207 39.9214 26.4062 40.3035 26.9902Z" fill="#FDFCDE"/>
<path d="M49.3971 23.7911C47.1046 24.3751 46.2386 27.3966 47.9452 29.0216C49.448 30.4435 51.0528 30.4435 52.4792 29.0216C53.2179 28.2853 53.3452 28.006 53.3452 26.9396C53.3452 25.4923 52.683 24.5021 51.4094 23.9688C50.5433 23.6134 50.2631 23.588 49.3971 23.7911ZM51.2311 26.381C51.8169 27.5997 50.4669 28.6153 49.499 27.6505C48.9131 27.0665 48.8877 26.711 49.448 26.1017C50.0084 25.4669 50.8235 25.6192 51.2311 26.381Z" fill="#FDFCDE"/>
<path d="M19.5705 25.0097C18.1695 27.1679 18.5516 30.7988 20.4875 33.2109C21.7865 34.8613 24.3592 36.2324 25.1488 35.7246C26.4988 34.8359 26.7281 30.875 25.5818 28.6152C24.8177 27.0918 23.1365 25.5175 21.6082 24.8828C20.1309 24.248 20.0799 24.248 19.5705 25.0097ZM23.4167 29.0722C23.9771 29.9863 24.1809 30.6464 24.2573 31.8906C24.3082 32.7793 24.2573 33.5156 24.1554 33.5156C23.2384 33.5156 21.4045 31.4589 20.9969 29.9609C20.7167 28.9453 20.6658 27.3457 20.9205 27.0918C21.2262 26.7617 22.6526 27.9043 23.4167 29.0722Z" fill="#FDFCDE"/>
<path d="M69.8005 26.0255C68.858 26.9904 68.9599 30.3927 69.9788 32.424C70.8194 34.0236 72.5005 35.547 74.1816 36.131C76.6779 37.0197 77.3656 36.3849 77.2383 33.2618C77.1109 30.1642 75.5062 27.7013 72.8316 26.5333C70.9722 25.6954 70.259 25.5685 69.8005 26.0255ZM73.9269 29.8341C74.3345 30.3419 74.793 31.1798 74.9713 31.713C75.3024 32.8556 75.3533 34.2775 75.0477 34.2775C74.9203 34.2775 74.309 33.922 73.6467 33.4904C72.2203 32.5509 71.176 30.6466 71.176 29.0216V27.9298L72.1694 28.4376C72.7297 28.6915 73.4939 29.3517 73.9269 29.8341Z" fill="#FDFCDE"/>
<path d="M82.8161 36.3086C81.3642 36.8671 79.4284 38.3906 79.1991 39.1269C78.9699 39.8632 80.269 41.1836 81.9756 41.9453C83.7331 42.707 86.586 42.7324 88.2671 41.9707C89.7699 41.3105 91.553 39.7109 91.553 39.0507C91.553 38.2636 89.9737 36.9179 88.369 36.3339C86.6114 35.6738 84.4463 35.6738 82.8161 36.3086ZM87.9614 38.3398C89.0567 38.8476 89.0567 38.873 88.6237 39.3554C87.5284 40.5742 84.3699 40.8789 82.5869 39.9648C81.619 39.4824 81.7463 39.1015 83.1473 38.3906C84.5737 37.6796 86.4331 37.6543 87.9614 38.3398Z" fill="#FDFCDE"/>
<path d="M14.399 36.8418C10.782 37.5527 8.31128 40.3711 8.05656 44.1035C7.98014 45.3731 8.03109 46.084 8.26033 46.3379C9.02449 47.2773 12.4632 46.2871 14.2717 44.6367C15.9019 43.1387 16.717 41.2852 16.7679 39.0762C16.7934 37.5781 16.717 37.2227 16.3094 36.918C16.0292 36.7149 15.749 36.5625 15.6726 36.5879C15.5962 36.6133 15.0104 36.7149 14.399 36.8418ZM14.7302 39.6602C14.45 41.2852 13.5075 42.7578 12.2339 43.5957C10.1962 44.9922 9.5594 44.5859 10.4254 42.4785C11.0368 41.0059 11.9537 39.9649 13.1509 39.3809C14.6792 38.6445 14.9085 38.6699 14.7302 39.6602Z" fill="#FDFCDE"/>
<path d="M38.3172 38.7207C37.8332 39.3047 37.7059 41.4375 38.037 42.8086C38.6483 45.1699 40.5587 47.0996 43.055 47.7852C44.3031 48.1153 44.8889 47.5567 45.1182 45.7793C45.4238 43.0625 43.8701 40.2696 41.3229 39C39.82 38.2637 38.7757 38.1621 38.3172 38.7207ZM41.2465 41.4121C42.2908 42.3516 42.7748 43.1387 43.004 44.4844C43.2333 45.6778 42.8002 45.7539 41.6031 44.7637C40.6861 43.9766 39.871 42.377 39.8455 41.3106C39.8455 40.4219 40.1257 40.4473 41.2465 41.4121Z" fill="#FDFCDE"/>
<path d="M33.3242 39.9649C32.611 40.295 31.643 40.9044 31.1591 41.336C29.2741 42.9864 28.1789 46.6934 28.943 48.877C29.2741 49.8673 29.2996 49.8927 30.4458 49.8673C32.6364 49.7911 35.1327 47.9376 36.2534 45.5763C36.9666 44.0528 37.1959 41.8184 36.7374 40.4981C36.4317 39.5841 36.3044 39.4825 35.5147 39.4063C34.9798 39.3809 34.1138 39.5841 33.3242 39.9649ZM34.8779 42.8341C34.5723 44.8399 33.426 46.5665 31.8977 47.379C30.7515 47.963 30.5987 47.8614 30.7515 46.5919C31.0317 44.6622 32.2543 42.8087 33.8591 41.9454C34.8779 41.3868 35.0817 41.5391 34.8779 42.8341Z" fill="#FDFCDE"/>
<path d="M20.9709 41.6151C20.1813 42.4022 19.9775 42.7831 19.9775 43.5194C19.9775 47.201 24.6644 48.3436 26.1417 45.0174C26.6257 43.9256 26.6257 43.8241 26.2181 42.7577C25.6578 41.285 24.6898 40.6248 23.1615 40.6248C22.0917 40.6248 21.837 40.7518 20.9709 41.6151ZM24.0021 42.9608C24.7153 43.6717 24.1804 44.9413 23.1615 44.9413C22.4738 44.9413 22.0153 44.4842 22.0153 43.7987C22.0153 43.1131 22.4738 42.6561 23.1615 42.6561C23.4672 42.6561 23.8238 42.7831 24.0021 42.9608Z" fill="#FDFCDE"/>
</svg>
