<svg width="2247" height="4729" viewBox="0 0 2247 4729" fill="none" xmlns="http://www.w3.org/2000/svg"><g filter="url(#filter0_f_463_2804)"><ellipse rx="174.806" ry="65.904" transform="matrix(.82408 -.56647 .54348 .83943 1716.26 1355.55)" fill="#5B9D09" fill-opacity=".4"/></g><g filter="url(#filter1_f_463_2804)"><ellipse rx="174.806" ry="65.904" transform="matrix(.82408 -.56647 .54348 .83943 782.638 3413.43)" fill="#E8BA17" fill-opacity=".7"/></g><g filter="url(#filter2_f_463_2804)"><ellipse rx="214.371" ry="83.279" transform="matrix(-.6703 -.7421 .72175 -.69215 1658.51 4209.27)" fill="#E8BA17" fill-opacity=".7"/></g><g filter="url(#filter3_f_463_2804)"><ellipse rx="254.127" ry="46.123" transform="matrix(-.73148 -.68186 .65977 -.75147 1227.67 1463.64)" fill="#72A92A"/></g><g filter="url(#filter4_f_463_2804)"><ellipse rx="291.353" ry="109.827" transform="matrix(.82408 -.56647 .54348 .83943 1640.21 2992.86)" fill="#5B9D09" fill-opacity=".4"/></g><g filter="url(#filter5_f_463_2804)"><ellipse rx="64.228" ry="246.283" transform="matrix(.82408 -.56647 .54348 .83943 1064.7 1404.37)" fill="#B76608" fill-opacity=".7"/></g><g filter="url(#filter6_f_463_2804)"><ellipse rx="150.715" ry="173.784" transform="matrix(.82408 -.56647 .54348 .83943 815.599 2120.75)" fill="#FFEC00" fill-opacity=".3"/></g><g filter="url(#filter7_f_463_2804)"><ellipse cx="1806.4" cy="531.899" rx="85.8" ry="97.899" fill="#FFEC00" fill-opacity=".5"/></g><g filter="url(#filter8_f_463_2804)"><ellipse rx="174.806" ry="55.534" transform="matrix(.82408 -.56647 .54348 .83943 1623.37 1859.32)" fill="#E8BA17" fill-opacity=".7"/></g><g filter="url(#filter9_f_463_2804)"><ellipse rx="174.806" ry="65.904" transform="matrix(.82408 -.56647 .54348 .83943 1290.65 685.244)" fill="#E8BA17" fill-opacity=".7"/></g><g filter="url(#filter10_f_463_2804)"><path d="M1894.14 3222.12c-32.83 2.42-66.5 13.94-97.01 35.12-83.8 58.15-112.12 167.06-63.25 243.25 34.14 53.24 96.94 76.42 160.26 65.73v-344.1z" fill="#060F09" fill-opacity=".9"/></g><g filter="url(#filter11_f_463_2804)"><path d="M500 1585.51c19.046-5.9 37.805-14.88 55.513-27.06 84.595-58.15 113.18-167.06 63.848-243.25-26.773-41.35-70.994-64.57-119.361-67.87v338.18z" fill="#060F09" fill-opacity=".9"/></g><g filter="url(#filter12_f_463_2804)"><path d="M1896.08 553.144c-41.17-5.166-87.11 5.625-127.66 33.496-79.54 54.689-108.16 154.429-63.92 222.777 38.38 59.282 118.97 75.475 191.58 43.041V553.144z" fill="#060F09" fill-opacity=".9"/></g><g filter="url(#filter13_f_463_2804)"><path d="M500 830.144c42.06 14.206 87.263 10.268 124.044-15.015 68.594-47.152 81.916-150.688 29.754-231.254-37.12-57.334-97.4-87.586-153.798-83.272v329.541z" fill="#FFEC00" fill-opacity=".5"/></g><g filter="url(#filter14_f_463_2804)"><path d="M649.661 3805.89c129.129-88.76 216.354-187.68 194.823-220.93-21.531-33.26-143.666 11.74-272.795 100.5-25.737 17.69-49.81 35.79-71.689 53.68v151.84c44.316-19.3 96.394-48.47 149.661-85.09z" fill="#FFEC00" fill-opacity=".5"/></g><defs><filter id="filter0_f_463_2804" x="1217.79" y="892.104" width="996.95" height="926.897" filterUnits="userSpaceOnUse" color-interpolation-filters="sRGB"><feFlood flood-opacity="0" result="BackgroundImageFix"/><feBlend in="SourceGraphic" in2="BackgroundImageFix" result="shape"/><feGaussianBlur stdDeviation="175" result="effect1_foregroundBlur_463_2804"/></filter><filter id="filter1_f_463_2804" x="284.163" y="2949.98" width="996.95" height="926.897" filterUnits="userSpaceOnUse" color-interpolation-filters="sRGB"><feFlood flood-opacity="0" result="BackgroundImageFix"/><feBlend in="SourceGraphic" in2="BackgroundImageFix" result="shape"/><feGaussianBlur stdDeviation="175" result="effect1_foregroundBlur_463_2804"/></filter><filter id="filter2_f_463_2804" x="1152.71" y="3690.02" width="1011.59" height="1038.5" filterUnits="userSpaceOnUse" color-interpolation-filters="sRGB"><feFlood flood-opacity="0" result="BackgroundImageFix"/><feBlend in="SourceGraphic" in2="BackgroundImageFix" result="shape"/><feGaussianBlur stdDeviation="175" result="effect1_foregroundBlur_463_2804"/></filter><filter id="filter3_f_463_2804" x="689.278" y="936.893" width="1076.78" height="1053.49" filterUnits="userSpaceOnUse" color-interpolation-filters="sRGB"><feFlood flood-opacity="0" result="BackgroundImageFix"/><feBlend in="SourceGraphic" in2="BackgroundImageFix" result="shape"/><feGaussianBlur stdDeviation="175" result="effect1_foregroundBlur_463_2804"/></filter><filter id="filter4_f_463_2804" x="1042.75" y="2453.78" width="1194.93" height="1078.16" filterUnits="userSpaceOnUse" color-interpolation-filters="sRGB"><feFlood flood-opacity="0" result="BackgroundImageFix"/><feBlend in="SourceGraphic" in2="BackgroundImageFix" result="shape"/><feGaussianBlur stdDeviation="175" result="effect1_foregroundBlur_463_2804"/></filter><filter id="filter5_f_463_2804" x="420.723" y="694.421" width="1287.94" height="1419.9" filterUnits="userSpaceOnUse" color-interpolation-filters="sRGB"><feFlood flood-opacity="0" result="BackgroundImageFix"/><feBlend in="SourceGraphic" in2="BackgroundImageFix" result="shape"/><feGaussianBlur stdDeviation="250" result="effect1_foregroundBlur_463_2804"/></filter><filter id="filter6_f_463_2804" x="159.558" y="1451.7" width="1312.08" height="1338.11" filterUnits="userSpaceOnUse" color-interpolation-filters="sRGB"><feFlood flood-opacity="0" result="BackgroundImageFix"/><feBlend in="SourceGraphic" in2="BackgroundImageFix" result="shape"/><feGaussianBlur stdDeviation="250" result="effect1_foregroundBlur_463_2804"/></filter><filter id="filter7_f_463_2804" x="1370.6" y="84" width="871.602" height="895.798" filterUnits="userSpaceOnUse" color-interpolation-filters="sRGB"><feFlood flood-opacity="0" result="BackgroundImageFix"/><feBlend in="SourceGraphic" in2="BackgroundImageFix" result="shape"/><feGaussianBlur stdDeviation="175" result="effect1_foregroundBlur_463_2804"/></filter><filter id="filter8_f_463_2804" x="1126.16" y="1399.85" width="994.424" height="918.945" filterUnits="userSpaceOnUse" color-interpolation-filters="sRGB"><feFlood flood-opacity="0" result="BackgroundImageFix"/><feBlend in="SourceGraphic" in2="BackgroundImageFix" result="shape"/><feGaussianBlur stdDeviation="175" result="effect1_foregroundBlur_463_2804"/></filter><filter id="filter9_f_463_2804" x="792.18" y="221.795" width="996.95" height="926.897" filterUnits="userSpaceOnUse" color-interpolation-filters="sRGB"><feFlood flood-opacity="0" result="BackgroundImageFix"/><feBlend in="SourceGraphic" in2="BackgroundImageFix" result="shape"/><feGaussianBlur stdDeviation="175" result="effect1_foregroundBlur_463_2804"/></filter><filter id="filter10_f_463_2804" x="1359.93" y="2872.12" width="884.204" height="1046.64" filterUnits="userSpaceOnUse" color-interpolation-filters="sRGB"><feFlood flood-opacity="0" result="BackgroundImageFix"/><feBlend in="SourceGraphic" in2="BackgroundImageFix" result="shape"/><feGaussianBlur stdDeviation="175" result="effect1_foregroundBlur_463_2804"/></filter><filter id="filter11_f_463_2804" x="150" y="897.334" width="843.532" height="1038.17" filterUnits="userSpaceOnUse" color-interpolation-filters="sRGB"><feFlood flood-opacity="0" result="BackgroundImageFix"/><feBlend in="SourceGraphic" in2="BackgroundImageFix" result="shape"/><feGaussianBlur stdDeviation="175" result="effect1_foregroundBlur_463_2804"/></filter><filter id="filter12_f_463_2804" x="1333.69" y="201.894" width="912.384" height="1017" filterUnits="userSpaceOnUse" color-interpolation-filters="sRGB"><feFlood flood-opacity="0" result="BackgroundImageFix"/><feBlend in="SourceGraphic" in2="BackgroundImageFix" result="shape"/><feGaussianBlur stdDeviation="175" result="effect1_foregroundBlur_463_2804"/></filter><filter id="filter13_f_463_2804" x="0" y=".198" width="1185.64" height="1338.11" filterUnits="userSpaceOnUse" color-interpolation-filters="sRGB"><feFlood flood-opacity="0" result="BackgroundImageFix"/><feBlend in="SourceGraphic" in2="BackgroundImageFix" result="shape"/><feGaussianBlur stdDeviation="250" result="effect1_foregroundBlur_463_2804"/></filter><filter id="filter14_f_463_2804" x="0" y="3074" width="1347.75" height="1316.98" filterUnits="userSpaceOnUse" color-interpolation-filters="sRGB"><feFlood flood-opacity="0" result="BackgroundImageFix"/><feBlend in="SourceGraphic" in2="BackgroundImageFix" result="shape"/><feGaussianBlur stdDeviation="250" result="effect1_foregroundBlur_463_2804"/></filter></defs></svg>